<?xml version="1.0" encoding="UTF-8"?>
<svg id="Calque_2" data-name="Calque 2" xmlns="http://www.w3.org/2000/svg" viewBox="0 0 113.51 178.26">
  <defs>
    <style>
      .cls-1 {
        fill: #fff;
        stroke-width: 0px;
      }
    </style>
  </defs>
  <g id="Calque_1-2" data-name="Calque 1">
    <path class="cls-1" d="M91.97,45.93c-4.83-3.84-10.33-6.87-16.16-9-.54-.2-1.08-.39-1.63-.57.12-.16.21-.33.3-.49.7-1.15,1.33-2.33,1.89-3.56,3.48-7.61,3.92-16.54,1.28-24.48-1.24-3.73-3.61-7.62-7.97-7.82-2.04-.1-3.9.79-5.53,1.93-3.13,2.17-5.08,5.55-6.36,9.07-.72,1.98-1.24,4.02-1.69,6.08-.65,2.98-1.16,5.97-1.54,8.97-.31,2.41-.54,4.82-.7,7.23-10.5.27-20.83,3.46-29.37,10l.74,1.02c8.41-6.04,18.41-8.91,28.51-9-.3,5.63-.26,11.28-.05,16.92-3.69,3.56-7.33,7.16-10.45,11.22-6.96,9.09-11.07,20.72-9.59,32.08.67,5.18,2.51,10.26,5.68,14.41,3.18,4.15,7.73,7.31,12.84,8.41,1.8.39,3.64.51,5.47.38.17,2.81.34,5.56.51,8.24.3,4.86.6,9.45.89,13.54-10.79.04-21.66-2.93-30.73-8.62-4.29-2.56-8.09-5.79-11.32-9.49-9.18-10.49-13.82-24.82-12.03-38.8,1.38-13.72,10.53-31.23,26.49-29.22,1.43.19,2.98.98,4.04,2.06-3.59-.28-7.48,1.7-7.45,5.56.39,5.14,7.08,5.25,10.13,2.41,3.32-2.9,3.23-7.45.29-10.62-3.3-3.61-8.4-4.11-12.84-3.49C5.62,53.77-1.58,77.64.28,95.4c.66,7.2,2.72,13.76,5.84,19.58,10.19,19.02,31.76,30.19,53.24,29.9.08,1.07.16,2.09.24,3.05.57,6.99,1.39,14.83-2.31,21.16-1.79,3.06-4.79,5.44-8.39,5.83-3.09.34-6.19-.87-8.19-3.27-2.29-2.73-2.79-6.66-.85-9.72.49,1.53,1.29,3.02,2.63,4.13,1.87,1.54,4.95,1.84,6.76.02,1.47-1.48,1.47-3.71.69-5.44-.52-1.15-1.44-2.23-2.74-2.8-3.16-1.39-7.34-.89-9.52,1.96-4.25,5.58-1.61,13.84,4.54,16.79,2.69,1.29,5.7,1.97,8.69,1.54,6.99-1.01,11.6-7.64,12.54-14.28.66-4.7.36-9.47-.07-14.18-.15-1.65-.29-3.3-.42-4.95,11.46-.84,22.71-5.01,32-13.07,25.83-22.87,24.53-64.77-2.99-85.72ZM57.72,27c0-.11.02-.21.04-.32.57-3.83,1.1-7.67,2.13-11.41.88-3.13,2.18-7.09,5.15-8.87,1.81-1.08,4.12-1.08,5.85.16,2.22,1.58,2.77,4.48,3.07,7,.4,3.35.29,6.74-.36,10.05-.29,1.44-.67,2.86-1.15,4.24-.61,1.75-1.37,3.43-2.25,5.05-.36.68-.75,1.35-1.15,2-3.94-.94-7.98-1.49-12.02-1.6.15-2.12.38-4.22.69-6.3ZM56.89,35.36c1.7.08,3.4.24,5.09.47h0c1.76.54,3.5,1.17,5.17,1.91-2.32,3.22-5.03,6.2-7.83,9.01-.89.89-1.78,1.77-2.69,2.64v-.11c-.03-4.6-.02-9.28.26-13.92ZM54.61,113.9c-6.47-1.14-11.13-7.03-13.51-13.15-3.31-8.48-3.36-18.27.27-26.62,2.8-6.42,7.45-11.6,12.56-16.49.19,3.61.43,7.22.68,10.82.23,3.38.49,7.42.76,11.9-2.31.98-4.34,2.57-5.8,4.64-2.49,3.52-3.59,8.1-2.84,12.37.01-.04.01-.07.01-.11.51-4.63,2.93-9.43,6.71-12.16.68-.49,1.4-.9,2.14-1.21.55,9.22,1.16,19.87,1.77,30.18-.92.05-1.84-.01-2.75-.17ZM59.35,92.14c-.22-3.02-.49-6.08-.76-9.12,5.41-.8,11.2,2.08,13.28,7.51.94,2.45,1.14,5.15.81,7.74-.56,4.42-2.5,8.72-5.77,11.75-1.68,1.55-3.71,2.73-5.89,3.41-.52-7.1-1.14-14.19-1.67-21.29ZM62.53,138.74c-.27-4.29-.5-8.59-.75-12.89-.08-1.64-.17-3.28-.27-4.92-.05-.93-.11-1.87-.17-2.8,3.29-.84,6.39-2.47,8.91-4.76,4.81-4.37,7.44-10.96,7.18-17.45-.21-5.44-1.81-10.81-6.54-14.03-3.64-2.47-8.31-3.35-12.61-2.45-.06-.57-.1-1.14-.15-1.71-.6-7.52-1.16-15.12-1.39-22.71,5.21-4.8,10.63-9.47,14.85-14.93,1.92,1.18,3.71,2.56,5.31,4.15,8.35,8.28,10.77,20.67,12.32,31.95.57,4.28,2.05,8.82,4.79,12.36.14.18.28.36.43.54,1.54,2.2,4.35,3.44,4.18,6.22-.26,1.13-.46,1.11-1.75,1.2-1.51-.08-3.59.45-4.18,2.12-.45,1.08-.84,4.68-1.08,5.83-.09.51-.4,2.52-.49,2.95-.42.69-1.4,1.6-1.54,2.65-.29,1.42.38,2.84.33,3.94l-.2,1c-.65,2.53-.75,5.72-2.22,7.76-1.33,1.48-3.05,1.18-5.27,1.88-7.91,2.5-14.2,8.12-19.69,14.1ZM92.38,128.65c-7.48,6.45-16.73,10.18-26.38,11.4,2.96-3.16,6.16-6.09,9.66-8.51,2.35-1.6,4.85-2.98,7.46-3.75,7.04-1.24,8.07-3.29,9.23-9.99.16-.85.52-2.55.65-3.39.23-1.38-.54-2.81-.36-3.87.44-.64,1.51-1.84,1.54-2.84l.08-.55c.22-1.41.79-5.17,1.01-6.63.15-1.16.3-.98,1.72-1.07,3.75.15,5.45-3.53,4.12-6.69-.69-1.61-1.93-2.78-3.08-3.91-1.31-1.29-2.42-2.73-3.33-4.31h0c-.13-.24-.26-.47-.38-.7-1.97-3.57-2.49-8.39-3.13-12.48-2.25-13.85-6.96-25.72-17.67-32.72-.22-.08-.45-.16-.68-.24.03-.04.07-.09.09-.14.2.11.4.24.59.38,2.67.94,5.27,2.08,7.76,3.41,3.2,1.69,6.23,3.69,9.02,5.98,25.61,20,26.62,59.38,2.08,80.62Z"/>
  </g>
</svg>