<?xml version="1.0" encoding="UTF-8"?>
<svg id="Calque_2" data-name="Calque 2" xmlns="http://www.w3.org/2000/svg" viewBox="0 0 33.42 28.94">
  <defs>
    <style>
      .cls-1 {
        fill: #1d1d1b;
        stroke-width: 0px;
      }
    </style>
  </defs>
  <g id="Calque_2-2" data-name="Calque 2">
    <path class="cls-1" d="M31.73,14.14c-.65.25-1.4.42-2.09.46-.28.01-1.16.04-1.39-.25-1.29-1.61-2.55-3.25-3.75-4.93.11,2.32-.07,4.66-.55,6.96-1.09,5.14-3.89,10.1-9.11,11.86-2.64.89-5.47,1.03-8.02-.18C3.89,26.66,1.75,23.93.02,21.27c-.32-.5,3.68-2.2,4.35-1.16,1.7,2.61,3.82,5.27,6.75,6.57.45.21.92.35,1.41.45.17.04.33.07.5.08.07.01.43.02.43.02.05.01.11,0,.16-.01-.01.01-.04.02-.07.03.04,0,.07-.02.09-.03s.03-.01.04-.01v.02s0,0,.03-.01h.01s.02-.01.03-.01t0-.01s-.02,0-.04.01h-.04s.01-.01.01-.01c0,0-.01.01-.04.01.05-.03.1-.05.15-.08,0,0,.02,0,.09-.05.09-.04.17-.09.25-.14,1.7-1.1,2.89-2.86,3.78-4.65,2.17-4.37,2.65-9.45,2.01-14.26-1.34,2.07-2.81,4.05-4.45,5.96-.77.9-2.46,1.28-3.57,1.33-.63.03-2.1-.15-1.32-1.07,2.28-2.64,4.35-5.45,6.03-8.52.66-1.2,1.17-2.52,1.92-3.67.66-1,1.72-1.5,2.85-1.8.99-.26,2.41-.52,3.27.23,1.05.91,1.76,2.47,2.51,3.61,1.9,2.89,3.95,5.66,6.11,8.35.64.8-.99,1.48-1.55,1.69Z"/>
  </g>
</svg>