<?xml version="1.0" encoding="UTF-8"?>
<svg id="Calque_2" data-name="Calque 2" xmlns="http://www.w3.org/2000/svg" viewBox="0 0 51.61 30">
  <defs>
    <style>
      .cls-1 {
        fill: #fff;
        stroke-width: 0px;
      }
    </style>
  </defs>
  <g id="Calque_3" data-name="Calque 3">
    <path class="cls-1" d="M51.61,1.44c-2.81,5.42-6.31,10.48-10.26,15.18-3.7,4.44-7.89,8.52-12.47,12.07-.15.12-.34.26-.34.27-.13.09-.41.44-1.28.8-.43.18-1.08.3-1.68.21-.51-.03-1.33-.39-1.69-.71-.17-.14-.28-.24-.32-.29,0,0,0,0,0-.01-1.16-.69-4.63-3.49-6.35-5.12-4.5-4.2-8.58-8.74-12.27-13.64C3.07,7.57,1.17,5.15,0,2.06l2.49-.98c3.46,4.57,7.88,8.58,11.96,12.62,3.72,3.48,7.42,6.98,11.55,9.91,8.79-6.84,16.26-15.05,23.44-23.61.01,0,2.17,1.44,2.17,1.44Z"/>
    <path class="cls-1" d="M36.96,2.22c-2.43,4.58-5.83,8.68-9.93,11.85-.13.15-.86.56-1.27.43-.25.01-.67-.24-.82-.38l-.02-.02-.42-.31c-3.92-3.1-7.5-6.79-9.75-11.3l1.07-.42c2.95,3.55,6.42,6.9,10.13,9.68,3.77-2.94,6.99-6.46,10.07-10.15l.94.62Z"/>
  </g>
</svg>