<?xml version="1.0" encoding="UTF-8"?>
<svg id="Calque_2" data-name="Calque 2" xmlns="http://www.w3.org/2000/svg" viewBox="0 0 1112.82 932.26">
  <defs>
    <style>
      .cls-1 {
        fill: #000;
      }

      .cls-1, .cls-2, .cls-3, .cls-4 {
        stroke-width: 0px;
      }

      .cls-2 {
        fill: #dfbeaf;
      }

      .cls-3 {
        fill: #8898a1;
      }

      .cls-4 {
        fill: #bedacf;
      }
    </style>
  </defs>
  <g id="ILLU_LIVRE">
    <g id="FondCouleur">
      <g>
        <path class="cls-3" d="M447.62,397.31c-.32-.26-.64-.52-.97-.78-.05-.05-.11-.09-.17-.14.18-.06.36-.12.54-.17.02.06.05.11.08.16h.01c.15.31.32.62.51.93Z"/>
        <path class="cls-3" d="M455.44,393.57c-.03.06-.06.12-.08.18-.3.71-.54,1.46-.7,2.24-.21,1.11-.29,2.25-.17,3.41-.87-1.53-1.57-3.12-1.93-4.75-.01-.05-.02-.11-.03-.17.97-.3,1.94-.61,2.91-.91Z"/>
        <path class="cls-3" d="M494.32,389.54c-11.08,3.57-22.16,7.11-33.08,10.56.08-.06.15-.11.23-.16,4.12-3.09,6.76-6.19,8.66-10.9.02-.04.04-.09.05-.13h.01c2.39-.76,4.77-1.51,7.14-2.27,5.06-1.6,10.07-3.2,14.99-4.77.9,2.46,1.52,5.03,2,7.67Z"/>
        <path class="cls-3" d="M438.26,407.3c-11.18,3.46-22.08,6.76-32.53,9.82-.01-.03-.03-.05-.05-.08-1.4-2.21-2.76-4.46-4.06-6.76,8.75-2.66,18.61-5.7,29.05-8.95,2.59,1.84,5.1,3.84,7.59,5.97Z"/>
        <path class="cls-3" d="M390.4,421.39c-2.84.74-5.59,1.41-7.93,1.91-18.27,3.87-69.14,6.83-118.34,9.68-14.03.82-28.27,1.64-41.86,2.49-.01,0-.02-.03-.04-.04-1.11-1.36-2.26-2.7-3.43-4.02,57.11-3.91,137.76-9.68,147.43-11.16,2.68-.41,10.28-2.49,21.03-5.67,1.01,2.29,2.06,4.56,3.14,6.81Z"/>
        <path class="cls-3" d="M159.81,423.48c-4.61.12-9.91.38-15.37.84-29.87,2.54-36.84,9.13-39.48,13.86-6.61,11.8-1.72,46.4,1.57,64.99-2.46.34-5.65.73-9.11,1.07-.92-3.91-12.79-66.7-.77-76.18,12.03-9.49,62.46-8.31,62.46-8.31,0,0,.29,1.53.7,3.73Z"/>
        <path class="cls-3" d="M211.59,436.16c-11.01.73-21.39,1.48-30.66,2.26l-.58-4.43c7.59-.49,17.1-1.13,27.77-1.86,1.18,1.33,2.34,2.67,3.47,4.03Z"/>
        <path class="cls-3" d="M143.3,472.45c.88,7.08,2.38,17.62,4.37,30.69l-1.37.18-2.39.31c-.26.03-.52.06-.78.09l-.22.03c-.33.04-.66.09-.97.13l-4.55.58-10.42,1.34-9.56,1.23c-4.2-22.11-8.41-55.61-3.73-63.97,3.27-5.85,25.44-9.23,47.96-9.69.13.62.24,1.21.34,1.76,1.03-.04,3.95-.21,8.36-.49l1.28,9.69v.14s1.98,15,1.98,15l.46,3.44c-11.02,1.29-19.81,2.61-26.79,4.03-2.56.51-4.29,2.92-3.97,5.51Z"/>
        <path class="cls-3" d="M166.94,752.55c-3.07,1.04-6.01,2.46-8.79,4.17l-38.92-212.65s.01-.01,0-.01h0c.77-3.05.91-6.24.26-9.38-.15-.52-.4-1.17-.61-1.68-.48-1.02-1.37-1.98-2.13-2.49h-.01s-2.38-13.01-2.38-13.01l9.13-1.17c8.63,52.66,31.63,174.69,43.45,236.22Z"/>
        <path class="cls-3" d="M192.58,748.89c-.7.69-1.39,1.41-2.05,2.15h-.01c-1.01-.16-2.02-.28-3.04-.37h-.02c-1.08-.1-2.16-.16-3.25-.2-1.72-.06-3.47-.06-5.24-.02h-.02c-.32,0-.64.01-.96.02-.41.01-.82.03-1.23.07-.04-.21-.08-.43-.12-.64-.05-.28-.11-.56-.16-.84-.21-1.07-.42-2.16-.63-3.27-11.89-62.03-33.75-177.75-42.43-230.74l5.67-.72,10.1-1.3c2.59,16.69,5.6,35.24,8.75,53.99l.25,1.49c5.97,35.55,17.81,103.94,30.67,166.41.22,1.03.43,2.06.64,3.08.04.18.08.36.12.54.55,2.66,1.1,5.29,1.64,7.89.2.96.67,1.8,1.32,2.46Z"/>
        <path class="cls-3" d="M176.15,852.67c-2.16-.6-3.98-1.35-5.33-2.27-10.22-6.94-19.64-48.85-21.37-64.42,1.07-2.51,2.31-4.89,3.74-7.09,3.78-.87,8.76-1.39,8.76-1.39l-1.34-7.3c2.6-2.28,5.5-4.21,8.62-5.72,1.62,8.38,2.91,14.98,3.76,19.29-1.15.16-2.24.32-3.26.46l-4.71.67c-1.33.19-2.52.9-3.32,1.98-.79,1.07-1.12,2.42-.92,3.74.78,5.01,6.73,41.9,15.37,62.05Z"/>
        <path class="cls-3" d="M187,781.78c-.18.02-.37.04-.55.07l-1.53.22c-.16.02-.32.05-.48.07l-1.52.21c-.4-2.02-.92-4.67-1.54-7.87-.68-3.52-1.49-7.71-2.4-12.46.36-.02.72-.03,1.09-.04,1.23-.01,2.48,0,3.74.04-1.5,4.25-1.89,8.82-.48,13.44.01.07.04.15.06.22.85,2.3,2.08,4.33,3.61,6.1Z"/>
        <path class="cls-3" d="M238.33,839.24s.19,8.23.5,12.68c-1.3.2-6.05.81-12.51,1.42h-.01c-3.8-1.81-7.98-2.53-11.96-1.61h0c-1.99.47-3.93,1.34-5.75,2.7-.05.05-.11.09-.16.14-5.46.23-11.08.31-16.33.1-1.33-.04-2.63-.11-3.91-.2h-.01c-6.39-9.65-13.17-39.62-16.7-60.39,2.43-.34,5.23-.74,8.2-1.16l6.21-.89c.92-.13,1.85-.27,2.84-.4l2.27-.32c.68-.1,1.35-.19,2.01-.29.41-.06.82-.12,1.23-.18h.01c.28-.03.55-.07.82-.12.16,0,.32-.04.47-.06.03,0,.25-.05.59-.11,1.03-.19,3.02-.57,3.45-.64.13-.02.26-.05.39-.08.36.11.72.22,1.08.32,1.99,8.27,3.89,15.73,5.7,22.3,1,3.66,1.97,7.05,2.9,10.15.05.14.09.28.13.42.04.12.08.24.12.36.05.12.1.23.15.35.05.11.11.22.17.33.06.1.13.21.2.31s.14.2.22.3c.62.79,1.49,1.39,2.47,1.68.12.04.25.07.37.1.15.04.29.06.44.08.06,0,.13,0,.19.02.05,0,.1.01.16.01,7.28.66,17.83,1.02,31.42,1.11.05.43.12.87.18,1.33,0,.04.01.09.01.13l.06.41c.03.19.06.38.09.58l.91,6.57c.06.4.12.79.16,1.2.01.05.02.1.02.15l.12.77c.01.06.02.11.02.17-5.68.17-8.93.26-8.93.26Z"/>
        <path class="cls-3" d="M653.1,769.99c-.28.53-.55,1.05-.83,1.58-3.01,1.07-6.11,2.15-9.3,3.26-.11-.16-.23-.32-.35-.47,3.75-.53,7.3-2.16,10.48-4.37Z"/>
        <path class="cls-3" d="M675.3,733.64c-2.87,3.08-5.43,6.41-7.66,9.85-.63.94-1.24,1.89-1.84,2.86-1.06-3.38-3.19-6.34-5.94-8.61-1.46-1.23-3.1-2.25-4.85-3.04-.49-.22-.98-.43-1.49-.61-3.41-1.26-7.14-1.65-10.71-.91.76,1.67,1.7,3.24,2.77,4.71,1.02,1.39,2.15,2.68,3.39,3.89,4.03,3.92,9.12,6.86,14.42,8.63-2.92,5.09-5.58,10.41-8.28,15.69-4.76,2.24-9.94,3.86-14.98,2.88-.25-1.01-.49-2.24-.72-3.74-.94.4-2.28.91-3.96,1.52-1.85-1.51-3.29-3.54-4.6-5.63-.08-.14-.17-.28-.25-.42-2.68-4.53-5.35-9.99-7.05-15.61-1.67-5.48-2.43-11.11-1.41-16.19.42-1.93,1.31-3.53,2.52-4.86.02-.02.04-.04.05-.06,5.32-5.72,16.83-6.31,24.11-5.92,2.13.14,4.24.39,6.28.78,5.18.97,9.96,2.82,13.74,5.92,1.25,1.01,2.39,2.16,3.39,3.46,1.23,1.58,2.27,3.37,3.07,5.41Z"/>
        <path class="cls-3" d="M633.24,617.49c-28.47,4.85-56.21,12.41-83.81,20.7-26.91,8.32-53.56,17.28-79.36,28.73-1.68-9.29-3.36-18.44-5.01-27.35l17.06-5.59c45.56-15.14,98.06-32.78,143.69-48.71,2.45,10.74,4.93,21.49,7.43,32.22Z"/>
        <path class="cls-3" d="M641.43,652.26c-29.05,4.64-57.36,12.15-85.52,20.41-27.02,8.16-53.79,16.97-79.71,28.29-1.96-11.01-3.94-22-5.9-32.81,27.86-4.87,55.01-12.29,82.04-20.4,27.51-8.49,54.75-17.65,81.07-29.5,2.64,11.34,5.31,22.68,8.02,34.01Z"/>
        <path class="cls-3" d="M656.11,711.89c-2.07-.67-4.18-1.19-6.26-1.61-1.17-.21-2.36-.39-3.56-.53h0c-7.56-.9-15.42-.34-22.45,2.97-8.54,3.94-11.85,11.28-12.07,19.37-3.89,1.04-7.77,2.09-11.65,3.15-27.83,7.57-55.55,15.51-83.25,23.54-9.71,2.78-19.4,5.64-29.08,8.51-1.56-9.14-3.17-18.52-4.83-28.03,28.06-4.95,55.42-12.5,82.63-20.73,28.49-8.87,56.67-18.47,83.85-31-29.53,4.9-58.23,12.79-86.78,21.44-27.1,8.46-53.93,17.57-79.89,29.22-2.06-11.89-4.19-23.98-6.35-36.06,27.94-4.68,55.21-11.94,82.35-19.88,28.09-8.47,55.89-17.65,82.76-29.64,4.72,19.8,9.57,39.56,14.59,59.28Z"/>
        <path class="cls-3" d="M217.09,729.94h0s-.04.01-.04.01c.01,0,.03-.01.04-.01Z"/>
        <path class="cls-3" d="M385.09,681.12c-28.44-1.29-56.77.02-85.11,2.03-29.37,2.32-58.61,5.38-87.54,11.35-1.54-11.43-3.11-22.78-4.66-33.76,55.6-1.69,116.45-4.19,172.25-6.98,1.69,9.12,3.34,18.24,5.06,27.36Z"/>
        <path class="cls-3" d="M391.54,715.07c-28.47-1.12-56.8.38-85.15,2.57-29.98,2.56-59.81,5.9-89.3,12.3-1.46-11.54-3.01-23.28-4.58-34.94,29.48,1.56,58.85.22,88.22-1.88,28.37-2.26,56.62-5.2,84.59-10.74.07.39.15.76.22,1.15,1.83,9.63,3.87,20.38,6,31.54Z"/>
        <path class="cls-3" d="M398.63,752.13c-27.77-1.44-55.44-.25-83.13,1.63-29.28,2.23-58.42,5.25-87.25,11.33-.02-.03-.04-.07-.06-.1,2.24,4.6,3.64,10.04,1.5,14.85-2.39,4.99-7.52,7.15-12.9,6.44-2.39-.26-5.16-.89-7.96-1.85h-.01c-.32-.11-.63-.22-.95-.33-.01,0-.03-.02-.04-.02-.16-.07-.31-.13-.47-.18-.17-.07-.34-.13-.5-.2-.01,0-.01-.01-.02-.01-1.41-.55-2.81-1.19-4.15-1.9h-.01l-2.96-1.75c-.43-.29-.85-.58-1.25-.89t-.01,0c-2.61-1.94-4.65-4.2-5.6-6.68-.99-2.7-.55-6.25.59-9.77,1.33.15,2.64.34,3.91.55,4.71,2.15,9.69,2.65,15.44.85-1.39-5.27-6.09-8.84-11.09-9.64-.01-.01-.02-.01-.02-.01-.26-.19-.53-.36-.85-.51-.83-.36-1.66-.68-2.48-.98,2.03-2.9,4.4-5.92,7.66-6.61,1.17-.25,2.45-.2,3.87.26,7.45,2.41,12.91,9.11,16.88,15.79-1.94-3.35-4.25-7.24-6.99-10.7-.85-7.11-1.75-14.39-2.69-21.75,30.14,1.54,60.12-.01,90.12-2.35,28.36-2.44,56.61-5.56,84.56-11.31,2.25,11.8,4.59,24.03,6.86,35.84Z"/>
        <path class="cls-3" d="M404.18,780.48c-51.04,3.96-103.56,8.47-154.38,13.52-7.47.75-14.92,1.5-22.38,2.3l-1.72-8.4c2.46-1.85,4.35-4.42,5.28-7.59,1.41-5.24-.38-10.53-2.73-15.22,29.4,1.87,58.68.65,87.98-1.36,27.72-2.13,55.32-4.94,82.64-10.39,1.84,9.48,3.63,18.68,5.31,27.14Z"/>
        <path class="cls-3" d="M362.37,517.02c-29.82-1.63-59.51-.29-89.22,1.82-28.52,2.24-56.92,5.2-85.04,10.83-2.04-11.96-3.95-23.03-5.54-32.17,56-3.68,119.08-8.62,174.7-13.17,1.54,9.98,3.27,21.06,5.1,32.69Z"/>
        <path class="cls-3" d="M367.73,550.88c-29.48-1.35-58.82.17-88.16,2.44-28.7,2.45-57.27,5.61-85.52,11.5-1.93-11.54-3.89-23.13-5.75-34.01,28.61,1.35,57.1.03,85.6-2.01,29.7-2.35,59.27-5.46,88.51-11.53,1.71,10.89,3.5,22.24,5.32,33.61Z"/>
        <path class="cls-3" d="M373.7,587.92c-29.17-1.55-58.23-.28-87.31,1.7-28.97,2.2-57.81,5.13-86.36,10.86-1.82-10.91-3.8-22.75-5.81-34.67,28.81,1.22,57.47-.28,86.16-2.52,29.34-2.52,58.55-5.78,87.43-11.91,1.97,12.38,3.97,24.76,5.89,36.54Z"/>
        <path class="cls-3" d="M378.47,616.82c-55.74,2.84-118.32,6.7-174.02,10.35-1.24-7.51-2.7-16.33-4.29-25.87,29.05,1.54,58,.27,86.96-1.71,29.07-2.24,58.03-5.19,86.7-10.94,1.62,9.95,3.19,19.46,4.65,28.17Z"/>
        <path class="cls-3" d="M448.89,798.92l-12.76-67.12c-2.69,1.34-5.61,3.79-5.09,8,.34,2.74-1.61,5.24-4.35,5.58-.21.02-.41.04-.62.04-2.49,0-4.64-1.86-4.95-4.39-1.07-8.58,4.1-15.99,13.1-19.31l-18.18-95.58c-2.68,1.35-5.57,3.79-5.05,7.98.34,2.74-1.61,5.24-4.35,5.58-.2.03-.41.04-.62.04-2.48,0-4.64-1.86-4.95-4.39-1.06-8.57,4.09-15.97,13.06-19.29l-19.64-103.32c-2.78,1.31-5.96,3.78-5.42,8.17.34,2.74-1.6,5.23-4.34,5.57-.21.03-.42.04-.62.04-2.49,0-4.65-1.85-4.96-4.39-1.08-8.68,4.23-16.17,13.43-19.42l-8.8-46.3c-19.55,3.15-57.82,5.5-98.13,7.98-37.24,2.29-75.74,4.65-105.43,7.89-10.67,1.17-19.37,2.35-26.39,3.59,1.03,7.73,2.59,18.43,4.5,30.82.01.03.01.07.01.11v.05s0,.04,0,.06c2.76,17.81,6.02,38.01,9.45,58.46l.25,1.49c6.06,36.07,18.18,106.02,31.26,169.16,0,.03.01.07.02.11l.02.1c.02.09.02.1.04.2.23,1.11.46,2.21.69,3.32h0c.24,1.15.48,2.29.72,3.42.68-.28,1.37-.5,2.07-.65,1.12-.25,2.28-.33,3.47-.18,5.29.82,9.69,4.64,13.34,9.23-6.18-30.04-12.48-63.05-18.03-93.14-.33-1.69.98-3.3,2.69-3.34,42.82-3.23,91.55-6.25,134.61-8.86l44.89-2.49c2.49-.14,4.65,1.62,5.08,4.01,2.14,11.31,4.34,22.62,6.42,33.95,3.07,16.94,9.39,51.03,12.45,67.97,0,.08,6.04,34.03,6.04,34.11.47,2.55-1.46,5-4.05,5.13l-22.82,1.31c-37.21,1.96-76.89,3.97-114.15,5.4-15.24.62-30.49,1.14-45.74,1.58-.21,0-.39-.16-.42-.36l-1.06-8.85c-2.45,1.83-5.46,2.95-8.6,3.31-1.6.22-3.27.33-4.98.33,1.83,7.46,3.67,14.66,5.48,21.5.32,1.23.64,2.44.96,3.64,14.12.71,31.45.97,51.57.77h.39c.56,0,1.12,0,1.68-.02,39.15-.62,86.09-2.79,122.66-5.69.15-.02.3-.03.45-.04.65-.05,1.25-.11,1.85-.16.72-.06,1.43-.12,2.14-.18,21.98-1.9,39.38-3.99,50.92-6.13l-1.22-6.4ZM382.89,623.76c-22.73,1.88-68.39,5.54-91.12,7.19-26.42,2.16-64.39,4.5-91.18,6.49-2.59.18-4.86-1.67-5.27-4.18-5.58-34.6-16.57-104.29-21.77-138.94-.45-2.44,1.42-4.76,3.9-4.84,57.34-2.26,122.44-3.95,179.82-5.15,8.54,40.09,21.06,95.51,28.9,135.2.43,2.09-1.15,4.13-3.28,4.23Z"/>
        <path class="cls-3" d="M627.84,769.39c-8.95,3.01-21.85,7.12-36.79,11.77-6.37,1.99-13.1,4.07-20.07,6.21h-.01c-48.88,15.01-108.8,32.74-128.93,38.2-19.93,5.4-87.01,9.18-138.81,11.37h-.01c-5.88.26-11.58.49-16.97.69h-.01c-11.15.44-21.06.78-28.93,1.03-.05-.42-.12-.85-.18-1.29l-.1-.73c-.06-.45-.12-.9-.19-1.37l-.91-6.56s-.01-.08-.02-.11l-.13-.92c4.56-.02,9.4-.07,14.43-.14h.26c.62,0,1.23,0,1.79-.02h.12c39.43-.44,85.65-2.59,123.61-5.76.65-.05,1.3-.11,1.94-.17.88-.07,1.76-.15,2.63-.22,26.72-2.22,45.66-4.64,56.32-7.22.05-.01.1-.02.14-.03.02,0,.04-.01.06-.02h.03s.04,0,.06,0c.05-.02.1-.03.15-.04,18.95-4.79,66.57-17.92,116.58-33.55,4.34-1.36,8.69-2.73,13.05-4.13h.01c12.28-3.91,24.56-7.94,36.46-12.01,1.32,1.82,2.79,3.54,4.42,5.03Z"/>
        <path class="cls-3" d="M625.02,334.12c-13.64-7.67-59.93,9.54-64.94,12.14,1.34,5.53,3.15,12.94,3.15,12.94-6.9,2.18-33.76,10.84-65.58,20.98.19,2.83-.09,5.76-.69,8.51,7.52-2.42,15.03-4.85,22.5-7.26,19.84-6.41,38.66-12.48,56.02-17.94-.81-3.34-1.54-6.3-2.06-8.46-.58-2.38.66-4.83,2.92-5.78.55-.24,13.67-5.76,28.56-10.11,8.53-2.49,15.31-3.93,20.74-4.63-.21-.15-.41-.27-.62-.39ZM598.9,373.64c-1.5-.38-5.09.13-10.32,1.35-.13-.53-.26-1.05-.39-1.59l.38,1.6h.01s.02.09.03.13l.75,3.1c.3,1.2.58,2.36.85,3.47.13.51.25,1.01.37,1.5,3.92-1.17,7.4-2.17,10.45-3.03-1.03-3.88-1.75-6.15-2.13-6.53ZM636.62,452.33c-2.92-.35-6.55-.72-10.43-.97.94,4.39,1.91,8.92,2.89,13.55,4.01-.14,7.6-.13,10.2-.1-.9-4.26-1.79-8.42-2.66-12.48ZM622.76,478.89c-11.32.27-22.61,1.22-33.8,2.9-24.37,3.75-48.21,10.59-71.27,19.27-26.49,10-52.29,22.18-76.69,36.6,43-29.55,95.25-53.77,146.73-63.25,11.01-2.02,22.13-3.27,33.3-3.83-7.2-34.37-13.51-63.57-17.58-80.7-4.18,1.17-9.2,2.64-15.04,4.41-20.06,6.04-47.03,14.63-75.58,23.73-47.5,15.13-96.5,30.75-119.26,36.36l8.88,46.71c8.08.11,15.95,3.76,18.62,11.81.87,2.62-.55,5.46-3.17,6.33-2.61.87-5.45-.55-6.32-3.17-.95-2.84-3.85-4.39-7.21-4.85l19.6,103.09c8.21,0,16.29,3.63,19.02,11.82.87,2.62-.55,5.45-3.17,6.33-2.62.87-5.45-.55-6.32-3.17-.99-2.96-4.08-4.5-7.61-4.9l18.18,95.6c8.19.02,16.25,3.65,18.96,11.82.88,2.62-.54,5.45-3.16,6.32-2.62.88-5.45-.54-6.32-3.16-.98-2.94-4.06-4.49-7.57-4.89l12.56,66.04,1.32,6.96c27.75-7.23,93.57-25.73,152.4-45.48,1.91-.64,3.81-1.28,5.7-1.92-1.27-2.37-2.43-4.96-3.39-7.68-1.77-4.97-2.89-10.34-2.82-15.44-3.73,1.35-7.48,2.69-11.22,4.01-27.18,9.66-54.48,18.96-81.81,28.16-10.91,3.71-21.86,7.32-32.8,10.93-2.12.72-4.44-.68-4.8-2.88-6.35-31.54-14.17-70.27-20.11-101.7l-6.45-33.94c-.47-2.46.98-4.85,3.3-5.6l21.13-7.03c46.99-15.39,101.33-33.07,148.47-47.7,2.07-.67,4.31.67,4.71,2.81,2.22,11.32,4.42,22.64,6.53,33.99,6.19,32.75,12.24,65.53,17.76,98.4,5.77,1.88,11.22,4.85,15.03,9.6-6.8-35.99-30.25-154.01-48.73-242.71ZM680.3,715c-3.06,1.78-5.49,4.97-7.87,7.87.3.47.6.96.88,1.45.1.17.2.35.29.52,1.32,2.43,2.28,5.09,2.62,7.81,1.03-1.07,2.1-2.11,3.2-3.11.29-.27.59-.54.89-.79.75-.67,1.52-1.31,2.3-1.93-.48-3.61-1.33-7.66-2.31-11.82ZM699.16,682.31c-3.7.75-8.78,1.84-15.15,3.44,0,.04.01.09.02.13l15.14-3.54s0-.02-.01-.03ZM579.3,379.15c-.13-.54-.27-1.09-.4-1.64-.28-1.13-.56-2.28-.84-3.44-.07-.28-.13-.57-.21-.85-17.15,5.41-35.74,11.41-55.32,17.73-40.1,12.95-81.58,26.34-117.52,36.8-5.9,1.68-14.41,4.05-20.47,5.34-19.01,4.02-67.98,6.86-119.83,9.87-29.22,1.7-59.35,3.45-82.48,5.39l1.33,10.12.44,3.35c29.18-3,65.68-5.24,101.04-7.41,43.76-2.68,85.1-5.22,101.7-8.7.03-.01.06-.01.09-.02,19.58-4.25,72.14-20.99,122.97-37.2,26.49-8.44,51.62-16.45,71.19-22.4-.51-2.09-1.09-4.46-1.69-6.94Z"/>
        <path class="cls-3" d="M684.01,685.75c6.37-1.6,11.45-2.69,15.15-3.44-.47-2.48-.96-5.01-1.46-7.59-5.13-.45-7.51,1.93-12.53,2.39-.98-3.64-18.56-94.59-33.16-169.91-1.48-7.62-2.93-15.09-4.32-22.28-.37-1.89-.73-3.75-1.09-5.6-1.43-.09-2.86-.16-4.29-.22-1.17-.06-2.33-.1-3.5-.13-.34-.02-.67-.03-1.01-.03-1.14-.04-2.27-.07-3.41-.08-.79-.02-1.58-.03-2.37-.03-3.09-.04-6.17-.01-9.26.06,18.48,88.7,41.93,206.72,48.73,242.71.23.28.45.56.66.85.09.14.19.28.28.42,2.38-2.9,4.81-6.09,7.87-7.87-.54-2.34-1.13-4.72-1.71-7.07-1.24-5.04-2.52-10.25-3.43-15.08-.01-.07-.03-.14-.03-.21-.01-.02-.01-.03-.01-.05-6-32.01-15.42-79.5-25.31-127.99,4.27.05,8.12.29,10.3.45,9.22,45.24,17.98,89.39,23.9,120.7ZM633.19,484.37c3.98.01,7.59.15,10.29.29,1.54,7.35,3.12,14.88,4.71,22.53-2.6.02-6.22.1-10.15.36-1.64-7.88-3.26-15.63-4.85-23.18ZM645.86,545.33c-1.29-6.28-2.58-12.54-3.86-18.75,4.21.01,7.96.16,10.27.28,1.27,6.15,2.55,12.35,3.82,18.56-2.05-.08-5.91-.19-10.23-.09Z"/>
        <path class="cls-3" d="M635.57,422.82c-1.11.27-2.18.53-3.2.79-.64.16-1.26.31-1.86.46.52,2.35,1.04,4.76,1.58,7.23-2.54-.14-6.19-.31-10.31-.34-.71-3.28-1.41-6.45-2.08-9.5h0s0-.03-.01-.04c-.39-1.79-.77-3.5-1.13-5.14,1.05-.03,2.12-.04,3.19-.02.01-.01.02-.01.03,0,4.19.05,8.53.4,12.67.9-.31-1.55-.59-2.94-.83-4.15-.01,0-.01-.01-.01-.01-.57-2.86-.96-4.73-1.13-5.45,4.7-1.14,12.94-.86,15.07-2.81-.04-5.36-5.67-42.24-14.87-60.82-11.1.22-30.87,5.82-48.53,12.92.63,2.59,1.37,5.63,2.15,8.83.2.81.4,1.63.6,2.46l.43,1.75c.29,1.18.57,2.35.86,3.52.13.54.26,1.06.39,1.59,5.23-1.22,8.82-1.73,10.32-1.35.38.38,1.1,2.65,2.13,6.53,6.36-1.79,10.84-2.9,13.56-3.39.3-.05.59-.08.88-.08,2.16,0,4.12,1.4,4.78,3.53.95,3.06,2.65,9.96,5.08,20.59-1.63-.02-6.67-.06-10.18.32-1.46-6.34-2.5-10.63-3.24-13.53-2.27.56-5.09,1.32-8.46,2.27,4.07,17.13,10.38,46.33,17.58,80.7,3.06-.15,6.13-.25,9.19-.3,3.41-.06,6.81-.05,10.22.02,1.48.02,2.95.06,4.43.12-1.19-6.12-2.32-11.96-3.39-17.45-2.35-12.04-4.37-22.37-5.91-30.15ZM629.08,464.91c-.98-4.63-1.95-9.16-2.89-13.55,3.88.25,7.51.62,10.43.97.87,4.06,1.76,8.22,2.66,12.48-2.6-.03-6.19-.04-10.2.1Z"/>
        <path class="cls-3" d="M709.55,715.68c-4.63.29-9.08,1.37-13.3,3.07-1.53.61-3.02,1.3-4.48,2.07-.36-1.96-.78-3.96-1.25-5.99-.68-3.07-1.45-6.21-2.22-9.29-.8-3.28-1.63-6.63-2.34-9.84l16.43-3.84s.12-.02.15-.03c.46-.09.92-.19,1.36-.28,1.92,7.05,3.96,15.59,5.65,24.13Z"/>
        <path class="cls-3" d="M710.61,721.32c-.81-.28-1.64-.49-2.47-.64.74-.2,1.5-.37,2.26-.52.07.39.14.77.21,1.16Z"/>
        <path class="cls-3" d="M680.24,761.54c-1.21-1.29-2.04-2.98-2.63-4.64-.41-.99-.75-1.97-1.02-2.93-.01,0-.01-.02-.01-.03-.01.01-.01.02-.01.03-2.74,6.15-5.4,12.37-8.23,18.53,7.13-1.39,14.84-3.17,21.82-5.32-4.03-1.11-7.55-2.96-9.92-5.64ZM712.05,730.26c-2.26-2.51-5.45-4.53-8.54-4.82-.99-.06-1.96.08-2.9.39-3.53,1.12-6.68,4.38-9.59,6.74-.04.04-.08.08-.13.11-.02.02-.04.03-.06.04-.01.01-.02.02-.03.02-.04.05-.08.08-.12.11-.92.55-1.77,1.1-2.56,1.66-1.08,1.32-2.12,2.71-3.13,4.18-1.31,1.92-2.55,3.79-3.7,5.71-.21,2.79.74,5.93,2.93,9.58.12.21.26.43.39.64,3.53,5.78,18.56,4.98,26.08,2.39.69-.77,1.21-1.56,1.54-2.37,1.77-4.29,1.34-13.58-.18-24.38ZM704.34,743.93c-1.33.08-2.54.04-3.64-.11-5.34-.74-7.98-4.2-9.34-10.37,3.74-2.65,7.91-1.84,10.63.67h0c2.47,2.3,3.73,6.01,2.35,9.81Z"/>
      </g>
      <g>
        <path class="cls-2" d="M143.3,472.45c.88,7.08,2.38,17.62,4.37,30.69l-1.37.18-2.39.31c-.26.03-.52.06-.78.09l-.22.03c-.33.04-.66.09-.97.13l-4.55.58c-3.54-20.82-5.68-34.97-5.62-38.26,7.67-2.49,22.72-4.7,41.83-6.73l.46,3.44c-11.02,1.29-19.81,2.61-26.79,4.03-2.56.51-4.29,2.92-3.97,5.51Z"/>
        <path class="cls-2" d="M192.58,748.89c-.7.69-1.39,1.41-2.05,2.15h-.01c-1.01-.16-2.02-.28-3.04-.37h-.02c-1.08-.1-2.16-.16-3.25-.2-.06-.25-.11-.5-.16-.75-.74-3.56-1.5-7.23-2.27-10.99h0c-13.9-67.63-32.55-165.97-42.69-224.4l10.1-1.3c2.59,16.69,5.6,35.24,8.75,53.99l.25,1.49c5.97,35.55,17.81,103.94,30.67,166.41.22,1.03.43,2.06.64,3.08.04.18.08.36.12.54.55,2.66,1.1,5.29,1.64,7.89.2.96.67,1.8,1.32,2.46Z"/>
        <path class="cls-2" d="M206.75,812.45c-3.9-.39-6.8-.9-8.5-1.55-1.09-2.83-2.9-9.8-5.24-19.88.41-.06.82-.12,1.23-.18h.01c.28-.03.55-.07.82-.12.16,0,.32-.04.47-.06.03,0,.25-.05.59-.11,1.03-.19,3.02-.57,3.45-.64.13-.02.26-.05.39-.08.36.11.72.22,1.08.32,1.99,8.27,3.89,15.73,5.7,22.3Z"/>
        <path class="cls-2" d="M633.24,617.49c-28.47,4.85-56.21,12.41-83.81,20.7-26.91,8.32-53.56,17.28-79.36,28.73-1.68-9.29-3.36-18.44-5.01-27.35l17.06-5.59c45.56-15.14,98.06-32.78,143.69-48.71,2.45,10.74,4.93,21.49,7.43,32.22Z"/>
        <path class="cls-2" d="M641.43,652.26c-29.05,4.64-57.36,12.15-85.52,20.41-27.02,8.16-53.79,16.97-79.71,28.29-1.96-11.01-3.94-22-5.9-32.81,27.86-4.87,55.01-12.29,82.04-20.4,27.51-8.49,54.75-17.65,81.07-29.5,2.64,11.34,5.31,22.68,8.02,34.01Z"/>
        <path class="cls-2" d="M656.11,711.89c-2.07-.67-4.18-1.19-6.26-1.61-1.17-.21-2.36-.39-3.56-.53h0c-7.56-.9-15.42-.34-22.45,2.97-8.54,3.94-11.85,11.28-12.07,19.37-3.89,1.04-7.77,2.09-11.65,3.15-27.83,7.57-55.55,15.51-83.25,23.54-9.71,2.78-19.4,5.64-29.08,8.51-1.56-9.14-3.17-18.52-4.83-28.03,28.06-4.95,55.42-12.5,82.63-20.73,28.49-8.87,56.67-18.47,83.85-31-29.53,4.9-58.23,12.79-86.78,21.44-27.1,8.46-53.93,17.57-79.89,29.22-2.06-11.89-4.19-23.98-6.35-36.06,27.94-4.68,55.21-11.94,82.35-19.88,28.09-8.47,55.89-17.65,82.76-29.64,4.72,19.8,9.57,39.56,14.59,59.28Z"/>
        <path class="cls-2" d="M217.09,729.94h0s-.04.01-.04.01c.01,0,.03-.01.04-.01Z"/>
        <path class="cls-2" d="M385.09,681.12c-28.44-1.29-56.77.02-85.11,2.03-29.37,2.32-58.61,5.38-87.54,11.35-1.54-11.43-3.11-22.78-4.66-33.76,55.6-1.69,116.45-4.19,172.25-6.98,1.69,9.12,3.34,18.24,5.06,27.36Z"/>
        <path class="cls-2" d="M391.54,715.07c-28.47-1.12-56.8.38-85.15,2.57-29.98,2.56-59.81,5.9-89.3,12.3-1.46-11.54-3.01-23.28-4.58-34.94,29.48,1.56,58.85.22,88.22-1.88,28.37-2.26,56.62-5.2,84.59-10.74.07.39.15.76.22,1.15,1.83,9.63,3.87,20.38,6,31.54Z"/>
        <path class="cls-2" d="M398.63,752.13c-27.77-1.44-55.44-.25-83.13,1.63-29.28,2.23-58.42,5.25-87.25,11.33-.02-.03-.04-.07-.06-.1,2.24,4.6,3.64,10.04,1.5,14.85-2.39,4.99-7.52,7.15-12.9,6.44-2.39-.26-5.16-.89-7.96-1.85h-.01c-.32-.11-.63-.22-.95-.33-.01,0-.03-.02-.04-.02-.16-.07-.31-.13-.47-.18-.17-.07-.34-.13-.5-.2-.01,0-.01-.01-.02-.01-1.41-.55-2.81-1.19-4.15-1.9h-.01l-2.96-1.75c-.43-.29-.85-.58-1.25-.89t-.01,0c-2.61-1.94-4.65-4.2-5.6-6.68-.99-2.7-.55-6.25.59-9.77,1.33.15,2.64.34,3.91.55,4.71,2.15,9.69,2.65,15.44.85-1.39-5.27-6.09-8.84-11.09-9.64-.01-.01-.02-.01-.02-.01-.26-.19-.53-.36-.85-.51-.83-.36-1.66-.68-2.48-.98,2.03-2.9,4.4-5.92,7.66-6.61,1.17-.25,2.45-.2,3.87.26,7.45,2.41,12.91,9.11,16.88,15.79-1.94-3.35-4.25-7.24-6.99-10.7-.85-7.11-1.75-14.39-2.69-21.75,30.14,1.54,60.12-.01,90.12-2.35,28.36-2.44,56.61-5.56,84.56-11.31,2.25,11.8,4.59,24.03,6.86,35.84Z"/>
        <path class="cls-2" d="M404.18,780.48c-51.04,3.96-103.56,8.47-154.38,13.52-7.47.75-14.92,1.5-22.38,2.3l-1.72-8.4c2.46-1.85,4.35-4.42,5.28-7.59,1.41-5.24-.38-10.53-2.73-15.22,29.4,1.87,58.68.65,87.98-1.36,27.72-2.13,55.32-4.94,82.64-10.39,1.84,9.48,3.63,18.68,5.31,27.14Z"/>
        <path class="cls-2" d="M362.37,517.02c-29.82-1.63-59.51-.29-89.22,1.82-28.52,2.24-56.92,5.2-85.04,10.83-2.04-11.96-3.95-23.03-5.54-32.17,56-3.68,119.08-8.62,174.7-13.17,1.54,9.98,3.27,21.06,5.1,32.69Z"/>
        <path class="cls-2" d="M367.73,550.88c-29.48-1.35-58.82.17-88.16,2.44-28.7,2.45-57.27,5.61-85.52,11.5-1.93-11.54-3.89-23.13-5.75-34.01,28.61,1.35,57.1.03,85.6-2.01,29.7-2.35,59.27-5.46,88.51-11.53,1.71,10.89,3.5,22.24,5.32,33.61Z"/>
        <path class="cls-2" d="M373.7,587.92c-29.17-1.55-58.23-.28-87.31,1.7-28.97,2.2-57.81,5.13-86.36,10.86-1.82-10.91-3.8-22.75-5.81-34.67,28.81,1.22,57.47-.28,86.16-2.52,29.34-2.52,58.55-5.78,87.43-11.91,1.97,12.38,3.97,24.76,5.89,36.54Z"/>
        <path class="cls-2" d="M378.47,616.82c-55.74,2.84-118.32,6.7-174.02,10.35-1.24-7.51-2.7-16.33-4.29-25.87,29.05,1.54,58,.27,86.96-1.71,29.07-2.24,58.03-5.19,86.7-10.94,1.62,9.95,3.19,19.46,4.65,28.17Z"/>
        <path class="cls-2" d="M436.13,731.8c-2.69,1.34-5.61,3.79-5.09,8,.34,2.74-1.61,5.24-4.35,5.58-.21.02-.41.04-.62.04-2.49,0-4.64-1.86-4.95-4.39-1.07-8.58,4.1-15.99,13.1-19.31l-18.18-95.58c-2.68,1.35-5.57,3.79-5.05,7.98.34,2.74-1.61,5.24-4.35,5.58-.2.03-.41.04-.62.04-2.48,0-4.64-1.86-4.95-4.39-1.06-8.57,4.09-15.97,13.06-19.29l-19.64-103.32c-2.78,1.31-5.96,3.78-5.42,8.17.34,2.74-1.6,5.23-4.34,5.57-.21.03-.42.04-.62.04-2.49,0-4.65-1.85-4.96-4.39-1.08-8.68,4.23-16.17,13.43-19.42l-8.8-46.3c-19.55,3.15-57.82,5.5-98.13,7.98-37.24,2.29-75.74,4.65-105.43,7.89-10.67,1.17-19.37,2.35-26.39,3.59,1.03,7.73,2.59,18.43,4.5,30.82.01.03.01.07.01.11v.05s0,.04,0,.06c2.76,17.81,6.02,38.01,9.45,58.46l.25,1.49c6.06,36.07,18.18,106.02,31.26,169.16,0,.03.01.07.02.11l.02.1c.02.09.02.1.04.2.23,1.11.46,2.21.69,3.32h0c.24,1.15.48,2.29.72,3.42.68-.28,1.37-.5,2.07-.65,1.12-.25,2.28-.33,3.47-.18,5.29.82,9.69,4.64,13.34,9.23-6.18-30.04-12.48-63.05-18.03-93.14-.33-1.69.98-3.3,2.69-3.34,42.82-3.23,91.55-6.25,134.61-8.86l44.89-2.49c2.49-.14,4.65,1.62,5.08,4.01,2.14,11.31,4.34,22.62,6.42,33.95,3.07,16.94,9.39,51.03,12.45,67.97,0,.08,6.04,34.03,6.04,34.11.47,2.55-1.46,5-4.05,5.13l-22.82,1.31c-37.21,1.96-76.89,3.97-114.15,5.4-15.24.62-30.49,1.14-45.74,1.58-.21,0-.39-.16-.42-.36l-1.06-8.85c-2.45,1.83-5.46,2.95-8.6,3.31-1.6.22-3.27.33-4.98.33,1.83,7.46,3.67,14.66,5.48,21.5,55.96,2.17,205.47-7.8,220.19-11.15,1.78-.4,5.67-1.47,11.21-3.06l-12.76-67.12ZM382.89,623.76c-22.73,1.88-68.39,5.54-91.12,7.19-26.42,2.16-64.39,4.5-91.18,6.49-2.59.18-4.86-1.67-5.27-4.18-5.58-34.6-16.57-104.29-21.77-138.94-.45-2.44,1.42-4.76,3.9-4.84,57.34-2.26,122.44-3.95,179.82-5.15,8.54,40.09,21.06,95.51,28.9,135.2.43,2.09-1.15,4.13-3.28,4.23Z"/>
        <path class="cls-2" d="M580.99,386.09c-19.57,5.95-44.7,13.96-71.19,22.4-50.83,16.21-103.39,32.95-122.97,37.2-.03.01-.06.01-.09.02-16.6,3.48-57.94,6.02-101.7,8.7-35.36,2.17-71.86,4.41-101.04,7.41l-.44-3.35c62.31-6.03,157.24-10.49,189.16-16.32,36.31-6.63,157.26-51,206.18-64.64.13.55.27,1.1.4,1.64.6,2.48,1.18,4.85,1.69,6.94Z"/>
        <path class="cls-2" d="M601.03,380.17c-3.05.86-6.53,1.86-10.45,3.03-.12-.49-.24-.99-.37-1.5-.27-1.11-.55-2.27-.85-3.47l-.75-3.1s-.02-.08-.03-.13h0c5.23-1.23,8.82-1.74,10.32-1.36.38.38,1.1,2.65,2.13,6.53Z"/>
        <path class="cls-2" d="M671.49,721.6c-3.81-4.75-9.26-7.72-15.03-9.6-5.52-32.87-11.57-65.65-17.76-98.4-2.11-11.35-4.31-22.67-6.53-33.99-.4-2.14-2.64-3.48-4.71-2.81-47.14,14.63-101.48,32.31-148.47,47.7l-21.13,7.03c-2.32.75-3.77,3.14-3.3,5.6l6.45,33.94c5.94,31.43,13.76,70.16,20.11,101.7.36,2.2,2.68,3.6,4.8,2.88,10.94-3.61,21.89-7.22,32.8-10.93,27.33-9.2,54.63-18.5,81.81-28.16,3.74-1.32,7.49-2.66,11.22-4.01-.07,5.1,1.05,10.47,2.82,15.44-2.5.8-5.04,1.62-7.63,2.44-49.71,15.85-114.91,35.84-148.4,45.68l-12.56-66.04c3.51.4,6.59,1.95,7.57,4.89.87,2.62,3.7,4.04,6.32,3.16,2.62-.87,4.04-3.7,3.16-6.32-2.71-8.17-10.77-11.8-18.96-11.82l-18.18-95.6c3.53.4,6.62,1.94,7.61,4.9.87,2.62,3.7,4.04,6.32,3.17,2.62-.88,4.04-3.71,3.17-6.33-2.73-8.19-10.81-11.82-19.02-11.82l-19.6-103.09c3.36.46,6.26,2.01,7.21,4.85.87,2.62,3.71,4.04,6.32,3.17,2.62-.87,4.04-3.71,3.17-6.33-2.67-8.05-10.54-11.7-18.62-11.81l-8.88-46.71c22.76-5.61,71.76-21.23,119.26-36.36,28.55-9.1,55.52-17.69,75.58-23.73,5.84-1.77,10.86-3.24,15.04-4.41,4.07,17.13,10.38,46.33,17.58,80.7-11.17.56-22.29,1.81-33.3,3.83-51.48,9.48-103.73,33.7-146.73,63.25,24.4-14.42,50.2-26.6,76.69-36.6,23.06-8.68,46.9-15.52,71.27-19.27,11.19-1.68,22.48-2.63,33.8-2.9,18.48,88.7,41.93,206.72,48.73,242.71Z"/>
        <path class="cls-2" d="M672.23,728.23c-1.41.79-5.5,2.37-11.64,4.53-1.71.61-3.57,1.25-5.58,1.94-.49-.22-.98-.43-1.49-.61-3.41-1.26-7.14-1.65-10.71-.91.76,1.67,1.7,3.24,2.77,4.71-.26.08-.52.17-.78.26-.39.13-.78.26-1.18.39-6.02,2-12.78,4.21-20.07,6.56-1.67-5.48-2.43-11.11-1.41-16.19.42-1.93,1.31-3.53,2.52-4.86.02-.02.04-.04.05-.06,5.32-5.72,16.83-6.31,24.11-5.92,2.13.14,4.24.39,6.28.78,5.18.97,9.96,2.82,13.74,5.92,1.25,1.01,2.39,2.16,3.39,3.46Z"/>
      </g>
    </g>
    <g id="Feuilles">
      <g>
        <path class="cls-4" d="M183.33,775.46c-.66-.31-1.32-.63-1.95-.98-.68-3.52-1.49-7.71-2.4-12.46.36-.02.72-.03,1.09-.04,1.23-.01,2.48,0,3.74.04-1.5,4.25-1.89,8.82-.48,13.44Z"/>
        <path class="cls-4" d="M192.58,748.89c-.7.69-1.39,1.41-2.05,2.15h-.01c-1.01-.16-2.02-.28-3.04-.37h-.02c-1.08-.1-2.16-.16-3.25-.2-1.72-.06-3.47-.06-5.24-.02h-.02c-.32,0-.64.01-.96.02-.41.01-.82.03-1.23.07-.04-.21-.08-.43-.12-.64-.05-.28-.11-.56-.16-.84-.21-1.07-.42-2.16-.63-3.27,1.78-2.74,3.87-5.18,5.93-7.06h0c1.01-.93,2.02-1.73,2.98-2.35,1.32-.86,2.7-1.33,4.1-1.46.22,1.03.43,2.06.64,3.08.04.18.08.36.12.54.55,2.66,1.1,5.29,1.64,7.89.2.96.67,1.8,1.32,2.46Z"/>
        <path class="cls-4" d="M208.87,776.71c-2.46,1.8-6.21,2.55-10.4,2.44t-.01,0c-2.61-1.94-4.65-4.2-5.6-6.68-.99-2.7-.55-6.25.59-9.77,1.33.15,2.64.34,3.91.55,4.71,2.15,9.69,2.65,15.44.85-1.39-5.27-6.09-8.84-11.09-9.64-.01-.01-.02-.01-.02-.01-.26-.19-.53-.36-.85-.51-.83-.36-1.66-.68-2.48-.98,2.03-2.9,4.4-5.92,7.66-6.61,1.82,2.44,3.51,5.11,4.99,7.84,4.21,7.76,5.94,16.6-2.14,22.52Z"/>
        <path class="cls-4" d="M202.87,742.52c-.7.15-1.39.37-2.07.65-.24-1.13-.48-2.27-.72-3.41.95.83,1.88,1.76,2.79,2.76Z"/>
      </g>
      <g>
        <path class="cls-4" d="M532.6,809.82c-3.06.91-6.1,1.8-9.12,2.68,2.51-1.66,5.64-2.49,9.12-2.68Z"/>
        <path class="cls-4" d="M531.7,833.36c-1.82,8.46-2.14,19.27,1.11,28.17-1.53-.13-2.98-.45-4.3-.97-10.94-4.35-13.2-23.4-11.36-35.8h.01c8.7-2.51,17.66-5.14,26.74-7.85.64.52,1.31,1.02,2.01,1.5-6.99,1.02-12.49,5.69-14.21,14.95Z"/>
        <path class="cls-4" d="M567.69,829.2c-.36.51-.71,1-1.06,1.5-3.93,6.19-6.88,12.22-7.16,19.73-4.67,4.3-10.75,7.88-16.72,9.75-3.34-6.26-4.11-15.6-4.12-21.33.15-4.12.16-8.27,2.06-11.85,2.16-3.44,5.65-5.1,9.49-5.89.15.1.31.19.47.27.51.29,1.02.57,1.53.83,1.76.94,3.54,1.8,5.27,2.58,3.24,1.63,6.69,3.09,10.2,4.24.01.05.03.11.04.17Z"/>
      </g>
      <g>
        <path class="cls-4" d="M617.96,755.67c-1.89.64-3.79,1.28-5.7,1.92-.08-.08-.15-.16-.23-.24-1.69-1.85-3.43-4.22-5.09-6.92-2.5-4.08-4.81-8.91-6.41-13.87,3.74-1.32,7.49-2.66,11.22-4.01-.07,5.1,1.05,10.47,2.82,15.44.96,2.72,2.12,5.31,3.39,7.68Z"/>
        <path class="cls-4" d="M646.28,709.75c-7.56-.9-15.42-.34-22.45,2.97-8.54,3.94-11.85,11.28-12.07,19.37-3.89,1.04-7.77,2.09-11.65,3.15-2.63-8.92-2.86-18.04,2.23-23.67,8.52-9.41,31.32-9.05,43.94-1.82Z"/>
        <path class="cls-4" d="M642.81,733.18c.76,1.67,1.7,3.24,2.77,4.71,1.02,1.39,2.15,2.68,3.39,3.89l-7.09,11.99c-3.64,3.01-7.48,5.45-11.28,6.94-2.68-4.53-5.35-9.99-7.05-15.61-1.67-5.48-2.43-11.11-1.41-16.19.42-1.93,1.31-3.53,2.52-4.86.02-.02.04-.04.05-.06,5.32-5.72,16.83-6.31,24.11-5.92,2.13.14,4.24.39,6.28.78,1.55,2.83,2.33,5.62,2.5,8.33l-4.08,6.91c-3.41-1.26-7.14-1.65-10.71-.91Z"/>
      </g>
      <g>
        <path class="cls-4" d="M316.19,211.42c-.06.18-.06.25-.02-.07,0,.02.01.05.02.07Z"/>
        <path class="cls-4" d="M332.29,212.45c.83,4.91.37,11.32-7.15,15.03-4.41-4.79-8.12-11.58-8.95-16.06.02-.08.05-.17.09-.27.93-2,2.2-4,3.71-5.84.26-.32.53-.63.8-.94,3.26-3.65,7.48-6.58,11.88-7.64.3,3.55-.77,7.43-1.54,11.06.19.61.41,1.33.62,2.14-.24.3-.46.61-.67.95.4.57.8,1.09,1.21,1.57Z"/>
        <path class="cls-4" d="M306.23,212.26c.73,5.62,4.01,12.06,8.4,17.39-10.21-1.96-20.45-19.19-20.38-25.29.05-4.86,14.71-24.78,31.51-16.8,1.08.51,2.01,1.07,2.8,1.67-7.81,1.76-14.53,7.27-19.09,13.78-1.7,2.7-3.48,5.46-3.24,9.25Z"/>
      </g>
      <g>
        <path class="cls-4" d="M475.2,367.53c-1,.05-1.9.12-2.66.21-6.5.77-12.68,2.49-18.27,6.43-3.39,2.4-5.88,5.4-7.32,8.64h-.01c-.65,1.44-1.09,2.91-1.31,4.4-.48,3.05-.05,6.15,1.39,9.01.02.06.05.11.08.16l-.45.15c-.05-.05-.11-.09-.17-.14-1.79-1.44-3.63-2.83-5.5-4.16-.4-.3-.81-.59-1.22-.88-2.6-1.82-5.27-3.55-8-5.19-.83-3.13-.53-6.73,2.09-10.54,9.55-13.86,38.29-12.04,40.74-9,.21.26.42.57.61.91Z"/>
        <path class="cls-4" d="M477.33,386.64s0,.07-.01.11l-7.19,2.29s.04-.09.05-.13h.01c.28-.71.55-1.45.8-2.23-6.31-2.34-13.03,1.13-15.55,6.89-.03.06-.06.12-.08.18l-2.8.9c-.01-.05-.02-.11-.03-.17-.43-2.08-.28-4.22.82-6.32,4.02-7.12,12.86-9.36,20.45-10.64,1.24-.18,2.52-.34,3.81-.48.26,3.02.2,6.34-.28,9.6Z"/>
      </g>
      <g>
        <path class="cls-4" d="M288.17,351.79c-1.37,3.95-4.21,6.14-7.82,7.02,4.83-4.82,7.46-10.73,6.99-18.17-8.93.76-15.37,10.24-12.74,18.46-1.98-.86-3.94-1.79-5.86-2.79h-.01c-2.69-3.81-3.38-8.59-.96-13.73,2.24-4.46,6.94-7.4,11.39-9.45,3.09-1.31,6.54-2.54,9.96-2.97,1.68,7.35.9,16.28-.95,21.63Z"/>
        <path class="cls-4" d="M285.35,321.78c-.63.21-1.26.46-1.89.73-7.6,3.34-15.15,9.38-18,17.33h0c-.22.6-.4,1.21-.56,1.82-.25,1.13-.4,2.23-.46,3.29-.23,4.17.96,7.79,3.23,10.8-2.33-1.24-4.59-2.57-6.73-3.98-.26-.17-.51-.33-.76-.5-4.44-2.99-8.37-6.3-11.41-9.83h0c-.17-2,.05-4.2.77-6.63,3.03-10.26,22.19-20.5,32.01-16,1.48.68,2.74,1.7,3.8,2.97Z"/>
      </g>
      <g>
        <path class="cls-4" d="M377.53,243.3c-1.54.94-3.06,2.05-4.53,3.37-2.15-4.42-3.53-9.14-2.96-13.48,2.9,3.05,5.43,6.46,7.49,10.11Z"/>
        <path class="cls-4" d="M397.99,266.8c-.26.11-.51.2-.77.27-.05-.53-.11-1.06-.18-1.59.31.45.62.89.95,1.32Z"/>
        <path class="cls-4" d="M403.13,225.5c-3.62.41-6.98,1.48-9.77,3.33-3.15,2.35-4.99,5.15-5.85,8.18-2.99-5.09-6.63-9.77-10.89-13.79,5.86-3.75,17.58-2.29,26.51,2.28Z"/>
        <path class="cls-4" d="M399.48,266.07c-.18.11-.35.2-.53.3-.73-.75-1.43-1.53-2.1-2.35h0c-.46-3.45-1.19-6.87-2.16-10.24,7.2-.4,13.26-2.8,18.24-8.87-6.23-4.95-15.9-3.31-20.32,2.68-.96-2.5-2.05-4.95-3.29-7.32-.22-.42-.44-.84-.67-1.25-.11-.22-.23-.43-.35-.64.17-.49.38-.98.63-1.46,2.72-5.04,8.24-7.19,13.8-6.32,2.9.36,6.5,1.34,10.06,2.83.29.44.56.88.8,1.34,5.75,11.01-5.96,26.44-14.11,31.3Z"/>
        <path class="cls-4" d="M384.49,262.83c-4.42-3.93-8.46-9.92-11.49-16.16,1.47-1.32,2.99-2.43,4.53-3.37.25.43.49.87.72,1.31.29.54.56,1.09.83,1.64,1.25,2.48,2.36,5.44,3.29,8.05l.47,1.69.96,3.38c.26,1.15.49,2.3.69,3.46Z"/>
      </g>
      <g>
        <path class="cls-4" d="M63.14,406.02c-2.14-3.69-4.92-6.92-8.89-9.59-2.16,5.29-1.64,11.01.88,15.77-.82.53-1.66,1.02-2.51,1.5-2.83,1.59-5.86,2.81-8.96,3.3-.05-.08-.1-.15-.15-.23-3.07-5.09-3.13-11.62-2.42-17.41.12-.78.25-1.56.41-2.35h0c.13-.77.29-1.52.46-2.28,1.18-5.19,3.19-10.37,7.05-13.72,2.77-2.05,5.69-1.86,9.47-1.1,2.56.59,5.71,1.75,8.94,3.29.23.28.45.55.65.82,5.52,7.27,2.02,15.35-4.93,22Z"/>
        <path class="cls-4" d="M50.1,369.87c-2.56.54-5.03,1.65-7.35,3.46-11.07,9.47-11.39,32.39-2.77,43.88-4.51-.21-9.03-2.24-13.15-7.19-8.1-9.74-5.92-35.04,4.73-41.53,5.04-3.07,11.94-1.79,18.54,1.38Z"/>
      </g>
      <g>
        <path class="cls-4" d="M319.98,366.73c-3.48-.05-6.96-.11-10.43-.21,3.42-1.78,6.96-1.14,10.43.21Z"/>
        <path class="cls-4" d="M313.98,390.87c.09,4.98,1.5,9.72,3.82,14.02-1.32.09-2.45.04-3.3-.17-4.03-.99-16.36-14.87-12.62-27.96,5.37.68,10.81,1.01,16.19,1.24-2.67,3.71-4.13,8.37-4.09,12.87Z"/>
        <path class="cls-4" d="M344.58,387.24c-.32,6.86-8.77,12.38-16.89,15.34-3.34-4.48-5.91-10.39-5.42-15.41.23-2.97,1.56-6.4,3.64-8.85,1.8.06,3.58.13,5.35.22,2.07.12,4.14.24,6.2.36-4.78,2.55-6.35,9.7-1.79,14.22,6.88-2.75,8.78-7.12,7.52-13.87.23.01.45.02.68.04.59,2.15.86,4.77.71,7.95Z"/>
      </g>
      <g>
        <path class="cls-4" d="M473.21,314.04c-1.91,1.13-3.69,2.58-5.34,4.12-2.86-3.14-6.15-5.74-9.72-7.74,3.06-2.03,6.57-2.79,11.1.1,1.61,1.03,2.92,2.22,3.96,3.52Z"/>
        <path class="cls-4" d="M475.59,333.51c-1.19,3.89-2.96,6.86-4.2,7.65-1.56,1.01-4.73,1.7-8.45,1.9-.26-.56-.4-1.17-.49-1.79-.47-2.44-.75-4.87-.1-7.24,1.21-3.66,4.66-4.73,8.43-5.85.24,1.24.68,2.29,1.61,3.45,1,.93,2.03,1.52,3.2,1.88Z"/>
        <path class="cls-4" d="M466.33,319.03c-2.46.77-4.7,1.91-6.58,3.37-.23.18-.46.37-.68.56-4.53,3.88-6.64,9.74-4.16,16.69.38,1.17.81,2.24,1.3,3.2-6.26-.71-12.36-2.96-14.16-7.51-5.97-15.07,5.49-18.28,10.01-19.5.26-.25.52-.5.78-.76.16-.15.32-.31.48-.47.6-.59,1.21-1.19,1.83-1.77,3.98,1.51,7.74,3.62,11.18,6.19Z"/>
      </g>
      <g>
        <path class="cls-4" d="M675.3,733.64c-2.87,3.08-5.43,6.41-7.66,9.85-.63.94-1.24,1.89-1.84,2.86-1.06-3.38-3.19-6.34-5.94-8.61-.1-1.89.18-3.54.73-4.98,1.53-4.09,5.17-6.5,8.25-7.99,1.25,1.01,2.39,2.16,3.39,3.46,1.23,1.58,2.27,3.37,3.07,5.41Z"/>
        <path class="cls-4" d="M682.61,726.82c-.78.62-1.55,1.26-2.3,1.93-.3.25-.6.52-.89.79-1.1,1-2.17,2.04-3.2,3.11-.34-2.72-1.3-5.38-2.62-7.81-.09-.17-.19-.35-.29-.52-.28-.49-.58-.98-.88-1.45,2.38-2.9,4.81-6.09,7.87-7.87.98,4.16,1.83,8.21,2.31,11.82Z"/>
        <path class="cls-4" d="M696.25,718.75c-1.53.61-3.02,1.3-4.48,2.07-.36-1.96-.78-3.96-1.25-5.99.21.09.42.18.63.29,2.03,1,3.71,2.23,5.1,3.63Z"/>
        <path class="cls-4" d="M700.7,743.82c-.91,3.21-2.15,5.61-3.19,6.45-2.15,1.74-7.43,3.24-13.29,3.71-2.19-3.65-3.14-6.79-2.93-9.58,1.15-1.92,2.39-3.79,3.7-5.71,1.01-1.47,2.05-2.86,3.13-4.18.79-.56,1.64-1.11,2.56-1.66.04-.03.08-.06.12-.11.01,0,.02-.01.03-.02.02,0,.04-.02.06-.04.05-.03.09-.07.13-.11,2.91-2.36,6.06-5.62,9.59-6.74.95,2.68,1.35,5.52,1.38,8.29-2.72-2.51-6.89-3.32-10.63-.67,1.36,6.17,4,9.63,9.34,10.37Z"/>
        <path class="cls-4" d="M676.59,753.97h-.02s0-.02.01-.03c0,.01,0,.02.01.03Z"/>
      </g>
      <g>
        <path class="cls-4" d="M280.55,853.73c-.19.2-.39.38-.59.57l-.36-.55c.32-.01.63-.01.95-.02Z"/>
        <path class="cls-4" d="M294.03,858.48c-.13.39-.26.79-.38,1.2-.6.28-1.19.56-1.78.84l2.16-2.04Z"/>
        <path class="cls-4" d="M278.51,889.11c-4.7-1.75-9.02-4.65-12.18-9.15,3.59-1.9,7.1-3.97,10.51-6.19-1,2.95-1.1,6.45.04,10.71.41,1.63.95,3.18,1.63,4.63Z"/>
        <path class="cls-4" d="M279.96,854.3c-.28.26-.57.53-.86.8-.93.85-1.88,1.69-2.84,2.5-4.43,3.8-9.24,7.05-14.31,9.83.07-6.05,3.95-9.99,8.6-13.49.01,0,.02,0,.03-.01t.02,0s.01.01.02,0c2.6-.04,5.24-.1,7.93-.16.35,0,.7-.01,1.05-.02l.36.55Z"/>
        <path class="cls-4" d="M312,842.37c-1.17.06-2.31.24-3.42.52-2.12.08-4.26.15-6.39.22h-.12c-7.46.26-14.79.46-21.85.62,1.54-2.22,3.51-4.46,6.02-6.1h.01c4.07-2.66,9.57-3.76,16.97-.69h.01c2.02.84,4.18,1.98,6.49,3.49.84.55,1.6,1.2,2.28,1.94Z"/>
        <path class="cls-4" d="M309.51,887.1c-2.17,2.24-10.78,4.74-20.15,4.19-4.5-3.61-8.23-9.78-7.99-15.52.38-3.95,2.61-7.02,5.35-9.76.21-.21.42-.42.64-.63,2.05-1.98,4.32-3.81,6.29-5.7.56-.86,1.13-1.67,1.69-2.44h0s4.28-4.04,4.28-4.04c.96-.03,1.92-.07,2.89-.1h.12c4.63-.15,9.26-.32,13.82-.5,2.19,12.66-2.46,29.89-6.95,34.5Z"/>
      </g>
      <g>
        <path class="cls-4" d="M110.11,360.16c.63,4.21.09,9.54-6.07,12.74-1.55-1.94-2.88-4-3.82-5.6-1.31-2.3-2.42-4.5-2.89-6.85.63-1.79,2.41-4.33,4.03-6.12.23-.25.46-.5.7-.75.28-.29.57-.57.86-.84,2.23-2.15,4.71-3.85,7.48-4.76-.1,1.66-.43,3.38-.8,5.06l-.18.82-.1.48c-.03.13-.06.25-.08.38-.08.31-.15.63-.21.94.32,1.05.75,2.48,1.02,4.09-.05.05-.1.11-.14.16.07.09.14.17.2.25Z"/>
        <path class="cls-4" d="M88.31,356.31c-2.56,5.42.8,11.55,3.42,16.07.49.76,1.01,1.52,1.57,2.29-8.62-2.7-16.92-16.88-16.86-22.03.06-4.3,13-21.9,27.84-14.85,1.61.76,2.83,1.64,3.73,2.61-8.63,1.79-15.82,8.07-19.7,15.91Z"/>
      </g>
      <g>
        <path class="cls-4" d="M58.11,444.73c-.59.24-1.14.54-1.65.88.37-.5.75-.98,1.14-1.48.18.2.35.4.51.6Z"/>
        <path class="cls-4" d="M62.66,465.31c-.23,1.05-.54,1.86-.89,2.33-1.88,2.51-8.27,5.8-14.88,7.27-4.14-5.42-2.87-10.38,2.96-16.52,2.63-3.25,5.28-8.16,9.44-8.82.54-.07,1.09-.08,1.66-.03,1.42,3.32,2.03,6.92,2.14,10.06-2.36-4.45-8.68-5.86-12.53-.85,1.67,3.29,2.31,5.07,4.87,6.58,2.39.99,4.45.87,7.23-.02Z"/>
        <path class="cls-4" d="M46.54,438.73c-3.04,4.06-5.77,8.28-8.13,12.63-.14.25-.28.49-.41.74-3.29,6.15-5.87,12.55-7.6,19.1-9.23-11.47.02-18.22,3.76-20.9,2.6-5.44,4.92-12.02,12.38-11.57Z"/>
      </g>
      <g>
        <path class="cls-4" d="M368.99,300.69l-2.07,9.11c-.16.06-.31.14-.47.23-1.63.83-3.09,2.07-4.21,3.73,1.08.9,2.16,1.68,3.25,2.33l-2.49,10.93c-2.72,3.88-6.13,7.05-10.17,8.69-3.51-3.18-6.48-6.95-8.98-10.99-1.47-2.56-2.96-5.2-3.58-8.06-.03-.1-.05-.18-.06-.26h0c2.06-2.59,4.95-4.74,7.71-6.73,1.12-.75,2.27-1.5,3.46-2.23h.01c.78-.47,1.57-.94,2.38-1.38,4.75-2.65,9.97-4.8,15.22-5.37Z"/>
        <path class="cls-4" d="M330.79,312.78c-.37.79-.59,1.69-.64,2.55.01,1.05.07,2.31.33,3.29,1.5,6.05,5.06,12.02,9.62,16.97-11.89-4.7-22.23-20.94-22.01-27.46.13-4.2,24.28-23.13,41.94-16.44,1.94.73,3.53,1.65,4.82,2.72-2.31.07-4.53.39-6.55.92-9.1,2.02-22.97,8.98-27.51,17.45Z"/>
      </g>
      <g>
        <path class="cls-4" d="M98.6,534.13c-.37,2.11-1.02,4.37-1.97,6.46-1.04-.23-1.8-.19-2.68-.15-3.06.3-6.19.54-9.31.59.15-2.87,1.84-5.43,5.32-6.6,2.81-.92,5.75-.83,8.64-.3Z"/>
        <path class="cls-4" d="M98.71,527.66c-1.6.27-3.15.65-4.62,1.13-6.44,2.21-10.52,6.82-10.03,12.25-4.31.03-8.6-.3-12.67-1.33-.14-.18-.27-.36-.4-.54-1.97-2.74-4.75-8.5.38-13.08,8.12-7.27,25.91-1.74,26.99.54.14.29.25.64.35,1.03Z"/>
      </g>
      <g>
        <path class="cls-4" d="M134.72,857.48c-8.05-.31-16.3,4.61-21.56,11.39-7.95,10.09-11.66,22.73-13.06,35.32-.34,3.56-.5,6.94-.21,10.51-4.28-1.27-7.68-2.94-9.51-4.77-4.08-4.08-2.29-46.54,19.54-58.43,8.37-4.55,15.43-2.51,20.67,1.22l4.13,4.76Z"/>
        <path class="cls-4" d="M141.32,909.83c-7.53,6.64-20.2,8.11-31.2,6.89-1.85-10.79.16-27.23,5.99-39.48h0c1.29-2.76,2.79-5.29,4.49-7.51,1.52-2.02,3.22-3.78,5.08-5.18,3.42-2.78,7.38-4.24,11.44-4.3l3.49,4.02h0c1.15,1.93,2.23,3.95,3.2,6.04-9.05,1.91-16.63,10.77-15.99,20.42,5.7-2.14,9.52-5.26,13.89-8.6,1.79-1.46,3.46-2.82,5.07-4.23,3.68,11.68,3.42,24.1-5.46,31.93Z"/>
      </g>
      <path class="cls-4" d="M154.68,354.6h0c-3.66,3.17-5.57,8.06-5.57,12.92-2.84-2.43-6.06-4.44-9.47-5.93-.57-.25-1.15-.49-1.73-.72-.02-.74.01-1.5.08-2.27.67-6.95,5.02-12.22,9.72-11.77,3.36.32,5.99,3.47,6.97,7.77Z"/>
      <path class="cls-4" d="M17.43,484.29c-4.38,3.64-6.81,9.1-6.88,14.85-1.86,1.01-3.84,1.3-5.65.66-4.46-1.56-6.19-8.19-3.87-14.78,2.33-6.59,7.82-10.65,12.28-9.08,1.75.62,3.09,2.02,3.91,3.9l.21,4.45Z"/>
      <path class="cls-4" d="M237.45,287.66c-2.99,1.49-6.07,1.68-8.52.25-4.78-2.81-5.29-10.82-1.13-17.89,4.15-7.08,11.4-10.53,16.18-7.72,1.78,1.04,2.97,2.8,3.54,4.97-6.94,3.92-11.35,12.51-10.07,20.39Z"/>
      <path class="cls-4" d="M436.72,286.84c-4.25,2.81-7.35,7.22-7.78,12.33-.35.2-.7.38-1.05.55l-11.64.23c-.57-.39-1.05-.88-1.44-1.46-2.65-3.91-.12-10.26,5.65-14.19,5.78-3.92,12.62-3.94,15.27-.03.53.77.85,1.64.99,2.57Z"/>
      <path class="cls-4" d="M585.66,805.52l-7.21.86c2.32-.72,4.63-1.44,6.93-2.16.07.44.17.87.28,1.3Z"/>
      <path class="cls-4" d="M591.92,783.18h0c-3.13,2.6-5.2,6.36-6.22,10.45-4.88,1.54-9.82,3.08-14.79,4.62-.55-2.32-.73-4.89-.48-7.57.11-1.14.29-2.25.54-3.31h.01c.61-2.61,1.63-4.95,2.92-6.87,4.34-1.36,8.69-2.73,13.05-4.13h.01c1.65,1.07,3.05,2.73,4.09,4.79.33.64.62,1.31.87,2.02Z"/>
      <path class="cls-4" d="M724.05,731.24c-.94-2.13-1.39-4.29-1.37-6.25.48,2.12.94,4.21,1.37,6.25Z"/>
      <path class="cls-4" d="M741.14,727.17c-.76.69-1.49,1.57-2.17,2.65-1.79,3.4-2.04,7.17-1.16,10.69-.59.16-1.21.25-1.86.25-.83-5.63-2.01-11.63-3.34-17.58,2.87,1.21,5.69,2.62,8.53,3.99Z"/>
      <path class="cls-4" d="M740.04,724.94c-2.57-1.69-5.25-3.21-8.05-4.51-.2-.88-.41-1.76-.62-2.64,3.04.8,6.2,3.21,8.44,6.76.08.13.16.26.23.39Z"/>
      <path class="cls-4" d="M214.34,851.73c-1.99.47-3.93,1.34-5.75,2.7-.05.05-.11.09-.16.14-1.9,1.64-3.13,3.56-3.79,5.61-6.32-.47-10.07-1.42-12.26-2.29-.24-1.11-.33-2.19-.28-3.22.08-2.03.74-3.87,2-5.33,4.11-4.78,13.17-3.71,20.23,2.38h.01Z"/>
      <path class="cls-4" d="M220.69,869.82l-6.59,1.59c-.25-.63-.46-1.28-.64-1.93-.19-.73-.31-1.4-.38-2.02-.16-1.36-.06-2.47.27-3.36.99-2.78,4.07-3.35,7.71-2.43h.01c.88,2.97.8,5.85-.38,8.15Z"/>
      <path class="cls-4" d="M206.63,873.21l-.11.03c-2.04-.75-4.11-1.89-6.06-3.4,1.49.17,3.06.3,4.72.4.4,1.02.88,2.01,1.45,2.97Z"/>
      <path class="cls-4" d="M123.57,775.62c-1.18.68-2.47,1-3.78.87-4.7-.45-7.97-6.46-7.3-13.41s5.02-12.23,9.73-11.77c3.75.35,6.61,4.26,7.25,9.36-4.36,3.49-6.41,9.38-5.9,14.95Z"/>
    </g>
    <g id="Tracés_noirs" data-name="Tracés noirs">
      <path class="cls-1" d="M386.17,619.53c-7.84-39.69-20.36-95.11-28.9-135.2,1.54,9.98,3.27,21.06,5.1,32.69-29.82-1.63-59.51-.29-89.22,1.82-28.52,2.24-56.92,5.2-85.04,10.83-2.04-11.96-3.95-23.03-5.54-32.17,56-3.68,119.08-8.62,174.7-13.17-57.38,1.2-122.48,2.89-179.82,5.15-2.48.08-4.35,2.4-3.9,4.84,5.2,34.65,16.19,104.34,21.77,138.94.41,2.51,2.68,4.36,5.27,4.18,26.79-1.99,64.76-4.33,91.18-6.49,22.73-1.65,68.39-5.31,91.12-7.19,2.13-.1,3.71-2.14,3.28-4.23ZM188.3,530.81c28.61,1.35,57.1.03,85.6-2.01,29.7-2.35,59.27-5.46,88.51-11.53,1.71,10.89,3.5,22.24,5.32,33.61-29.48-1.35-58.82.17-88.16,2.44-28.7,2.45-57.27,5.61-85.52,11.5-1.93-11.54-3.89-23.13-5.75-34.01ZM194.22,565.81c28.81,1.22,57.47-.28,86.16-2.52,29.34-2.52,58.55-5.78,87.43-11.91,1.97,12.38,3.97,24.76,5.89,36.54-29.17-1.55-58.23-.28-87.31,1.7-28.97,2.2-57.81,5.13-86.36,10.86-1.82-10.91-3.8-22.75-5.81-34.67ZM204.45,627.17c-1.24-7.51-2.7-16.33-4.29-25.87,29.05,1.54,58,.27,86.96-1.71,29.07-2.24,58.03-5.19,86.7-10.94,1.62,9.95,3.19,19.46,4.65,28.17-55.74,2.84-118.32,6.7-174.02,10.35Z"/>
      <path class="cls-1" d="M63.89,464.89c-.43.15-.84.29-1.23.42-2.78.89-4.84,1.01-7.23.02-2.56-1.51-3.2-3.29-4.87-6.58,3.85-5.01,10.17-3.6,12.53.85.77,1.47,1.12,3.28.8,5.29Z"/>
      <path class="cls-1" d="M306.8,879.27c-9.64.86-17.68-10.02-12.42-18.62,7.69,4.01,12.38,9.71,12.42,18.62Z"/>
      <path class="cls-1" d="M704.34,743.93c-1.33.08-2.54.04-3.64-.11-5.34-.74-7.98-4.2-9.34-10.37,3.74-2.65,7.91-1.84,10.63.67h0c2.47,2.3,3.73,6.01,2.35,9.81Z"/>
      <path class="cls-1" d="M665.93,467.32s-7.91-1.18-10.51-1.44l-2.26-10.79s7.85,1.6,10.68,2.29l2.09,9.94Z"/>
      <path class="cls-1" d="M639.28,464.81c-2.6-.03-6.19-.04-10.2.1-.98-4.63-1.95-9.16-2.89-13.55,3.88.25,7.51.62,10.43.97.87,4.06,1.76,8.22,2.66,12.48Z"/>
      <path class="cls-1" d="M648.57,433.46h0c-.96-4.5-1.9-8.89-2.82-13.15-.68.17-1.36.33-2.05.5-1.02.25-2.03.5-3.04.75-1,.24-1.99.49-2.96.73-.72.18-1.43.36-2.13.53-1.11.27-2.18.53-3.2.79-.64.16-1.26.31-1.86.46.52,2.35,1.04,4.76,1.58,7.23-2.54-.14-6.19-.31-10.31-.34-.71-3.28-1.41-6.45-2.08-9.5h0s0-.03-.01-.04c-.39-1.79-.77-3.5-1.13-5.14,1.05-.03,2.12-.04,3.19-.02.01-.01.02-.01.03,0,4.19.05,8.53.4,12.67.9,5.46.65,10.57,1.56,14.52,2.35h.02c3.46.7,6.02,1.3,7.15,1.58,1.03,4.81,2.09,9.77,3.17,14.87-2.67-.69-6.48-1.63-10.74-2.5Z"/>
      <path class="cls-1" d="M674.64,509.16c-2.54-.36-6.3-.85-10.46-1.21-1.55-7.48-3.08-14.89-4.6-22.18,3.96.29,7.6.69,10.42,1.04,1.53,7.35,3.08,14.82,4.64,22.35Z"/>
      <path class="cls-1" d="M682.78,548.8c-2.09-.43-6.09-1.19-10.57-1.79-1.32-6.47-2.65-12.94-3.97-19.38,4.37.42,8.22.95,10.47,1.29,1.35,6.61,2.71,13.25,4.07,19.88Z"/>
      <path class="cls-1" d="M656.09,545.42c-2.05-.08-5.91-.19-10.23-.09-1.29-6.28-2.58-12.54-3.86-18.75,4.21.01,7.96.16,10.27.28,1.27,6.15,2.55,12.35,3.82,18.56Z"/>
      <path class="cls-1" d="M648.19,507.19c-2.6.02-6.22.1-10.15.36-1.64-7.88-3.26-15.63-4.85-23.18,3.98.01,7.59.15,10.29.29,1.54,7.35,3.12,14.88,4.71,22.53Z"/>
      <path class="cls-1" d="M759.5,735.04c2.03,4.04,2.37,10.67-2.43,12.15-3.76.2-6.52-3.88-8.51-6.72-1.69-3.02-4.17-7.24-2.4-10.55,3.54-3.89,9.79-.25,12.38,3.51-3.71-5.85-10.76-10.89-16.39-7.05-.69-.49-1.39-.97-2.1-1.44h-.01c-2.57-1.69-5.25-3.21-8.05-4.51-.2-.88-.41-1.76-.62-2.64-3.76-15.78-8.23-30.3-9.84-35.41-.78-2.48-3.35-3.95-5.89-3.36-2.05.47-4.23.91-6.66,1.37-6-31.26-13.87-70.84-22.19-111.84-2.35-.45-6.26-1.12-10.53-1.63,7.92,39.01,15.47,76.92,21.44,107.8.5,2.58.99,5.11,1.46,7.59.01.01.01.02.01.03l-15.14,3.54s-.02-.09-.02-.13c-5.92-31.31-14.68-75.46-23.9-120.7-2.18-.16-6.03-.4-10.3-.45,9.89,48.49,19.31,95.98,25.31,127.99,0,.02,0,.03.01.05,0,.07.02.14.03.21.91,4.83,2.19,10.04,3.43,15.08.58,2.35,1.17,4.73,1.71,7.07.98,4.16,1.83,8.21,2.31,11.82-.78.62-1.55,1.26-2.3,1.93-.3.25-.6.52-.89.79-1.1,1-2.17,2.04-3.2,3.11-.34-2.72-1.3-5.38-2.62-7.81-.09-.17-.19-.35-.29-.52-.28-.49-.58-.98-.88-1.45-.09-.14-.19-.28-.28-.42-.21-.29-.43-.57-.66-.85-3.81-4.75-9.26-7.72-15.03-9.6-5.52-32.87-11.57-65.65-17.76-98.4-2.11-11.35-4.31-22.67-6.53-33.99-.4-2.14-2.64-3.48-4.71-2.81-47.14,14.63-101.48,32.31-148.47,47.7l-21.13,7.03c-2.32.75-3.77,3.14-3.3,5.6l6.45,33.94c5.94,31.43,13.76,70.16,20.11,101.7.36,2.2,2.68,3.6,4.8,2.88,10.94-3.61,21.89-7.22,32.8-10.93,27.33-9.2,54.63-18.5,81.81-28.16,3.74-1.32,7.49-2.66,11.22-4.01-.07,5.1,1.05,10.47,2.82,15.44.96,2.72,2.12,5.31,3.39,7.68-1.89.64-3.79,1.28-5.7,1.92-58.83,19.75-124.65,38.25-152.4,45.48l-1.32-6.96-12.56-66.04c3.51.4,6.59,1.95,7.57,4.89.87,2.62,3.7,4.04,6.32,3.16,2.62-.87,4.04-3.7,3.16-6.32-2.71-8.17-10.77-11.8-18.96-11.82l-18.18-95.6c3.53.4,6.62,1.94,7.61,4.9.87,2.62,3.7,4.04,6.32,3.17,2.62-.88,4.04-3.71,3.17-6.33-2.73-8.19-10.81-11.82-19.02-11.82l-19.6-103.09c3.36.46,6.26,2.01,7.21,4.85.87,2.62,3.71,4.04,6.32,3.17,2.62-.87,4.04-3.71,3.17-6.33-2.67-8.05-10.54-11.7-18.62-11.81l-8.88-46.71c22.76-5.61,71.76-21.23,119.26-36.36,28.55-9.1,55.52-17.69,75.58-23.73,5.84-1.77,10.86-3.24,15.04-4.41,3.37-.95,6.19-1.71,8.46-2.27.74,2.9,1.78,7.19,3.24,13.53,3.51-.38,8.55-.34,10.18-.32-2.43-10.63-4.13-17.53-5.08-20.59-.66-2.13-2.62-3.53-4.78-3.53-.29,0-.58.03-.88.08-2.72.49-7.2,1.6-13.56,3.39-3.05.86-6.53,1.86-10.45,3.03-.12-.49-.24-.99-.37-1.5-.27-1.11-.55-2.27-.85-3.47l-.75-3.1s-.02-.08-.03-.13h-.01l-.38-1.6c-.29-1.17-.57-2.34-.86-3.52l-.43-1.75c-.2-.83-.4-1.65-.6-2.46-.78-3.2-1.52-6.24-2.15-8.83,17.66-7.1,37.43-12.7,48.53-12.92,3.57-.07,6.25.42,7.66,1.59,7.37,6.1,15.53,38.77,19.6,60.9,0,.01.01.03.01.04,5.17,1.51,9.63,3.61,10.73,4.15.03-.39.02-.79-.05-1.19-1.7-10.06-10.85-60.79-23.91-71.6-2.93-2.43-8.2-4.95-21.08-3.3-5.43.7-12.21,2.14-20.74,4.63-14.89,4.35-28.01,9.87-28.56,10.11-2.26.95-3.5,3.4-2.92,5.78.52,2.16,1.25,5.12,2.06,8.46-17.36,5.46-36.18,11.53-56.02,17.94-7.47,2.41-14.98,4.84-22.5,7.26.6-2.75.88-5.68.69-8.51-.2-2.82-.88-5.53-2.2-7.86-3.07-4.39-13.77-5.1-20.25-4.79-1,.05-1.9.12-2.66.21-6.5.77-12.68,2.49-18.27,6.43-3.39,2.4-5.88,5.4-7.32,8.64h-.01c-.65,1.44-1.09,2.91-1.31,4.4-.48,3.05-.05,6.15,1.39,9.01.02.06.05.11.08.16h.01c.15.31.32.62.51.93-.32-.26-.64-.52-.97-.78-.05-.05-.11-.09-.17-.14-1.79-1.44-3.63-2.83-5.5-4.16-.4-.3-.81-.59-1.22-.88-2.6-1.82-5.27-3.55-8-5.19-8.67-5.23-17.93-9.51-27.49-12.81-5.61-1.96-11.54-3.31-17.42-4.26-.12-.8-.21-1.6-.3-2.4-.92-10.63,2.51-21,8.78-29.73,12-16.84,33.3-30.81,54.7-25.74,1.74.43,3.45.97,5.12,1.62,3.98,1.51,7.74,3.62,11.18,6.19-2.46.77-4.7,1.91-6.58,3.37-.23.18-.46.37-.68.56-4.53,3.88-6.64,9.74-4.16,16.69.38,1.17.81,2.24,1.3,3.2,2.2,4.45,5.54,6.76,10.96,7.75,5.02.93,10.01.76,14.98.11,2.4-.38,4.89-.75,7.02-1.98-6.87,3.5-21.37,1.35-25.88-5.06-.14-.2-.25-.4-.35-.61-.26-.56-.4-1.17-.49-1.79-.47-2.44-.75-4.87-.1-7.24,1.21-3.66,4.66-4.73,8.43-5.85.24,1.24.68,2.29,1.61,3.45,1,.93,2.03,1.52,3.2,1.88,1.33.41,2.86.54,4.78.54,2.71-4.65.5-9.56-3.34-11.06.81-.78,1.64-1.49,2.49-2.03,3.36-2.29,8.19.73,10.57,3.37,4.32,4.92,4.47,12.55,2.49,18.57-.56,1.55-1.18,3.19-2.18,4.53,1.04-1.32,1.76-2.9,2.48-4.41.93-2.11,1.65-4.32,2.18-6.6,2.34-9.11-.52-18.97-9.4-23.39-4.52-2.13-8.71-1.18-12.45,1.01-1.91,1.13-3.69,2.58-5.34,4.12-2.86-3.14-6.15-5.74-9.72-7.74-3.06-1.71-6.31-2.99-9.67-3.8,4.32-1.19,8.04-4.51,9.55-8.85,2.78-8.07-4.35-14.9-12.3-14.09-3.2.26-6.33,1.39-9.01,3.16-4.25,2.81-7.35,7.22-7.78,12.33-.05.58-.06,1.17-.04,1.76.13,1.93.98,3.97,2.45,5.23-15.66,1.84-30.83,9.3-40.73,21.8-.25.32-.5.64-.73.96.25-1.12.5-2.23.73-3.35,4.2-18.49,7.85-37.34,6.76-56.49-.04-.67-.1-1.34-.16-2.01-.05-.53-.11-1.06-.18-1.59.31.45.62.89.95,1.32,3.64,4.92,8.13,9.03,13.64,9.87,5.25.65,9.98-2.79,13.84-5.94,11.02-9.11,18.07-26.41,5.07-37.26-6.53-5.57-17.82-9.08-27.41-7.97-3.62.41-6.98,1.48-9.77,3.33-3.15,2.35-4.99,5.15-5.85,8.18-2.99-5.09-6.63-9.77-10.89-13.79-4.52-4.29-9.72-7.83-15.57-10.34-3.28-1.33-6.89-2.22-10.75-2.32-.11,0-.21,0-.31.01,2.19-6.02,2.76-12.45-3.06-17.12-3.79-3.15-8.7-4.86-13.63-4.81-1.62.04-3.2.24-4.74.59-7.81,1.76-14.53,7.27-19.09,13.78-1.7,2.7-3.48,5.46-3.24,9.25.73,5.62,4.01,12.06,8.4,17.39,3.6,4.38,7.95,8.01,12.25,9.82,2.66,1.11,6,1.65,8.95.92,2.02-.59,4.08-1.22,5.97-2.16,8-3.8,10.68-10.58,8.83-17.79,7.35,2.59,14.02,7.06,19.41,12.75,2.9,3.05,5.43,6.46,7.49,10.11.25.43.49.87.72,1.31.29.54.56,1.09.83,1.64,1.25,2.48,2.36,5.44,3.29,8.05l.47,1.69.96,3.38c.26,1.15.49,2.3.69,3.46,1.5,8.13,1.9,16.52,1,24.73-.47,4.41-1.36,8.79-2.44,13.24-4.2-4.72-11.49-6.61-18.2-6.39-2.31.07-4.53.39-6.55.92-9.1,2.02-22.97,8.98-27.51,17.45-.37.79-.59,1.69-.64,2.55.01,1.05.07,2.31.33,3.29,1.5,6.05,5.06,12.02,9.62,16.97,3.33,3.62,7.19,6.69,11.17,8.88,8.32,4.62,17.13,3.68,23.29-1.81-.57,8.35-.37,16.72.44,25.06.04.38.06.66.08.93-18.32-1.82-36.74-1.67-55.1-1.92-3.48-.05-6.96-.11-10.43-.21-2.63-.06-5.25-.15-7.87-.26,2.41-1.21,4.44-3.24,5.85-6.37,3.59-8.51,4.78-17.88,2.15-26.92-3.51-11.62-13.9-14.86-24.33-11.19-.63.21-1.26.46-1.89.73-7.6,3.34-15.15,9.38-18,17.33h0c-.22.6-.4,1.21-.56,1.82-.25,1.13-.4,2.23-.46,3.29-.23,4.17.96,7.79,3.23,10.8-2.33-1.24-4.59-2.57-6.73-3.98-.26-.17-.51-.33-.76-.5-4.44-2.99-8.37-6.3-11.41-9.83h0c-.96-1.11-1.82-2.24-2.59-3.39-9.12-13.14-7.84-27.59-4.58-42.33,2.49,2.04,5.91,2.9,8.91,1.89,4.6-1.39,7.92-4.99,10.45-8.8-3.18,4.34-9.74,8.24-14.15,4.27-4.67-5.58,5.48-22.75,12.59-21.42,5.59,1.93,5.42,9.5,3.17,14.39,2.1-4.06,3.64-8.71,2.62-13.4-.79-4.34-5.19-7.63-9.7-7.56-2.87.02-5.57.82-7.97,2.18-6.94,3.92-11.35,12.51-10.07,20.39.28,1.78.85,3.52,1.76,5.17.41.76.93,1.46,1.52,2.08-18.89,35.68,6.02,63.79,40.18,76.66,6.72,2.76,13.79,4.29,20.97,5.19,5.37.68,10.81,1.01,16.19,1.24-2.67,3.71-4.13,8.37-4.09,12.87.09,4.98,1.5,9.72,3.82,14.02,1.45,2.69,3.25,5.2,5.3,7.49,2.24,2.27,4.52,4.63,8.27,5.26,11.19,1.16,30.26-7.35,33.6-18.84.77-2.44.48-4.83.2-7.6-.61-4.6-2.26-8.21-4.71-10.73,5.51.45,11.01.96,16.49,1.57,1.07,5.73,2.56,11.92,4.39,17.29,1.71,5.19,3.72,10.27,5.92,15.25,1.01,2.29,2.06,4.56,3.14,6.81-2.84.74-5.59,1.41-7.93,1.91-18.27,3.87-69.14,6.83-118.34,9.68-14.03.82-28.27,1.64-41.86,2.49-.01,0-.02-.03-.04-.04-1.11-1.36-2.26-2.7-3.43-4.02-14.97-16.87-33.86-30.47-55.31-37.89-.9-3.87-2.11-7.71-3.74-11.35,6.84.93,10.9-6.95,11.5-13.89-.5,4.55-4.48,10.88-9.5,8.97-3.11-2.18-2.77-7.03-2.6-10.52.5-3.42,1.13-8.27,4.55-9.8,5.43-.96,8.15,6.44,7.58,10.97,1.03-8.36-2.64-19.31-13.2-15.46-1.26.57-2.4,1.3-3.4,2.16h0c-3.66,3.17-5.57,8.06-5.57,12.92-2.84-2.43-6.06-4.44-9.47-5.93-.57-.25-1.15-.49-1.73-.72-3.62-1.4-7.37-2.33-11.11-2.95.51-1.37.9-2.82,1.01-4.4.71-9.29-10.34-14.55-18.44-13.36-.46.07-.91.15-1.35.24h-.01c-8.63,1.79-15.82,8.07-19.7,15.91-2.56,5.42.8,11.55,3.42,16.07.49.76,1.01,1.52,1.57,2.29h0c4.74,6.59,11.84,13.35,20.52,11.95.97-.19,2.52-.77,3.46-1.05,1.52-.59,3.29-1.43,4.66-2.35.53-.3,1.25-.95,1.73-1.33,2.8-2.32,4.52-6.01,4.45-9.63-.03-2.39-.71-4.76-1.66-6.89,3.33.94,6.56,2.04,9.63,3.42,9.76,4.2,16.32,11.4,17.78,21.37-21.56-3.92-45.51,1.73-66.69,13.49,1.72-4.32,1.61-9.04-1.69-13.89-6.8-10.29-22.18-22.71-35.39-19.89-2.56.54-5.03,1.65-7.35,3.46-11.07,9.47-11.39,32.39-2.77,43.88.37.51.77.99,1.18,1.45,5.09,5.38,11.01,7.37,17.14,6.6-4.28,4.24-8.23,8.74-11.76,13.47-3.04,4.06-5.77,8.28-8.13,12.63-.14.25-.28.49-.41.74-3.29,6.15-5.87,12.55-7.6,19.1-.91,3.46-1.58,6.96-2,10.5-3.15-1.15-7.32-.36-10.18,1.95-.27.2-.54.41-.79.64-4.38,3.64-6.81,9.1-6.88,14.85-.01.2-.01.39-.01.59-.07,7.8,6.74,15.53,14.98,12.2,1.95-.83,3.58-2.12,4.85-3.7,3.28,12.07,9.77,23.3,19.09,31.72,10.55,9.21,25.26,12.4,39.01,11.97.58-.05,1.15-.09,1.72-.12,6.22,6.69,15,11.14,22.89,3.36,2.93-3.09,5.12-6.95,6.15-11.09h0v-.02c.77-3.04.91-6.23.26-9.37-.15-.52-.4-1.17-.61-1.68-.48-1.02-1.37-1.98-2.13-2.49h-.01c-5.14-3.23-11.92-3.88-18.03-2.85-1.6.27-3.15.65-4.62,1.13-6.44,2.21-10.52,6.82-10.03,12.25-4.31.03-8.6-.3-12.67-1.33-3.83-.97-7.46-2.56-10.72-5.04-12.55-9.45-19.2-26.66-21.46-41.9-.21-4.35.2-8.7,1-13,.19-.89.39-1.78.62-2.66.75,1.91,1.87,3.83,3.33,5.73.47.67,1.08,1.35,1.7,1.87,7.43,5.9,18,3.63,26.08.55,4.24-1.76,10.01-4.82,11.12-9.64,3.27-13.1-3.76-30.7-18.69-31.7-2.48-.23-4.54.08-6.26.81-.59.24-1.14.54-1.65.88.37-.5.75-.98,1.14-1.48,10.64-13.5,24.72-24.66,39.34-32.33,16.59-7.89,35.11-13.22,53.6-12.1,12.42.74,24.01,6.09,34.49,12.51,8.64,5.35,16.25,12.27,23.09,19.92,1.18,1.33,2.34,2.67,3.47,4.03-11.01.73-21.39,1.48-30.66,2.26l-.58-4.43-.82-6.22c-.32-2.43-2.36-4.27-4.81-4.34-.39-.01-6.48-.19-14.91.05-4.61.12-9.91.38-15.37.84-29.87,2.54-36.84,9.13-39.48,13.86-6.61,11.8-1.72,46.4,1.57,64.99.83,4.71,1.56,8.4,1.98,10.42.48,2.35,2.55,3.99,4.89,3.99.21,0,.43-.01.64-.04l.32-.04,9.13-1.17c8.63,52.66,31.63,174.69,43.45,236.22-3.07,1.04-6.01,2.46-8.79,4.17-4.79,2.94-9.08,6.76-12.63,11.09-1.1-6.43-5.15-11.85-13.06-8.96-1.09.49-2.09,1.11-2.99,1.82-4.36,3.49-6.41,9.38-5.9,14.95.4,4.43,2.42,8.66,6.21,11.33,1.79,1.08,3.45,1.61,4.97,1.7-6.95,22.22-5.25,50.32,4.93,69.72-1.63-.55-3.29-.83-4.96-.89-8.05-.31-16.3,4.61-21.56,11.39-7.95,10.09-11.66,22.73-13.06,35.32-.34,3.56-.5,6.94-.21,10.51.06.86.15,1.74.27,2.63.17,1.28.62,3.19,1.53,4.89,4.09,6.14,15.8,8.71,22.55,9.55,17.25,2.2,39.59-2.56,43.32-22.39,1.62-9.3-.83-18.45-5.21-26.55,16.43,10.34,37.51,14.24,56.31,12.33,16.7-2.1,32.88-7.32,47.67-15.2,3.59-1.9,7.1-3.97,10.51-6.19-1,2.95-1.1,6.45.04,10.71.41,1.63.95,3.18,1.63,4.63,5.1,11.08,17.35,16.91,29.49,17.18,6.58.15,13.18-.5,19.29-3.52,4.21-2.08,6.38-7.07,7.88-11.13,3.84-11.07,6.14-29.32-1.53-39.77,33.89-1.57,102.96-5.46,129.18-12.15,15.42-3.96,34.16-9.13,54.33-14.96h.01c8.7-2.51,17.66-5.14,26.74-7.85.64.52,1.31,1.02,2.01,1.5-6.99,1.02-12.49,5.69-14.21,14.95-1.82,8.46-2.14,19.27,1.11,28.17,1.59,4.37,4.04,8.27,7.59,11.21,15.27,11.77,43.75-5.62,48.02-22.16,1.64-6.98.26-13.56-3.74-18.36,6.52.38,13.06-.13,19.31-1.35,7.34-1.42,13.89-3.37,20.94-5.82,11.86-4.5,20.95-14.07,27.93-24.22,2.45-3.56,4.7-7.24,6.81-10.99.79.52,1.74.81,2.73.81.18,0,.36-.01.55-.03.64-.07,16.04-1.78,32.5-5.33,31.64-6.82,38.15-14.18,40.29-19.12,2.2-5.07,1.83-14.55.21-25.41-.83-5.63-2.01-11.63-3.34-17.58,2.87,1.21,5.69,2.62,8.53,3.99-.76.69-1.49,1.57-2.17,2.65-1.79,3.4-2.04,7.17-1.16,10.69,1.34,5.34,5.3,10.12,10.5,12.21,5.48,2.42,13.04.33,14.03-6.17.66-4.13-.89-8.07-2.84-11.51ZM446.39,293.65c2.5-.04,3.81.18,3.97,2.5.09,3.41-1.89,6.95-4.18,10-3.17-.56-6.4-.69-9.62-.39-1.11.04-2.22.11-3.33.21-1.74-6.46,8.04-12,13.16-12.32ZM388.93,236.92c2.72-5.04,8.24-7.19,13.8-6.32,2.9.36,6.5,1.34,10.06,2.83,6.43,2.68,12.72,7.01,14.49,12.31,1.76,5.84-2.69,14.85-6.83,20.14-2.35,2.84-4.82,6.28-8.73,6.83-4.72.22-9.09-2.55-12.77-6.34-.73-.75-1.43-1.53-2.1-2.35h0c-.46-3.45-1.19-6.87-2.16-10.24,7.2-.4,13.26-2.8,18.24-8.87-6.23-4.95-15.9-3.31-20.32,2.68-.96-2.5-2.05-4.95-3.29-7.32-.22-.42-.44-.84-.67-1.25-.11-.22-.23-.43-.35-.64.17-.49.38-.98.63-1.46ZM334.92,232.98c-.64.11-1.31.07-1.95-.07-2.57-.63-5.31-2.7-7.83-5.43-4.41-4.79-8.12-11.58-8.95-16.06-.06.18-.06.25-.02-.07,0,.02.01.05.02.07.02-.08.05-.17.09-.27.93-2,2.2-4,3.71-5.84.26-.32.53-.63.8-.94,3.26-3.65,7.48-6.58,11.88-7.64.39-.1.77-.18,1.16-.24,4.05-.64,9.42.59,12.27,3.57,2.45,2.73,2.43,6.9,2.27,10.84-.61.24-1.12.59-1.54,1.03-2.22-6.14-10.82-7.35-15.08-2-.24.3-.46.61-.67.95.4.57.8,1.09,1.21,1.57,3.73,4.42,7.88,5.05,13.18,2.94.01,1.8.98,3.6,3.09,4.36-.12,7.94-3.97,12.18-13.64,13.23ZM296.07,365.62c-5.56-.88-11.67-2.6-17.72-4.97.7-.59,1.36-1.2,1.99-1.83,0,0,0,0,0-.01,4.83-4.82,7.46-10.73,6.99-18.17-8.93.76-15.37,10.24-12.74,18.46-1.98-.86-3.94-1.79-5.86-2.79h-.01c-2.69-3.81-3.38-8.59-.96-13.73,2.24-4.46,6.94-7.4,11.39-9.45,3.09-1.31,6.54-2.54,9.96-2.97,2.21-.29,4.41-.23,6.49.35,2.57.96,3.69,2.8,4.99,5.69,2.57,6.43,4.1,18.91,1.1,25.34-1.4,2.1-3.37,3.39-5.63,4.08ZM358.06,394.39c-.57,4.69-6.55,7.88-10.71,9.83-4.5,1.88-9.74,3.78-14.61,3.53-1.69-1.23-3.46-3.04-5.05-5.17-3.34-4.48-5.91-10.39-5.42-15.41.23-2.97,1.56-6.4,3.64-8.85,1.8.06,3.58.13,5.35.22,2.07.12,4.14.24,6.2.36-4.78,2.55-6.35,9.7-1.79,14.22,6.88-2.75,8.78-7.12,7.52-13.87.23.01.45.02.68.04,3,.19,5.99.38,8.98.6h.01c4.37,2.55,6.1,7.06,5.2,14.5ZM380.23,311.55c-3.55-3.05-8.97-3.75-13.31-1.75-.16.06-.31.14-.47.23-1.63.83-3.09,2.07-4.21,3.73,1.08.9,2.16,1.68,3.25,2.33,4.08,2.46,8.28,3.21,12.89,2.6-1.2,4.96-2.22,10.04-2.92,15.16v.03c-.22,1.62-.41,3.24-.57,4.86-6.69,4.11-13.67,4.07-20.88-1.99-.4-.34-.79-.68-1.18-1.04-3.51-3.18-6.48-6.95-8.98-10.99-1.47-2.56-2.96-5.2-3.58-8.06-.03-.1-.05-.18-.06-.26h0c2.06-2.59,4.95-4.74,7.71-6.73,1.12-.75,2.27-1.5,3.46-2.23h.01c.78-.47,1.57-.94,2.38-1.38,4.75-2.65,9.97-4.8,15.22-5.37,4.03-.45,8.09.03,11.96,1.92.49.26.96.55,1.42.88-.68,2.66-1.41,5.34-2.14,8.06ZM125.5,357.45c-5.06-3.4-11.41-2.56-15.45,2.3-.05.05-.1.11-.14.16.07.09.14.17.2.25,3.82,4.67,9.12,6.37,14.46,4.7.03.01.05.01.08.02.1.03.19.05.29.08.44,6.06-.8,11.34-7.46,13.13-.52.11-1.69.4-2.2.51-.5.05-1.81.23-2.32.3-3.19,0-6.36-2.84-8.92-6-1.55-1.94-2.88-4-3.82-5.6-1.31-2.3-2.42-4.5-2.89-6.85.63-1.79,2.41-4.33,4.03-6.12.23-.25.46-.5.7-.75.28-.29.57-.57.86-.84,2.23-2.15,4.71-3.85,7.48-4.76,1-.34,2.04-.57,3.13-.68,4.56-.27,10.39,1.38,11.53,6.43.31,1.17.45,2.45.51,3.78-.02-.03-.05-.04-.07-.06ZM28.19,502.41c-2.2,1.53-5.52,3.19-6.78.78-2.59-4.72.92-16.33,6.61-17.06-.25,4.53-.07,9.08.59,13.65.1.69.21,1.38.33,2.06-.25.21-.5.39-.75.57ZM89.96,534.43c2.81-.92,5.75-.83,8.64-.3,2.17.4,4.32,1.06,6.35,1.72,1.7.62,3.46,1.22,4.94,2.04.35,5.09-1.05,13.29-4.92,16.41-4.55,3.11-10.14.93-14.3-2.54,2.19-.18,4.35-.46,6.57-1.37.72-.36.74-.32,1.52-.94,3.41-2.85,1.78-8.05-2.06-8.85-.02,0-.05,0-.07,0-1.04-.23-1.8-.19-2.68-.15-3.06.3-6.19.54-9.31.59.15-2.87,1.84-5.43,5.32-6.6ZM59.29,449.57c.54-.07,1.09-.08,1.66-.03,3.06.23,6.44,2.02,8.41,4.17,4.25,4.65,5.55,12.91,4.16,19.11-.01.03-.02.06-.02.09.03-.03.06-.05.09-.08-.09.14-.14.22-.17.25.02-.03.05-.1.08-.17-4.56,3.97-17.98,8.86-23.3,5.48-1.35-1.19-2.45-2.35-3.31-3.48-4.14-5.42-2.87-10.38,2.96-16.52,2.63-3.25,5.28-8.16,9.44-8.82ZM84.3,405.29c-5.85,3.43-11.46,7.34-16.72,11.63-.27-1.1-.59-2.12-.9-3.12-1.01-2.78-2.14-5.38-3.54-7.78-2.14-3.69-4.92-6.92-8.89-9.59-2.16,5.29-1.64,11.01.88,15.77,1.27,2.42,3.05,4.59,5.26,6.34.97.71,1.99,1.35,3.1,1.86-1.61,1.42-3.19,2.89-4.72,4.39-5.82.46-11.29-1.92-15.11-7.79-.05-.08-.1-.15-.15-.23-3.07-5.09-3.13-11.62-2.42-17.41.12-.78.25-1.56.41-2.35h0c.13-.77.29-1.52.46-2.28,1.18-5.19,3.19-10.37,7.05-13.72,2.77-2.05,5.69-1.86,9.47-1.1,2.56.59,5.71,1.75,8.94,3.29,6.75,3.22,13.84,8.12,16.67,12.96,1.38,3.08,1.27,6.18.21,9.13ZM702.39,691.86s.12-.02.15-.03c.46-.09.92-.19,1.36-.28,1.82-.36,3.51-.67,5.1-.98,1.53-.29,2.97-.56,4.34-.84,2.52,8.28,5.12,17.65,7.38,26.86-3.38-.71-6.83-1.07-10.32-.97-.28.01-.57.03-.85.06-4.63.29-9.08,1.37-13.3,3.07-1.53.61-3.02,1.3-4.48,2.07-.36-1.96-.78-3.96-1.25-5.99-.68-3.07-1.45-6.21-2.22-9.29-.8-3.28-1.63-6.63-2.34-9.84l16.43-3.84ZM681.29,744.4c1.15-1.92,2.39-3.79,3.7-5.71,1.01-1.47,2.05-2.86,3.13-4.18.79-.56,1.64-1.11,2.56-1.66.04-.03.08-.06.12-.11.01,0,.02-.01.03-.02.02,0,.04-.02.06-.04.05-.03.09-.07.13-.11,2.91-2.36,6.06-5.62,9.59-6.74.94-.31,1.91-.45,2.9-.39,3.09.29,6.28,2.31,8.54,4.82.74.82,1.38,1.7,1.88,2.59,3.81,6.41,2.4,17.38-.72,23.07-.68.39-1.54.76-2.52,1.09-7.52,2.59-22.55,3.39-26.08-2.39-.13-.21-.27-.43-.39-.64-2.19-3.65-3.14-6.79-2.93-9.58ZM465.06,639.57l17.06-5.59c45.56-15.14,98.06-32.78,143.69-48.71,2.45,10.74,4.93,21.49,7.43,32.22-28.47,4.85-56.21,12.41-83.81,20.7-26.91,8.32-53.56,17.28-79.36,28.73-1.68-9.29-3.36-18.44-5.01-27.35ZM470.3,668.15c27.86-4.87,55.01-12.29,82.04-20.4,27.51-8.49,54.75-17.65,81.07-29.5,2.64,11.34,5.31,22.68,8.02,34.01-29.05,4.64-57.36,12.15-85.52,20.41-27.02,8.16-53.79,16.97-79.71,28.29-1.96-11.01-3.94-22-5.9-32.81ZM611.76,732.09c-3.89,1.04-7.77,2.09-11.65,3.15-27.83,7.57-55.55,15.51-83.25,23.54-9.71,2.78-19.4,5.64-29.08,8.51-1.56-9.14-3.17-18.52-4.83-28.03,28.06-4.95,55.42-12.5,82.63-20.73,28.49-8.87,56.67-18.47,83.85-31-29.53,4.9-58.23,12.79-86.78,21.44-27.1,8.46-53.93,17.57-79.89,29.22-2.06-11.89-4.19-23.98-6.35-36.06,27.94-4.68,55.21-11.94,82.35-19.88,28.09-8.47,55.89-17.65,82.76-29.64,4.72,19.8,9.57,39.56,14.59,59.28-2.07-.67-4.18-1.19-6.26-1.61-1.17-.21-2.36-.39-3.56-.53h0c-7.56-.9-15.42-.34-22.45,2.97-8.54,3.94-11.85,11.28-12.07,19.37ZM453.35,388.16c4.02-7.12,12.86-9.36,20.45-10.64,1.24-.18,2.52-.34,3.81-.48,4.04-.41,8.25-.53,12.05.06.07.01.24.04.24.02-.01-.02-.02-.04-.02-.07-.04-.05-.21-.19-.28-.3-.03-.04-.04-.07-.05-.09.02.01.04.03.05.04.48.42.85,1.02,1.29,1.8.55,1.1,1.02,2.22,1.43,3.37.9,2.46,1.52,5.03,2,7.67-11.08,3.57-22.16,7.11-33.08,10.56.08-.06.15-.11.23-.16,4.12-3.09,6.76-6.19,8.66-10.9.02-.04.04-.09.05-.13h.01c.28-.71.55-1.45.8-2.23-6.31-2.34-13.03,1.13-15.55,6.89-.03.06-.06.12-.08.18-.3.71-.54,1.46-.7,2.24-.21,1.11-.29,2.25-.17,3.41-.87-1.53-1.57-3.12-1.93-4.75-.01-.05-.02-.11-.03-.17-.43-2.08-.28-4.22.82-6.32ZM390.17,384.15c.42.11.83.22,1.25.33,10.06,2.73,20,6.12,29.28,10.81,3.54,1.77,6.82,3.79,9.97,6.04,2.59,1.84,5.1,3.84,7.59,5.97-11.18,3.46-22.08,6.76-32.53,9.82-.01-.03-.03-.05-.05-.08-1.4-2.21-2.76-4.46-4.06-6.76-4.7-8.24-8.69-17.03-11.45-26.13ZM264.71,442.96c51.85-3.01,100.82-5.85,119.83-9.87,6.06-1.29,14.57-3.66,20.47-5.34,35.94-10.46,77.42-23.85,117.52-36.8,19.58-6.32,38.17-12.32,55.32-17.73.08.28.14.57.21.85.28,1.16.56,2.31.84,3.44.13.55.27,1.1.4,1.64.6,2.48,1.18,4.85,1.69,6.94-19.57,5.95-44.7,13.96-71.19,22.4-50.83,16.21-103.39,32.95-122.97,37.2-.03.01-.06.01-.09.02-16.6,3.48-57.94,6.02-101.7,8.7-35.36,2.17-71.86,4.41-101.04,7.41l-.44-3.35-1.33-10.12c23.13-1.94,53.26-3.69,82.48-5.39ZM180.22,472.28c29.69-3.24,68.19-5.6,105.43-7.89,40.31-2.48,78.58-4.83,98.13-7.98l8.8,46.3c-9.2,3.25-14.51,10.74-13.43,19.42.31,2.54,2.47,4.39,4.96,4.39.2,0,.41-.01.62-.04,2.74-.34,4.68-2.83,4.34-5.57-.54-4.39,2.64-6.86,5.42-8.17l19.64,103.32c-8.97,3.32-14.12,10.72-13.06,19.29.31,2.53,2.47,4.39,4.95,4.39.21,0,.42-.01.62-.04,2.74-.34,4.69-2.84,4.35-5.58-.52-4.19,2.37-6.63,5.05-7.98l18.18,95.58c-9,3.32-14.17,10.73-13.1,19.31.31,2.53,2.46,4.39,4.95,4.39.21,0,.41-.02.62-.04,2.74-.34,4.69-2.84,4.35-5.58-.52-4.21,2.4-6.66,5.09-8l12.76,67.12,1.22,6.4c-11.54,2.14-28.94,4.23-50.92,6.13-.71.06-1.42.12-2.14.18-.6.05-1.2.11-1.85.16-.15.01-.3.02-.45.04-36.57,2.9-83.51,5.07-122.66,5.69-.56.01-1.12.01-1.68.02h-.39c-20.12.2-37.45-.06-51.57-.77-.32-1.2-.64-2.41-.96-3.64-1.81-6.84-3.65-14.04-5.48-21.5,1.71,0,3.38-.11,4.98-.33,3.14-.36,6.15-1.48,8.6-3.31l1.06,8.85c.03.2.21.36.42.36,15.25-.44,30.5-.96,45.74-1.58,37.26-1.43,76.94-3.44,114.15-5.4l22.82-1.31c2.59-.13,4.52-2.58,4.05-5.13,0-.08-6.04-34.03-6.04-34.11-3.06-16.94-9.38-51.03-12.45-67.97-2.08-11.33-4.28-22.64-6.42-33.95-.43-2.39-2.59-4.15-5.08-4.01l-44.89,2.49c-43.06,2.61-91.79,5.63-134.61,8.86-1.71.04-3.02,1.65-2.69,3.34,5.55,30.09,11.85,63.1,18.03,93.14-3.65-4.59-8.05-8.41-13.34-9.23-1.19-.15-2.35-.07-3.47.18-.7.15-1.39.37-2.07.65-.24-1.13-.48-2.27-.72-3.41h0c-.23-1.12-.46-2.22-.69-3.33-.02-.1-.02-.11-.04-.2l-.02-.1s-.02-.08-.02-.11c-13.08-63.14-25.2-133.09-31.26-169.16l-.25-1.49c-3.43-20.45-6.69-40.65-9.45-58.46,0-.02,0-.04,0-.06v-.05s0-.08-.01-.11c-1.91-12.39-3.47-23.09-4.5-30.82,7.02-1.24,15.72-2.42,26.39-3.59ZM183.33,775.46c.01.07.04.15.06.22.85,2.3,2.08,4.33,3.61,6.1-.18.02-.37.04-.55.07l-1.53.22c-.16.02-.32.05-.48.07l-1.52.21c-.4-2.02-.92-4.67-1.54-7.87-.68-3.52-1.49-7.71-2.4-12.46.36-.02.72-.03,1.09-.04,1.23-.01,2.48,0,3.74.04-1.5,4.25-1.89,8.82-.48,13.44ZM179.68,792.92l6.21-.89c.92-.13,1.85-.27,2.84-.4l2.27-.32c.68-.1,1.35-.19,2.01-.29.41-.06.82-.12,1.23-.18h.01c.28-.03.55-.07.82-.12.16,0,.32-.04.47-.06.03,0,.25-.05.59-.11,1.03-.19,3.02-.57,3.45-.64.13-.02.26-.05.39-.08.36.11.72.22,1.08.32,1.99,8.27,3.89,15.73,5.7,22.3,1,3.66,1.97,7.05,2.9,10.15.05.14.09.28.13.42.04.12.08.24.12.36.05.12.1.23.15.35.05.11.11.22.17.33.06.1.13.21.2.31s.14.2.22.3c.62.79,1.49,1.39,2.47,1.68.12.04.25.07.37.1.15.04.29.06.44.08.06,0,.13,0,.19.02.05,0,.1.01.16.01,7.28.66,17.83,1.02,31.42,1.11.05.43.12.87.18,1.33,0,.04.01.09.01.13l.06.41c.03.19.06.38.09.58l.91,6.57c.06.4.12.79.16,1.2.01.05.02.1.02.15l.12.77c.01.06.02.11.02.17.06.36.11.73.15,1.09,0,.05.01.1.02.14l.11.76c.07.45.13.89.2,1.44l.3,2.18c.07.43.13.87.19,1.39l.54,3.86c.39,2.84.76,5.52,1.09,7.84-3.71.5-9.25,1.19-15.52,1.75-2.24-2.54-5.01-4.66-8.02-6.09h-.01c-3.8-1.81-7.98-2.53-11.96-1.61h0c-1.99.47-3.93,1.34-5.75,2.7-.05.05-.11.09-.16.14-1.9,1.64-3.13,3.56-3.79,5.61-6.32-.47-10.07-1.42-12.26-2.29-1.66-.65-2.43-1.26-2.75-1.59-.48-.48-.96-1.1-1.44-1.83h-.01c-6.39-9.65-13.17-39.62-16.7-60.39,2.43-.34,5.23-.74,8.2-1.16ZM201.71,754.46s-.02-.01-.02-.01c-.26-.19-.53-.36-.85-.51-.83-.36-1.66-.68-2.48-.98,2.03-2.9,4.4-5.92,7.66-6.61,1.17-.25,2.45-.2,3.87.26,7.45,2.41,12.91,9.11,16.88,15.79-1.94-3.35-4.25-7.24-6.99-10.7-.85-7.11-1.75-14.39-2.69-21.75h-.04s.03-.01.04-.01c-1.46-11.54-3.01-23.28-4.58-34.94,29.48,1.56,58.85.22,88.22-1.88,28.37-2.26,56.62-5.2,84.59-10.74.07.39.15.76.22,1.15,1.83,9.63,3.87,20.38,6,31.54-28.47-1.12-56.8.38-85.15,2.57-29.98,2.56-59.81,5.9-89.3,12.3h0c30.14,1.55,60.12,0,90.12-2.34,28.36-2.44,56.61-5.56,84.56-11.31,2.25,11.8,4.59,24.03,6.86,35.84-27.77-1.44-55.44-.25-83.13,1.63-29.28,2.23-58.42,5.25-87.25,11.33,29.4,1.87,58.68.65,87.98-1.36,27.72-2.13,55.32-4.94,82.64-10.39,1.84,9.48,3.63,18.68,5.31,27.14-51.04,3.96-103.56,8.47-154.38,13.52-7.47.75-14.92,1.5-22.38,2.3l-1.72-8.4c2.46-1.85,4.35-4.42,5.28-7.59,1.41-5.24-.38-10.53-2.73-15.22-.02-.03-.04-.07-.06-.1,2.24,4.6,3.64,10.04,1.5,14.85-2.39,4.99-7.52,7.15-12.9,6.44-2.39-.26-5.16-.89-7.96-1.85h-.01c-.32-.11-.63-.22-.95-.33-.01,0-.03-.02-.04-.02-.16-.07-.31-.13-.47-.18-.17-.07-.34-.13-.5-.2-.01,0-.01-.01-.02-.01-1.41-.55-2.81-1.19-4.15-1.9h-.01l-2.96-1.75c-.43-.29-.85-.58-1.25-.89t-.01,0c-2.61-1.94-4.65-4.2-5.6-6.68-.99-2.7-.55-6.25.59-9.77,1.33.15,2.64.34,3.91.55,4.71,2.15,9.69,2.65,15.44.85-1.39-5.27-6.09-8.84-11.09-9.64ZM212.44,694.5c-1.54-11.43-3.11-22.78-4.66-33.76,55.6-1.69,116.45-4.19,172.25-6.98,1.69,9.12,3.34,18.24,5.06,27.36-28.44-1.29-56.77.02-85.11,2.03-29.37,2.32-58.61,5.38-87.54,11.35ZM117.41,507.03c-4.2-22.11-8.41-55.61-3.73-63.97,3.27-5.85,25.44-9.23,47.96-9.69,1.79-.04,3.58-.06,5.37-.06,1.06,0,2.11.01,3.16.02l.17,1.31,1.28,9.69v.14s1.98,15,1.98,15l.46,3.44c-11.02,1.29-19.81,2.61-26.79,4.03-2.56.51-4.29,2.92-3.97,5.51.88,7.08,2.38,17.62,4.37,30.69l-1.37.18-2.39.31c-.26.03-.52.06-.78.09l-.22.03c-.33.04-.66.09-.97.13l-4.55.58-10.42,1.34-9.56,1.23ZM133.42,515.05l5.67-.72,10.1-1.3c2.59,16.69,5.6,35.24,8.75,53.99l.25,1.49c5.97,35.55,17.81,103.94,30.67,166.41.22,1.03.43,2.06.64,3.08.04.18.08.36.12.54.55,2.66,1.1,5.29,1.64,7.89.2.96.67,1.8,1.32,2.46-.7.69-1.39,1.41-2.05,2.15h-.01c-1.01-.16-2.02-.28-3.04-.37h-.02c-1.08-.1-2.16-.16-3.25-.2-1.72-.06-3.47-.06-5.24-.02h-.02c-.32,0-.64.01-.96.02-.41.01-.82.03-1.23.07-.04-.21-.08-.43-.12-.64-.05-.28-.11-.56-.16-.84-.21-1.07-.42-2.16-.63-3.27-11.89-62.03-33.75-177.75-42.43-230.74ZM136.45,783.77c-.11-.03-.21-.07-.32-.11-3.11-2.18-2.77-7.03-2.6-10.52.51-3.41,1.13-8.28,4.55-9.81,3.38-.6,5.71,2.04,6.86,5.21-1.63,2.05-3.08,4.21-4.34,6.44-1.57,2.75-2.95,5.7-4.15,8.79ZM110.27,917.24s-.01-.03-.01-.04c.01.01.01.02.02.03h-.01ZM136.54,922.59c-8.64.16-18.34-.89-25.82-5.2-.19-.14-.36-.27-.52-.39-.03-.08-.06-.16-.08-.26v-.02c-1.85-10.79.16-27.23,5.99-39.48h0c1.29-2.76,2.79-5.29,4.49-7.51,1.52-2.02,3.22-3.78,5.08-5.18,3.42-2.78,7.38-4.24,11.44-4.3,1.25-.03,2.51.08,3.77.32,1.88,3.3,4.07,6.44,6.52,9.35-1.22,0-2.42.13-3.6.39-9.05,1.91-16.63,10.77-15.99,20.42,5.7-2.14,9.52-5.26,13.89-8.6,1.79-1.46,3.46-2.82,5.07-4.23,1.43-1.26,2.82-2.58,4.22-4.08,1.03,1.04,2.1,2.05,3.21,3,.03.03.05.05.08.07.05.06.09.1.14.14,1.54,1.32,3.15,2.57,4.82,3.74,6.77,20.22,4.79,41.07-22.71,41.82ZM149.52,847.26c-6.63-17.63-7.89-43-.07-61.28,1.07-2.51,2.31-4.89,3.74-7.09.04-.06.07-.11.11-.17,2.04-3.21,4.51-6.07,7.31-8.52,2.6-2.28,5.5-4.21,8.62-5.72,1.62,8.38,2.91,14.98,3.76,19.29-1.15.16-2.24.32-3.26.46l-4.71.67c-1.33.19-2.52.9-3.32,1.98-.79,1.07-1.12,2.42-.92,3.74.78,5.01,6.73,41.9,15.37,62.05,1.99,4.64,4.12,8.39,6.36,10.66,3.38,3.42,9.17,5.54,17.95,6.51,1.49.17,3.06.3,4.72.4.4,1.02.88,2.01,1.45,2.97,1.72,2.91,4.16,5.43,6.94,7.07.46.29.93.57,1.41.83-25.63.97-54.81-10.07-65.46-33.85ZM226.08,879.89c-1.91.36-3.86.64-5.85.84-2.67-2.75-4.83-5.9-6.13-9.32-.25-.63-.46-1.28-.64-1.93-.19-.73-.31-1.4-.38-2.02-.16-1.36-.06-2.47.27-3.36.99-2.78,4.07-3.35,7.71-2.43h.01c2.45.61,5.13,1.89,7.61,3.62,1.73,1.21,3.36,2.63,4.72,4.21,2.05,2.34,3.51,5,3.87,7.73-3.7,1.03-7.45,1.9-11.19,2.66ZM279.96,854.3c-.28.26-.57.53-.86.8-.93.85-1.88,1.69-2.84,2.5-4.43,3.8-9.24,7.05-14.31,9.83-7.15,3.93-14.81,6.92-22.67,9.22.71-2.08.77-4.45.41-6.56-.06-.37-.14-.74-.23-1.11,9.56-.97,16.48-2.06,16.82-2.12,2.7-.42,4.55-2.93,4.17-5.63-.25-1.79-.6-4.26-1-7.12,3.58-.05,7.28-.1,11.1-.17.01,0,.02,0,.03-.01,0,0,.01.01.02,0,0,0,.01.01.02,0,2.6-.04,5.24-.1,7.93-.16.35,0,.7-.01,1.05-.02.32-.01.63-.01.95-.02-.19.2-.39.38-.59.57ZM325.84,888.23c-.81,2.1-1.57,3.91-2.85,5.51l-.02.02c-.11.08-.43.28-.8.46-9.93,3.92-23.44,3.77-32.2-2.46-.21-.15-.41-.31-.61-.47-4.5-3.61-8.23-9.78-7.99-15.52.38-3.95,2.61-7.02,5.35-9.76.21-.21.42-.42.64-.63,2.05-1.98,4.32-3.81,6.29-5.7-.6.28-1.19.56-1.78.84l2.16-2.04c-.13.39-.26.79-.38,1.2.56-.86,1.13-1.67,1.69-2.44h0s4.28-4.04,4.28-4.04c.96-.03,1.92-.07,2.89-.1h.12c4.63-.15,9.26-.32,13.82-.5,1.73-.07,3.44-.14,5.14-.21.45-.02.92-.04,1.41-.06.03.02.06.04.09.06,1.15.8,2.42,1.65,3.22,2.83,5.63,8.38,2.71,23.88-.48,33.01ZM577.56,854.92c-6.64,6.47-19.17,13.54-28.54,11.25-2.73-.94-4.77-3.15-6.27-5.99-3.34-6.26-4.11-15.6-4.12-21.33.15-4.12.16-8.27,2.06-11.85,2.16-3.44,5.65-5.1,9.49-5.89.15.1.31.19.47.27.51.29,1.02.57,1.53.83,1.76.94,3.54,1.8,5.27,2.58,3.24,1.63,6.69,3.09,10.2,4.24.04.02.09.03.13.05-.03.04-.06.08-.09.12-.36.51-.71,1-1.06,1.5-3.93,6.19-6.88,12.22-7.16,19.73-.03.52-.04,1.05-.03,1.58,8.64-2.4,14.37-10.36,14.74-19.08.01-.71-.02-1.42-.09-2.13.09.02.17.04.25.05,2.16.46,4.34.81,6.52,1.04,1.74,2.61,2.83,5.55,2.83,8.8.06,5.46-2.07,10.38-6.13,14.23ZM573.46,807.94c1.66-.52,3.32-1.04,4.97-1.55t.02-.01c2.32-.72,4.63-1.44,6.93-2.16.07.44.17.87.28,1.3.31,1.24.72,2.44,1.24,3.57.4.88.88,1.75,1.44,2.58-5.6-.18-10.41-1.36-14.88-3.73ZM607.75,809.94c-5.09,1.23-10.27,1.87-15.56,1.83-1.59-6.47.23-13.91,3.92-18.95,5.26-6.82,9.69-1.07,11.3,5,.97,3.93,1.19,8.07.34,12.12ZM628.22,801.53c-3.77,2.53-7.79,4.27-12.11,5.84-1.26.47-2.52.9-3.79,1.3,2.34-4.1,3.23-9.17,2.7-13.91,10.39-3.39,20.2-6.67,29.32-9.82-4.38,6.39-9.51,12.13-16.12,16.59ZM652.27,771.57c-3.01,1.07-6.11,2.15-9.3,3.26-9.72,3.37-20.25,6.9-31.47,10.56-2.92-3.82-7.53-6.38-12.52-5.54-2.76.52-5.12,1.7-7.06,3.33h0c-3.13,2.6-5.2,6.36-6.22,10.45-4.88,1.54-9.82,3.08-14.79,4.62-12.72,3.93-25.66,7.83-38.31,11.57-3.06.91-6.1,1.8-9.12,2.68h-.01c-23.62,6.91-45.8,13.08-63.13,17.53-23.02,5.87-86.98,10.24-139.16,12.37-1.54.06-3.09.13-4.65.19-.01,0-.02-.01-.03,0-1.54-.24-3.05-.31-4.5-.22-1.17.06-2.31.24-3.42.52-2.12.08-4.26.15-6.39.22h-.12c-7.46.26-14.79.46-21.85.62-7.77.19-15.21.32-22.14.39h-.01c-.04-.33-.09-.65-.13-.97l-.29-2.07c-.07-.52-.14-1.03-.22-1.56l-.1-.71s-.01-.1-.02-.15c-.05-.42-.12-.85-.18-1.29l-.1-.73c-.06-.45-.12-.9-.19-1.37l-.91-6.56s-.01-.08-.02-.11l-.13-.92c4.56-.02,9.4-.07,14.43-.14h.26c.62,0,1.23,0,1.79-.02h.12c39.43-.44,85.65-2.59,123.61-5.76.65-.05,1.3-.11,1.94-.17.88-.07,1.76-.15,2.63-.22,26.72-2.22,45.66-4.64,56.32-7.22.05-.01.1-.02.14-.03.02,0,.04-.01.06-.02h.03s.04,0,.06,0c.05-.02.1-.03.15-.04,18.95-4.79,66.57-17.92,116.58-33.55,4.34-1.36,8.69-2.73,13.05-4.13h.01c12.28-3.91,24.56-7.94,36.46-12.01,1.32,1.82,2.79,3.54,4.42,5.03,2.39,2.21,5.16,3.93,8.41,4.76,2.17.47,4.31.51,6.37.21,3.75-.53,7.3-2.16,10.48-4.37-.28.53-.55,1.05-.83,1.58ZM655.11,766.1c-4.76,2.24-9.94,3.86-14.98,2.88-.26-.05-.51-.11-.77-.17-1.49-.42-2.78-1.14-3.91-2.05-1.85-1.51-3.29-3.54-4.6-5.63-.08-.14-.17-.28-.25-.42-2.68-4.53-5.35-9.99-7.05-15.61-1.67-5.48-2.43-11.11-1.41-16.19.42-1.93,1.31-3.53,2.52-4.86.02-.02.04-.04.05-.06,5.32-5.72,16.83-6.31,24.11-5.92,2.13.14,4.24.39,6.28.78,5.18.97,9.96,2.82,13.74,5.92,1.25,1.01,2.39,2.16,3.39,3.46,1.23,1.58,2.27,3.37,3.07,5.41-2.87,3.08-5.43,6.41-7.66,9.85-.63.94-1.24,1.89-1.84,2.86-1.06-3.38-3.19-6.34-5.94-8.61-1.46-1.23-3.1-2.25-4.85-3.04-.49-.22-.98-.43-1.49-.61-3.41-1.26-7.14-1.65-10.71-.91.76,1.67,1.7,3.24,2.77,4.71,1.02,1.39,2.15,2.68,3.39,3.89,4.03,3.92,9.12,6.86,14.42,8.63-2.92,5.09-5.58,10.41-8.28,15.69ZM726.57,762.19c-.49,1.14-4.4,7.1-33.16,13.31-10.85,2.35-21.46,3.89-27.19,4.64-.16-.65-.32-1.33-.5-2.04.89-1.86,1.77-3.73,2.62-5.6,2.83-6.16,5.49-12.38,8.23-18.53,0,0,0-.02.01-.03,0,.01,0,.02.01.03.27.96.61,1.94,1.02,2.93.59,1.66,1.42,3.35,2.63,4.64,2.37,2.68,5.89,4.53,9.92,5.64h.01c9.46,2.61,21.74,1.18,28.49-2.89,3.12-2.17,4.18-5.27,5.25-8.28,2.28-7.64,2.41-15.97-.91-23.35-2.37-5.14-6.99-9.51-12.39-11.34-.81-.28-1.64-.49-2.47-.64.74-.2,1.5-.37,2.26-.52,3.53-.66,7.25-.75,11.14-.18.39,1.66.78,3.3,1.14,4.93v.08c.48,2.12.94,4.21,1.37,6.25h0c2.96,14.41,4.42,26.58,2.52,30.95Z"/>
      <path class="cls-1" d="M811.06,561.3c-2.65-.64-5.29-1.32-7.92-2.01-.57-.15-1.14-.3-1.71-.45,3.51-1.97,8.1-4.53,8.88-4.86.31,2.17.56,4.96.75,7.32Z"/>
      <path class="cls-1" d="M1061.88,505.92c-17.31,23.83-46.98,40.68-73.47,50.8-14.71,5.62-29.93,9.83-45.49,12.35-15.52,2.44-31.27,3.17-46.97,3.21-23.79-.1-47.52-2.92-70.75-7.77-.3-2.58-.84-6.93-1.42-10.44,23.73,5.3,47.95,8.4,72.27,8.74,2,.03,4,.04,6,.04,13.21,0,26.45-.59,39.53-2.44,29.94-4.6,59.44-14.54,85.19-30.59,11.64-7.22,22.4-16.15,30.68-26.57,1.59.8,3.15,1.7,4.43,2.67Z"/>
      <path class="cls-1" d="M1083.54,426.68c-19.72-20.96-46.28-34.55-73.98-41.43-7.8-1.88-16.04-2.8-24.02-3.05-2.26-.08-4.51-.11-6.76-.11-15.82,0-31.5,1.75-47.11,3.89-52.86,7.02-104.25,21.73-157.52,21.91-17.79-.34-33.57-3.08-48.08-13.85-3.76-2.83-6.88-5.93-9.44-9.26,30.31,15.73,67.36,11.97,100.03,6.4,45.81-7.96,89.8-23.1,136.48-25.29-2.56-.38-5.13-.71-7.72-1.04-7.78-.73-15.6-.96-23.42-.72-51.65,1.81-101.29,19.79-152.43,24-18.26,1.45-36.98.47-54.41-5.38-5.65-8.24-8.06-17.74-8.08-27.79,25.73,21.48,64.97,17.21,96.05,12.89,33.58-5.11,65.86-13.32,99.7-16.68-2.1-.31-4.21-.54-6.33-.81-6.21-.55-12.95-.88-19.16-.79-25.41.29-50.8,4.64-75.7,8.39-30.79,4.24-65.99,10.89-94.55-3.93.07-6.15,1.02-12.49,2.67-18.87,17.64,22.1,81.47,13.66,105.15,10.32,12.23-1.81,24.34-3.91,36.61-6.34-12.35-1.78-24.86-1.75-37.28-1.5-24.47.52-48.92,3.29-73.25,3-10.1-.43-22.37-.64-30.86-6.88,1.52-5.57,3.55-11.15,5.97-16.65,22.46,27.12,73.1,17.63,103.38,11.84-33.42-8.4-72.06,3.48-102.79-13.16,9.95-22,25.95-42.45,39.85-54.53,52.83-46.94,117.25-80.4,184.86-100.47,40.35-11.75,82.39-17.9,124.44-17.9,11.14,0,22.29.43,33.4,1.31-13.94-1.43-27.91-2.12-41.87-2.12-97.34,0-193.87,33.83-273.19,89.87-18.15,13.19-36.02,27.01-50.39,44.47-5.69,7.02-10.82,14.47-15.44,22.24-13.47,23.25-24.58,52.49-14.11,79.02,6.77,16.73,22.42,28.05,39.11,33.52,11.78,3.42,23.96,4.63,36.24,4.63,16.14,0,32.44-2.1,48.12-4.03,11.49-1.57,22.89-3.42,34.26-5.37,10.31,20.24-2.36,35.36-23.09,42.73-12.62,4.35-25.91,6.21-39.24,6.21-12.16,0-24.37-1.54-36.14-4.15-24.97-5.86-47.99-17.23-71.23-27.84-21.15-9.97-43.99-16.35-67.53-16.62-.75-.05-1.59-.07-2.46-.07-1.8,0-3.73.08-5.33.09-2.15.09-5.71,0-7.77.23-44.04,2.7-86.18,17.43-126.53,34.28-18.96,8.1-37.57,16.83-55.82,26.63-1.29.69-2.05,2.16-1.77,3.68l24.85,136.02c.31,2.02,2.19,3.34,4.08,3.34.78,0,1.55-.22,2.23-.7l.61-.4.68-.41c6.5-4.01,14.79-8.18,21.66-11.38,23.92-11.05,49.11-19.26,74.71-25.5,21.19-4.99,43.36-8.95,65.04-11.19,8.42-.91,17.3-1.95,25.79-1.95h.31l6.49-.03c2.49.11,7.15.42,9.71.52,7.53.76,15.07,1.7,22.46,3.35,1.34.26,3.37.73,4.78,1.01,5.53,1.33,11.86,3.18,17.29,4.81,20.67,6.73,40.82,15.37,61.29,23.18,2.22-1.89,5.49-2.72,8.57-2.72,1.83,0,3.6.3,5.04.83.03-.36.04-1.81.03-3.34-29.38-10.63-57.89-24.08-88.42-31.56-9.93-2.42-20.12-3.95-30.3-4.86-2.33-.14-7.78-.34-10.24-.49l-6.83.05c-8.86.03-18.24,1.15-27,2.14-7.96.73-18.5,2.47-26.6,3.65-32.05,5.29-63.68,13.45-94.01,25.17-13.47,5.35-27.14,11.46-39.71,18.71-.22.14-.47.28-.73.44l-5.17-27.08c55.54-23.08,113.01-43.21,172.78-51.07,6.68-.76,13.43-1.12,20.19-1.12,8.4,0,16.81.56,25.09,1.61,37.44,4.88,72.48,18.41,108.55,29.55,1-2.75,2.6-6.12,4.58-8.99-14.56-4.36-29.04-9.06-43.56-13.6-29.28-9.1-59.75-16.91-90.61-16.91-4.46,0-8.94.17-13.41.51-7.59.49-15.99,1.72-23.38,3.14-55.75,10.49-109.64,31.4-160.29,56.59l-7.12-37.3c23.36-13.53,47.97-25.04,73.2-34.56,23.06-8.68,46.9-15.52,71.27-19.27,11.19-1.68,22.48-2.63,33.8-2.9,3.09-.07,6.17-.1,9.26-.06.79,0,1.58.01,2.37.03,1.14.01,2.27.04,3.41.08.34,0,.67.01,1.01.03,1.17.03,2.33.07,3.5.13,1.43.06,2.86.13,4.29.22,3.95.23,7.89.54,11.83.94,3.49.34,6.98.74,10.46,1.22,4.73.62,9.45,1.37,14.15,2.22,49.09,8.32,94.31,29.86,141.61,44.69,13.99,4.14,28.42,7.34,43.18,7.39,14.57-.14,28.99-2.92,43.17-6.09,51.92-12.14,102.49-43.83,84.53-104.55-3.59-12.05-9.12-23.35-15.65-34.02,7.13.07,14.23.57,21.27,1.74,22.59,4.57,44.51,14.11,62.54,28.53,3.97,7.86,7.05,16.14,8.75,24.78,3.74,18.47-.53,35.05-9.46,49.28,1.64.86,2.99,1.79,4.01,2.57,6.86-11.98,10.57-25.54,9.5-40.69-1.04-12.41-5.45-24.23-11.61-34.98,4.11,3.36,8.01,6.99,11.67,10.88,38.88,41.38,34.97,98.14-11.13,132-30.61,23.08-69.74,30.52-106.87,36.59-21.44,3.3-43.22,5.21-64.96,5.21-24.24,0-48.44-2.38-72.08-7.86-1.91,1.29-4.46,2.48-6.64,3.42-.82.36-1.69.52-2.59.52-3.27,0-6.89-2.14-9.76-4.81-1.37-1.28-2.17-3.09-2.63-4.85-2.82-.85-5.62-1.74-8.41-2.67-.45,3.09-1.49,6.89-2.26,9.45,6.65,2.2,13.37,4.21,20.17,5.95,27.72,7.5,56.36,10.74,85.02,10.74,16.38,0,32.76-1.05,48.99-2.98,1.84-.22,15.33-2.12,16.66-2.25,2.32-.35,7.5-1.32,9.94-1.69,17.76-3.12,35.42-6.51,52.59-12.2,30.26-10.04,59.94-27.36,76.98-55.18,23.71-38.05,13.93-84.63-16.03-115.94ZM992.85,425.85c11.77,48.93-20.28,76.7-63.48,90.34-13.3,4.22-27.05,7.04-40.89,8.93-13.62,2.14-27.31,2.12-40.88-.81-13.64-2.81-27-7.12-40.16-11.86-40.14-14.82-80.1-31.07-122.79-38.05-5.89-.96-11.81-1.77-17.74-2.41-3.46-.37-6.93-.69-10.4-.94-3.88-.29-7.76-.5-11.64-.63-1.48-.06-2.95-.1-4.43-.12-3.41-.07-6.81-.08-10.22-.02-3.06.05-6.13.15-9.19.3-11.17.56-22.29,1.81-33.3,3.83-50.12,9.23-100.97,32.43-143.3,60.92l-6.36-33.3c42.07-21.18,85.97-39.01,131.77-50.07,2.15-.6,6.72-1.53,8.79-1.93,3.5-.66,9.65-2.03,13.25-2.5,2.18-.34,6.71-1.02,8.87-1.36,1.55-.22,2.74-.48,4.41-.62,3.78-.37,7.59-.54,11.42-.54,31.27,0,63.53,11.45,93.17,20.64,40.51,12.9,82.06,26.24,124.94,28.8,2.67.14,5.43.25,8.21.3,1.44-.84,3.92-1.81,7.66-1.81,1.27,0,2.69.11,4.26.38.71-3.21.84-4.84,1-6.83-2.42.19-4.84.29-7.26.3-6.73,0-15.49-.91-22.19-1.58-51.19-6.01-99.15-25.82-148.63-39.63-17.89-4.89-36.12-9.01-54.77-9.59-1.23-.04-2.47-.06-3.72-.06-5.45,0-10.99.38-16.35,1.09-3.78.66-8.71,1.5-12.52,2.17-3.35.48-10.02,2.21-13.51,2.97-49.14,12.17-95.82,33.22-138.87,59.53l-5.5-28.81c17.14-9.28,34.87-17.77,52.71-25.64,43.59-18.76,89.66-35.22,137.56-35.73h.2c24.47,0,45.49,5.36,67.76,15.37,28.08,12.38,56.59,26.05,87.49,29.41,6.26.65,12.77,1.05,19.35,1.05,19.49,0,39.59-3.49,55.46-14.21,13.6-9.61,16.29-23.16,9.05-36.72,18.71-3.21,37.31-6.69,55.99-9.56,5.39,8.94,9.14,18.99,9.17,29.43.28,22.88-16.95,41.32-36.65,50.88.23,1.78.5,4.27.76,6.79,16.48-8.32,30.25-21.41,36.35-39.2,5.71-16.68.9-34.19-9.12-47.97,0,0,0-.01-.01-.01,13.44-2.05,26.92-3.79,40.52-4.89,6.33-.45,12.66-.77,18.97-.77.46,0,.92,0,1.38.01,5.73,11.05,10.53,22.65,13.41,34.73Z"/>
      <path class="cls-1" d="M881.58,485.45c-5.59,1.23-8.94,3.57-10.69,6.11-2.56.65-5.13,1.21-7.71,1.66.49-2.8.76-5.71.91-7.73,5.86-.95,11.65-2.43,17.24-4.44.17,2.27.19,2.87.25,4.4Z"/>
      <path class="cls-1" d="M1013.65,65.13c-83.55,11.35-168.04,30.88-238.96,78.12-27.69,18.76-52.91,41.69-72.42,68.99l-2.13,2.9-1.98,3-3.96,6.01c-.97,1.65-4.57,7.54-5.57,9.24-.87,1.53-1.72,3.07-2.55,4.62-1.55-2.09-2.96-3.91-4.15-5.35,6.36-12.98,14.03-25.33,22.69-36.81.83-1.07,2.54-3.45,3.33-4.46.61-.8,5.17-6.2,5.93-7.14,1.26-1.65,3.48-3.99,4.91-5.56,2.93-3.22,7.15-7.78,10.28-10.71,4.86-4.93,11.19-10.57,16.4-15.06,5.39-4.33,11.94-9.65,17.62-13.58,3.44-2.64,8.58-5.97,12.26-8.34l6.22-4.03,6.4-3.74c25.54-14.93,52.92-26.54,81.17-35.14l7.04-2.18,3.52-1.08c4.83-1.23,16.52-4.37,21.39-5.46,5.21-1.16,12.74-2.76,17.95-3.91,5.73-1.13,16.05-2.75,21.7-3.78,24.13-3.66,48.52-5.78,72.91-6.55Z"/>
      <path class="cls-1" d="M679.31,251.62c-5.69,12.43-10.29,25.41-13.41,38.63-1.71,6.85-2.95,14.49-3.86,21.51.11-7.16.64-14.89,1.75-21.91,2.18-14.69,6.22-29.06,11.75-42.85,1.17,1.41,2.44,2.97,3.77,4.62Z"/>
      <path class="cls-1" d="M919.21,49.01c-32.61,4.91-64.62,12.41-95.33,24.35-8.02,3.14-15.97,6.6-23.8,10.36.65-2.07,1.01-4.17,1.01-6.19v-.13c0-1.21-.13-2.38-.4-3.51,18.45-7.81,37.57-13.77,56.74-17.71,3.11-.58,9.05-1.95,12.25-2.43,3.49-.43,14.91-2.38,18.52-2.62,10.21-1.18,20.77-1.81,31.01-2.12Z"/>
      <path class="cls-1" d="M740.75,120.3c5-6.07,5.67-10.89,4.85-16,6.35-4.45,12.9-8.65,19.6-12.58,1.63,3.07,3.76,5.41,7.16,6.94-10.96,6.58-21.54,13.8-31.61,21.64Z"/>
      <path class="cls-1" d="M728.2,130.62c-31.67,27.55-57.15,61.71-71.42,101.66-1.27,3.36-2.58,8.25-3.66,11.66l-1.43,5.95-.71,2.98c-2.22,11.08-3.34,22.34-2.88,33.66-1.95-11.23-1.98-22.88-.69-34.25.29-1.8,1.11-7.4,1.43-9.31,9.21-44.09,32.95-82.21,64.88-112.63,2.26.97,4.88,1.66,7.71,1.66,2.15,0,4.43-.4,6.77-1.38Z"/>
      <path class="cls-1" d="M840.96,32.46c-16.85,4.49-33.55,9.75-49.76,16.17-.7-1.82-1.41-3.6-2.12-5.31,16.93-5.25,34.39-8.87,51.88-10.86Z"/>
      <path class="cls-1" d="M777.08,54.59c-5.14,2.31-10.22,4.75-15.22,7.34-7.22,3.56-14.29,7.48-21.18,11.74-.56-3.73-1.08-7.05-1.49-9.41,6.31-3.46,12.74-6.6,19.28-9.39,5.13-2.31,10.35-4.45,15.64-6.43,1.1,1.76,2.07,3.86,2.97,6.15Z"/>
      <path class="cls-1" d="M633.21,260.63c-15.42-75.05,29.16-146.95,91.09-187.43,1.32,3.03,2.59,6.04,3.66,8.85-57.93,40.69-99.65,105.68-94.75,178.58Z"/>
      <path class="cls-1" d="M1069.74,104c-100.12,4.84-213.61,22.44-295.58,83.68-29.53,22.12-51.9,48.91-67.58,79.62-1.19-1.65-2.53-3.57-3.97-5.65,5.84-12.6,12.9-24.63,21.19-35.79,68.56-92.68,201.12-122.65,314.2-122.65,10.78,0,21.39.27,31.74.79Z"/>
      <path class="cls-1" d="M699.15,278.73c-1.28.36-2.65.78-4.05,1.29.6-1.68,1.22-3.35,1.86-5.02,1.09,1.66,1.87,2.95,2.19,3.73Z"/>
      <path class="cls-1" d="M688.57,314.23c-2.63,9.67-4.75,19.62-6.36,29.84.58-10.3,1.85-20.59,3.81-30.76.72.36,1.47.65,2.28.85.09.03.18.05.27.07Z"/>
    </g>
    <g id="Notes">
      <path class="cls-1" d="M1071.89,525.86c-1.79,2.5-4.07,4.98-7.14,6.04-3.39,1.32-7.46-1.11-8.23-4.59-1.65-7.4,3.82-16.39,10.36-19.57-7.57-6.42-17.24-9.24-26.1-13.39-3.01-1.38-6.04-2.78-8.94-4.71-.78-.51-1-1.57-.48-2.35.28-.42.7-.65,1.16-.75,1.29-.34,2.57-.71,3.67-1.35,5.47-2.72,5.48-9.75,9.53-13.87,3.36-4.16,8.77-6.51,14.1-4.83,2.24.57,2.32,3.85.16,4.55-11.61,4.55-3.16,11.87-10.27,19.78,5.91,2.44,11.44,5.42,16.86,8.9,2.87,1.9,5.77,3.99,8.17,6.53,4.48,5.45.57,14.56-2.85,19.61Z"/>
      <path class="cls-1" d="M712.85,296.53c-3.48,9.53-15.64,20.44-25.74,13.4-1.52-1.18-2.76-2.71-3.82-4.31-8.74-13.32,7.3-22.07,18.36-24.78-2.59-8.99-8.4-16.59-13.84-24.04-5.57-7.45-11.61-14.54-17.54-21.8-1.85-2.3-3.8-4.59-5.48-7.11-.39-.63-.97-1.48-1.19-2.5-.35-1.41.77-2.99,2.24-3.03,1.49-.1,2.84,1.09,3.8,1.91,3.64,3.34,6.57,6.92,9.69,10.62,11.79,14.76,23.12,29.79,32.31,46.35,2.79,4.68,3.2,10.29,1.21,15.29Z"/>
      <path class="cls-1" d="M774.9,97.62c-18.73-6.28-8.34-32.22,7.47-34.58-4.27-15.04-10.67-29.6-17.31-43.74-3.15,1.08-6.27,2.75-9.23,4.6-7.08,4.49-13.59,10.17-19.05,16.53-2.46,2.87-4.85,6.16-6.32,9.61.04.14.09.26.12.36,3.5,11.27,6.31,22.81,8.91,34.32,1.29,5.96,2.49,11.93,3.26,18.05.28,2.55.61,5.18.25,7.78-.07.67-.35,1.45-.68,2.05-3.33,5.44-8.17,9.6-13.47,13.01-5.11,3.26-13.1,5.99-17.95.79-4.66-4.95-4.88-12.47-.26-17.45,5.07-5.64,14.26-9.75,22.18-9.75h.08c.98-.03,1.86.03,2.63.17-1.89-10.16-4.94-20.05-8.43-29.76-3.39-9.95-8.12-19.55-11.68-29.36,2.7-10.83,10.24-19.43,18.5-26.47,8.37-6.9,18.47-11.99,29.41-13.75.78-.13,1.52.25,1.89.9,9.94,16.91,18.22,34.61,25.7,52.72,2.66,6.97,5.69,13.98,6.7,21.49.64,11-10.77,25.53-22.72,22.48Z"/>
      <path class="cls-1" d="M890.42,491.39c-.04,1.55.02,2.92-.55,4.97-2.18,5.91-11.05,9.59-16.27,5.52-4.79-3.89-3.02-9.92,1.69-12.79,2.17-1.36,4.67-2.15,7.2-2.02.2-5.63-.32-11.37-1-16.96-3.04.02-6.27.76-9.17,1.63-3.11.97-6.81,2.37-9.3,4.39-.07,2.41-.32,4.94-.54,7.31-.61,5.55-1.09,10.89-2.66,16.35-.29.86-.47,1.5-1.09,2.34-.3.39-.73.69-1.13.95-4.16,2.23-9.03,3.69-13.73,2.42-3.25-.88-4.79-5.11-2.98-7.92,2.87-4.01,10.42-3.95,14.86-2.21.05.02.1.04.15.06.26.1.51.21.74.33.61-4.33.63-8.7.44-13.04-.22-4.34-.63-8.67-1.09-13.01-.03-.27.05-.52.2-.72,6.13-7.88,19.26-10.88,28.79-9.18.75.13,1.31.71,1.47,1.41,2.34,10,3.75,19.94,3.97,30.17Z"/>
      <path class="cls-1" d="M825.32,587.83c-.88,6.41-7.33,12.45-13.96,12.64-5.78.16-10.1-6.07-8.82-11.49,1.35-6.16,7.29-11.51,13.65-11.5-.28-9.27-1.72-18.61-3.33-27.76-1.68.22-3.44.68-5.16,1.26-6.65,2.4-13.89,6.13-18.41,11.63.32,7.37.18,14.78-.07,22.15-.35,5.54-.34,11.29-1.92,16.69-.93,2.35-3.3,3.6-5.28,4.9-4.26,2.37-9.65,4.86-14.51,2.68-4.84-2.69-4.56-10.53-.15-13.44,4.1-2.9,10.06-3.96,14.98-2.63.06,0,.12.03.19.05.54.13,1.02.29,1.43.49.63-13.14-1.4-26.12-3.4-39.06-.04-.23,0-.46.1-.66,1.56-3.23,3.93-5.79,6.48-8.03,7.84-6.65,17.98-10.66,28.46-9.79.8.07,1.42.63,1.62,1.36,2.28,7.98,3.92,15.97,5.38,24.05,1.06,6.07,2.02,12.18,2.59,18.34.19,2.61.44,5.39.13,8.12Z"/>
    </g>
  </g>
</svg>