<?xml version="1.0" encoding="UTF-8"?>
<svg id="Calque_2" data-name="Calque 2" xmlns="http://www.w3.org/2000/svg" viewBox="0 0 622.24 992.89">
  <defs>
    <style>
      .cls-1 {
        fill: #000;
      }

      .cls-1, .cls-2, .cls-3 {
        stroke-width: 0px;
      }

      .cls-2 {
        fill: #d2a6a5;
      }

      .cls-3 {
        fill: #bedacf;
      }
    </style>
  </defs>
  <g id="ILLU_PROFIL">
    <g id="FondCouleur">
      <path class="cls-2" d="M244.09,454.6v-.02c-1.27-2.07-2.6-3.97-4-5.68-10.19,8.19-19.84,15.93-36.05,16.61-1.34.06-2.65.06-3.93.03,1.82,1.01,3.73,1.92,5.74,2.7,15.05,5.7,27.53,2.55,39.46-3.72,1.07-.56,2.14-1.15,3.21-1.77-1.44-2.98-2.9-5.68-4.43-8.15ZM138.14,436.32c-2.01,2.68-4.46,4.97-6.9,7.42-3.77,3.45-7.56,7.01-11.99,9.54,4.38-2.57,7.8-6.55,10.84-10.55,1.57-2.19,2.99-4.49,4.11-6.87.07-.17.14-.33.22-.5-1.56-.33-3.16-.59-4.82-.75-4.41-.44-11.73,8.15-18.81,19.74,1.98.21,3.95.17,5.74-.14-1.8.36-3.84.53-5.95.48-10.35,17.06-20.13,40.44-19.42,51.28,1.2,18.33,5.3,23.04,4.18,36.35-2.97,35.23-47.65,44.88-45.59,76.43,1.06,16.28,23.72,11.32,28.01,30.92,1.58,7.2-6.84,8.56-8.62,17.93-2.34,12.31,7.29,18.19,12.94,22.64-16.42,9.97-6.82,23.79,6.8,38.35,5.77,20.77-7.3,34.93,2.76,53.24,3.01,5.48,10.29,9.43,20,11.87-9.82-11.95-7.05-29.01-4.62-43.07.45-3.12.97-6.15.76-9.08-.64-4.7-3.71-8.7-6.72-12.47-3.4-4.39-8.48-8.97-8.93-14.97-.64-6.7.18-13.02,4.19-17.55-7.05-7.32-13.03-18.45-8.52-27.54,1.65-3.5,5.16-5.54,5.64-8.89.15-.56.24-1.34.33-1.91.01-.53.11-1.2.04-1.72-.32-5.47-6-7.65-10.34-10.3-6.79-3.57-14.37-8.99-15.85-17.29-1.1-5.54-.16-10.74,1.62-15.9,2.73-6.95,7.69-12.65,12.35-17.98,11.7-13.58,29.82-28.74,31.67-47.14.5-6.5-2.34-11.85-3.28-18.83-1.46-9.48-.97-19.06,1.39-28.3,4.75-17.89,13.88-34.2,24.62-49.08,3.25-4.19,6.31-8.59,10.53-11.94-2.66-1.35-5.44-2.52-8.38-3.42ZM170.88,602.68c-3.04-1-8.05-2.01-13.49-2.48-10-.89-21.43.03-24.55,6.1-1.25,2.99-1.48,6.86-.95,11,.1.77.23,1.55.38,2.33,1.33,6.9,4.61,14.2,8.73,19.15,1.64,1.96,3.4,3.56,5.23,4.61,2.36,1.38,4.72,2.27,7.03,2.7,1.55.29,3.09.37,4.58.25,3.95-.31,7.66-1.97,10.87-4.79,1.22-1.56,2.41-3.12,3.59-4.7-2.95.92-5.79.81-8.52.28-4.95-1.13-9.4-3.83-12.59-7.61-2.51-2.96-4.24-6.58-4.85-10.62,3.42.55,6.46,1.58,9.27,2.97,4.23,2.07,7.94,4.94,11.65,8.19,1.8,1.74,3.65,3.55,5.51,6.16,1.15-1.54,2.27-3.09,3.36-4.67.01,0,.01-.01.01-.01,5.34-10.26,7.92-24.97-5.26-28.86ZM281.78,522.98c-.31-1.1-1.06-1.85-1.66-1.97-4.22-.19-10.79,7.06-13.15,10.38-1.37,2.05-3.09,5.07.34,6.08,2.34.6,4.81.04,7-1.1.01-.01.03-.01.04-.03,2.18-1.48,4.5-3.62,6.18-6.05.02-.02.03-.04.04-.06,1.23-2.25,1.86-4.83,1.21-7.25ZM121.11,677.63c-.15-.25-.34-.48-.56-.69-2.91-2.91-9.37-1.17-14.43,3.88-2.11,2.11-3.65,4.47-4.5,6.71,1.67,2.06,3.56,3.9,5.47,5.31,1.13.82,1.82,2.03,2.01,3.32,2.49-.77,5.18-2.41,7.56-4.79.97-.97,1.82-2,2.53-3.04,2.76-3.98,3.57-8.2,1.92-10.7ZM123.82,602.19c3.5-7.26,10.39-10.44,18.19-11.12-12.49-3.33-29.34-3.82-34.96,4.94-7.15,11.13,3.66,36.49,16.63,42.16,4.6,2.02,8.66,2.57,12.24,2.09-10.21-9.4-17.09-26.16-12.1-38.07ZM139.22,501.47c1.24-4.9,4.69-8.88,9.04-11.32-.15-.14-.3-.27-.45-.4h0c-4.18-3.63-9.08-5.95-15.75-3.73-18.46,6.11-8.96,31.02-4.37,34.59,2.74,2.13,9.37,4.45,16.49,5.66-4.74-7.13-7.26-16.17-4.96-24.8ZM152.64,680.06c-.1-.52-.19-1.05-.24-1.58-1.23,2.81-2.25,5.71-3.08,8.67,2.52.7,5.16,1.15,7.74,1.38-2.2-2.25-3.79-5.07-4.42-8.47ZM148.48,752.55c1.86-6.27,5.83-9.49,10.69-10.98-1.57-1.13-3.06-2.38-4.47-3.72-.4.1-.79.2-1.16.31-1.1.31-2.07.65-2.86.92-2.36-.19-4.82-.48-7.23-.52h-.01c-5.36-.11-10.48,1.01-13.71,7-8.11,15.05,12.73,25.64,17.77,25.23,1.39-.11,3.34-.7,5.55-1.64-4.34-4.31-6.63-10.22-4.57-16.6ZM159.84,646.99c-3.32.98-6.93,1.12-10.74.32-.35.16-.7.34-1.03.52-1.97,1.09-3.58,2.47-4.7,3.63-2.28,2.36-4.4,5.22-6.02,8.3-3.38,6.43-4.57,13.84-.41,19.71,2.79.06,5.2.96,6.59,2.71,1.05-3.9,2.78-7.69,4.55-11.3,1.8-3.46,3.83-6.78,6.02-10.01.36-.53.72-1.06,1.09-1.58,2.49-3.59,5.16-7.08,7.87-10.54,1.67-2.14,3.36-4.27,5.03-6.41-2.49,2.2-5.26,3.77-8.25,4.65ZM165.68,749.93c-2.11-.19-4.15-.21-6.09.25-5.11,1.35-8.58,7.77-7.26,12.95.44,1.78,1.32,3.55,2.49,5.21,4.23-2.03,9.08-5.14,12.81-8.59-3.3-2.58-3.74-6.83-1.95-9.82ZM167.81,738.89c-2.55-1.65-5.52-2.04-8.36-1.83,1.47,1.33,3.07,2.52,4.8,3.56,1.8-.16,3.67-.17,5.54-.08-.62-.66-1.28-1.2-1.98-1.65ZM184.96,539.45c-.76-2.07-1.54-4.14-2.42-6.18-3.12.91-6.79,1.32-10.59,1.36.6.82,1.23,1.57,1.9,2.26,3.15,3.29,7.05,5.06,11.68,4.34-.19-.6-.38-1.19-.57-1.78ZM179.31,489.81c1.02,5.37,2.52,10.66,4.21,15.81h0c.18.14.36.27.54.41,1.89-5.82,6.62-10.7,12.31-12.98.21-.09.42-.18.64-.25-6.11-2.7-12.62-3.99-17.7-2.99ZM194.45,519.73c-.28,3.91-1.9,7.42-4.27,10.46.58,2.78,1.57,5.75,2.97,8.46,9.06-4.19,19.74-12.46,22.21-21.33-6.41,4.89-13.75,5.3-20.91,2.41ZM215.7,511.5c-.59-3.4-2.64-6.76-5.57-9.78-4.35-.94-8.84-.91-12.76,1.26-2.69,1.34-4.8,3.31-6.19,6.06.25.33.49.67.72,1.03.05.09.11.18.16.27.35.55.66,1.12.94,1.72.52,1.08.91,2.22,1.16,3.39,5.72-5.69,15.91-5.26,21.4,1.06.37-1.66.43-3.34.14-5.01ZM199.93,711.94c.16-.56.35-1.11.55-1.65.25-.65.54-1.28.86-1.89,1.58-3.04,3.92-5.61,6.27-7.58,3.36-2.74,7.63-5.15,12.19-6.66-.8-1.09-1.75-2.01-2.88-2.7-9.23-5.66-29.76,3.42-34.15,14.01-4.4,10.58.6,17.57,7.25,21.98.25.17.49.32.74.48.36.23.72.46,1.09.69,4.99,2.99,10.47,5.09,15.33,5.28-1.77-1.29-3.36-2.77-4.7-4.56-3.86-4.99-4.32-11.48-2.55-17.39h0ZM222.86,702.95c-5.71,2.6-11.08,6.66-13.56,11.02-2.92,5.8-2.33,10.99,1.52,15.55-.75-7.43,4.68-14.79,12.01-16.76.36-3.31.42-6.7.03-9.81ZM225.56,785.41c.07-.03.13-.06.2-.09-.19.03-.28.06-.2.09ZM248.53,624.25c.16-.5.35-.98.56-1.46.83-1.91,2.06-3.56,3.57-4.92-1.26-1.69-2.62-3.25-4.25-4.4-2.22-1.58-4.93-2.37-8.48-1.64-14.27,2.94-9.92,22.37-6.92,25.45,2.58,2.64,11.07,6.26,18.38,7.13-3.52-5.23-4.97-12.48-3.26-18.86.11-.44.24-.87.4-1.3ZM260.72,513.96c-.23-.52-.54-1-.94-1.4-2.92-2.9-9.37-1.17-14.43,3.89s-6.81,11.51-3.89,14.43c2.11,2.11,6.08,1.78,10.03-.5,1.51-.86,3-2,4.4-3.39,4.36-4.36,6.25-9.76,4.83-13.03ZM260.6,554.41c-4.27-.29-7.52.66-9.98,2.36-3.34,2.31-5.24,6.01-6.27,9.93-2.24,8.46-2.04,17.8,3.1,22.03,1.44,1.16,3.25,1.95,5.5,2.19,2.08.23,4.64.21,7.37-.07-.19-2.83-.2-5.67-.06-8.51v-.25c0-2.4.27-4.79.7-7.06.01-.08.02-.16.04-.24.18-1.36.41-2.72.66-4.07.04-.22.08-.43.12-.65.95-4.84,2.26-9.64,3.84-14.34-1.71-.75-3.41-1.21-5.02-1.32ZM262.1,627.11s-.03-.02-.03-.02c-.72-.82-1.52-1.56-2.32-2.21-.71.61-1.29,1.34-1.66,2.18-1.98,3.88-1.84,10.23-.69,14.67.52.66,1.21,1.36,2.04,2.06,1.07-.43,1.95-1.06,2.58-1.91,4.78-6.43,3.1-11.33.08-14.77ZM261.35,455.05c-5.05,3.8-10.24,7.67-15.71,10.9,1.66,6.73,4.79,13.15,10.09,17.81,5.77,5.06,11.53,5.9,16.41,5.01-8.24-8.65-11.31-21.71-10.79-33.72ZM271.32,574.5c-.19.74-.36,1.51-.52,2.29-.62,3.58-1.44,8.15-.57,11.94,5.08-1.72,9.46-4.42,11.14-8.19-3.91-.19-7.39-2.32-10.05-6.04ZM277.51,565.55c-.73.34-1.41.76-2,1.24-1.67,1.44-2.7,3.22-3.44,5.23,2.49-1.93,5.52-2.43,8.31-1.8-.76-1.58-1.73-3.16-2.87-4.67ZM296.33,499.59c-2.65,2.66-4.39,5.7-5.01,8.41,2.9-3.93,5.94-7.77,9.02-11.57-1.37.83-2.73,1.89-4.01,3.16ZM310.64,600.62c-.81-1.9-1.72-3.25-2.41-3.67-3.81-2.33-19.87-1.15-22.58,6.68-4.35,12.53,3.8,14.78,7.5,15.57.13.03.24.07.35.09.24.22.48.46.73.69,3.15,3.1,6.51,6.51,11.46,3.44-2.06-2.23-3.16-5.39-3.03-9.33.09-1.89.36-3.75.87-5.58,1.2-3.54,3.82-6.16,7.11-7.89ZM311.21,496.23c-5.08,6.3-10.15,12.63-14.85,19.2,3.16-.04,7.14-1.93,10.52-5.29.57-.58,1.1-1.17,1.59-1.77h0c3.56-4.43,4.72-9.41,2.74-12.14ZM312.13,611.75c-.45.9-1.12,2.51-1.45,3.46-.53,1.49-.72,2.75-.59,3.87,1.55-2.4,2.26-5.11,2.42-7.78-.13.14-.25.29-.38.45ZM323.36,534.82c-2.38-1.99-4.93-3.66-7.8-4.44h0c-2.72-.76-5.73-.7-9.15.64-17.73,6.94-6.86,30.74-2.14,33.98,2.69,1.85,8.9,3.66,15.61,4.52-7.8-10.58-9.22-27.79,3.48-34.7ZM319.07,486.4c-.28.36-.56.71-.84,1.07-.43,4.34-.33,8.67.45,12.57,3.79-2.12,7.88-2.66,11.05-1.86.34-4.64,1.07-9.23,2.1-13.76.11-.47.22-.95.34-1.42,1.45-6.05,3.4-11.98,5.57-17.79-6.5,6.82-12.75,13.86-18.67,21.19ZM325.13,506.55c-.89.83-1.8,1.73-2.69,2.67,1.9,2.62,4.47,4.57,7.82,5.53,1.25-1.56,2.33-3.32,2.97-5.2,0,0,0-.01,0-.02.99-4.92-1.7-8.84-8.11-2.98ZM337.09,653.79c-8.29,3.65-21.41,16.53-17.68,27,2.91,8.14,15.7,14.66,25.48,15.04-6.24-4.39-8.37-10.2-7.54-16.18,0-.03,0-.07,0-.1.94-6.58,5.43-13.37,11.91-18.68.74-.62,1.47-1.18,2.19-1.68-4.03-5.04-9-7.76-14.37-5.4ZM359.52,676.07c-.19-.77-.41-1.55-.65-2.31-.11-.32-.21-.64-.32-.97-.58-1.68-1.23-3.35-1.96-4.95-.35.27-.7.54-1.04.81-2.92,2.5-6.38,5.66-8.64,9.17-.2.32-.4.64-.57.96-2.16,3.77-2.79,7.9.16,12,1.07,1.54,2.45,3.04,4.06,4.42.6-.17,1.17-.39,1.7-.66,3.76-1.89,5.97-4.48,7.09-7.42-.21-.24-.4-.5-.59-.77.4-.61.82-1.17,1.26-1.68.49-2.74.22-5.69-.5-8.6ZM416.84,616.38c-2.62-3.18-9.21-2.06-14.73,2.49-5.52,4.55-7.87,10.81-5.25,13.99,2.62,3.17,9.21,2.06,14.73-2.49,5.52-4.55,7.87-10.82,5.25-13.99ZM417.62,700.37c-.15-.02-.29-.04-.43-.06l-.51-.51c-2.86-2.93-5.82-6.24-9.43-6.75h-.01c-2.45-.34-5.19.62-8.42,3.86-14.34,14.38-5.89,39.11-2.13,41.37,2.36,1.42,8.15,1.34,14.15-.37-2.98-7.74-3.78-16.28-1.35-24.4.08-.31.17-.61.27-.92h0c.74-2.34,1.93-4.73,3.45-6.95,1.3-1.93,2.85-3.73,4.54-5.25-.05-.01-.09-.01-.13-.02ZM437.5,581.28c-.09-.52-.19-1.03-.3-1.55-.99-5.17-2.32-10.2-3.92-14.94-2.84.61-4.87,2.13-6.3,4.05-2.59,3.46-3.26,8.21-3.34,11.41-.19,7.51,1.36,16.44,5.18,22.92,2.42,4.14,5.77,7.29,10.18,8.45.92-9.85.31-20.33-1.5-30.34ZM429,703.38c-.9.01-1.62.41-2.37.97-.15.11-.29.22-.44.34-7.88,6.94-9.85,19.56-7.95,30.23.46,2.54,1.13,4.97,2,7.19.15.32.21.37.07.37.08.06.15.12.23.2.47.26.97.46,1.49.62.37-4.09.89-8.16,1.55-12.2,1.25-7.63,3.04-15.16,5.44-22.5.54-1.64,1.11-3.28,1.71-4.9-.57-.2-1.15-.31-1.73-.32ZM366.45,559.63s-.03-.07-.03-.09c0-.03-.02-.06-.04-.09h-.01s-.6-1.34-.6-1.34c0-.02-.01-.03-.02-.05-1.46-2.69-4.02-4.92-7.57-6.46-2.36-1.08-4.86-1.78-7.45-2.42-.1-.03-.22-.09-.34-.18-1.25,3.47-2.8,5.75-5.19,6.98-1.89.99-4.31,1.31-7.52,1.04-1.49-4.17.28-8.07,3.25-10.08,1.42-.96,3.12-1.48,4.87-1.39-2.91-2.14-5.97-4.06-9.2-4.57-.05,0-.09,0-.14-.02-1.6-.21-3.1-.01-4.58.47-.36.12-.72.26-1.08.41-3.05,1.29-5.65,3.51-6.53,6.59-1.74,5.48.08,14.62,3.84,20.45.42.37.92.74,1.48,1.11,8.3,5.44,30.69,10.14,35.66,1.05,2.08-4.11,2.43-8.05,1.2-11.41ZM366.54,473.66c-.46,0-.91.03-1.36.06h-.01c-8.45.51-15.3,4.43-18.11,12.05-.1.27-.2.54-.28.82-.18.55-.34,1.12-.47,1.71.78-.54,1.61-1.01,2.46-1.41h.01c.28-.14.58-.27.87-.39,8.73-3.54,19.92-.25,25.32,7.65-9.34,3.41-20.56,1.37-29.1-3.61-1.22,7.02-1.46,15.3,1.45,21.69.01.02.02.05.03.07,0,0,0,.01,0,.01.21.41.63,1.21.81,1.49,3.6,5.62,10.7,5.77,17.11,5.33,11.12-.69,31.42-5.21,33.88-18.07.96-14.46-19.73-27.21-32.62-27.4ZM514.25,501.56c-.16.01-.33.05-.49.09-3.98,1.07-5.69,7.54-3.83,14.45.94,3.5,2.63,6.45,4.58,8.36.37-7.75.3-15.41-.26-22.9ZM507.23,470.83c-.56-2.36-.7-4.8-.41-7.17h0c-.18-.55-.36-1.07-.55-1.6-2.14-6.06-4.7-11.87-7.71-17.39-.96.33-1.94.8-2.94,1.43-14.59,9.05-1.84,28.76,2.73,30.94,1.26.58,3.2,1.51,5.56,1.8l6.14-.16c-1.24-2.48-2.15-5.14-2.82-7.85ZM466.47,590.26c-6.54,2.84-10.96,1.04-15.71-4.37-.07,1.26-.06,2.51,0,3.67.29,5.59,1.05,12.96,3.8,18.65,6.67-4.07,12.05-10.41,12.83-14.41.13-.66-.2-1.91-.92-3.54ZM456.01,575.34c-3.67,1.58-4.94,5.96-5.23,10.26,2.41-4.2,6.96-5.14,10.69-3.7-1.58-2.18-3.42-4.43-5.46-6.56ZM447.78,568.39c.16.62.31,1.24.46,1.86.37-.28.75-.53,1.15-.76-.53-.39-1.07-.75-1.61-1.1ZM350.22,465.35c-.62,1.7-1.18,3.42-1.68,5.16,2.33-1.29,4.91-2.2,7.67-2.67-1.98-1.01-4-1.85-5.99-2.49ZM422.95,633.72c-1,1.3-2.14,2.66-2.06,4.23.43,1.97,3.53,2.54,5.5,2.27.75-.07,1.51-.22,2.24-.44,3.21-4.72,5.89-9.76,7.85-15.17-4.22-.02-10.99,6.16-13.53,9.11ZM458.69,418.76c-5.82,1.96-11.66,5.36-17.94,9.24-.04.01-.09.01-.13.01-.08.04-.16.1-.25.15.68,2.83,1.82,4.95,4.45,6.34,1.75.86,3.72,1.28,5.74,1.47.01,0,.01,0,.02,0l3.18-1.74c.93-.5,1.86-1.01,2.79-1.52-.55-1.58-.81-2.9-.49-4.65.95-2.66,2.63-4.04,5.7-5.88.75.42,1.4.9,1.94,1.45,1.11-2.23,2.27-4.43,3.51-6.6-2.82.15-5.65.77-8.52,1.73ZM480.34,420.2c-.2.65-.38,1.3-.55,1.96.26-.09.53-.17.8-.24.38-.11.77-.21,1.14-.3-.45-.48-.92-.95-1.39-1.42ZM432.42,433.16c-4.94,3.12-10.09,6.28-15.52,9.09.03.09.05.17.07.26.1.41.19.82.28,1.23.07.32.13.63.2.95.07.31.13.63.18.94.32,1.6.55,3.22.72,4.84,1.72-.5,3.44-1.07,5.16-1.71,6.14-2.15,12.15-4.95,18.05-7.99-3.72-1-6.98-3.5-9.14-7.61ZM406.71,446.88c-6.41,2.48-13.2,4.23-20.47,4.7-1.29.09-2.57.14-3.82.16,8.06,1.78,16.28,2.2,24.54,1.14.03-.4.05-.8.06-1.2.12-1.62.01-3.23-.31-4.8ZM295.65,489.69c-4.12-1.7-7.52-4.89-9.58-8.76-2.08-3.88-2.81-8.44-1.57-12.9,2.97,1.73,5.46,3.66,7.69,5.79.36-.52.7-1.04,1.03-1.57,0,0,0-.01.01-.01,5.02-8.11,6.72-17.72.36-26.06-.83-1.09-1.78-2.11-2.84-3.08-3.66-.49-7.29-.68-10.68-.69-2.24.12-4.53.18-6.5.88-.14.31-.31.76-.46,1.24-.76,2.33-1.17,4.81-1.51,7.31-.01.05-.02.11-.03.16-.74,6.6-.85,13.61.44,20.24.38,1.93.87,3.83,1.5,5.67.81,2.37,1.84,4.65,3.14,6.81.47.72.94,1.4,1.44,2.03,7.42,9.67,17.19,9.36,25.56,4.11-2.91.36-5.54-.2-8-1.17ZM177.24,657c-1.05.08-2.06.37-3.03.81,3.84,1.13,7.08,4.27,8.21,8.27.55,2.11.63,4.32-.28,6.93-2.72-.56-4.53-1.48-6.11-2.33-.73-.43-1.4-.87-2.02-1.33-2.58-1.87-4.35-4.02-5.81-6.81-.33.37-.64.74-.93,1.11-4.2,5.44-8.01,11.75-6.45,18.53.63,2.45,2.16,4.59,4.28,6.38,7.54,6.43,22.42,8.53,29.64,4.63,1.73-2.1,1.58-5.36,1.72-7.96.12-11.23-6.32-28.26-19.22-28.23ZM166.49,523.11c-1.27,1.57-3.29,2.61-5.76,3.23-1.58.4-3.34.64-5.2.73.2.11.4.21.6.32,4.05,2,9.17,4,14.39,5.07-1.65-2.73-2.99-5.94-4.03-9.35ZM169.78,512.28c.04.51.05,1.05.03,1.6.03-.55.02-1.08-.03-1.6ZM167.92,498.74s-.08-.05-.12-.09c-.3-.2-.6-.39-.9-.56-2.63-1.57-5.37-2.48-8.32-1.93-1.03.18-2.15.53-3.23,1.01,1.65.76,3.84,1.77,6,3.16h0c1.2.77,2.41,1.64,3.5,2.66.17.15.34.31.51.47,1.86-1.4,4.23-2.06,6.58-1.61-1.32-1.15-2.65-2.24-4.02-3.11ZM284.4,429.14c-6.61.43-12.29,1.62-17.31,3.32-7.43,2.52-13.42,6.14-18.83,10.09,2.93,3.7,5.2,7.98,6.82,12.53-.06-.15-.12-.31-.19-.46.13.32.26.65.38.97-.02.02-.05.1-.09.23-.01.03-.01.05-.02.08-.02.02-.03.05-.03.08-.01.02-.02.05-.03.07-.07.23-.15.44-.27.66-.15.34-.35.75-.62,1.21-.1.18-.21.36-.33.54-.11.18-.23.35-.36.52-.07.1-.14.2-.23.3-.07.11-.14.21-.24.31-.22.31-.48.62-.75.91,3.02-1.86,6.03-3.85,9.06-5.88.07-1.41.18-2.8.35-4.17.02-.16.05-.31.08-.46.67-4.5,1.44-8.87,4.16-12.83.68-.88,1.32-1.51,2.56-2.19,1.24-.6,2.7-.97,4.07-1.18h.02c.5-.08.99-.14,1.45-.18,6.49-.41,12.86.71,18.95,2.78h.01c2.74-.95,5.54-1.68,8.4-2.2,5.19-.86,10.4-1.07,15.58-.8-9.67-3.08-20.13-5.06-32.59-4.25Z"/>
      <path class="cls-2" d="M470.37,929.5s-54.36-94.07-48.73-181.19c-.14.01-.28.01-.42.01-1.27-.05-2.65-.29-3.84-.85-3.3-2.07-4.73-5.58-6.24-8.79-.1-.26-.21-.51-.3-.77-6,1.71-11.79,1.79-14.15.37-3.76-2.26-12.21-26.99,2.13-41.37,3.23-3.24,5.97-4.2,8.42-3.86h.01c3.61.51,6.57,3.82,9.43,6.75l.51.51c.14.02.28.04.43.06.04.01.08.01.13.02,2.41-2.16,5.12-3.75,7.83-4.32-6.7-6.58-12.12-14.87-12.67-24.36-8.07,7.6-19.28,10.2-30.04,11.36.83,7.36-.74,14.48-8.5,18.15,11.91-6.05,7.13-18.88,1.16-27.51-2.5-3.68-6.14-7.92-10.12-9.23-1.68-.44-2.81-.28-4.2.4-1.47.73-3.08,1.79-4.62,2.96.73,1.6,1.38,3.27,1.96,4.95.11.33.21.65.32.97.24.76.46,1.54.65,2.31.72,2.91.99,5.86.5,8.6,4.24-4.97,10.09-5.27,15.87-1.43-1.67,8.03-11.56,9.82-16.54,3.88-1.12,2.94-3.33,5.53-7.09,7.42-.53.27-1.1.49-1.7.66,6.19,5.34,15.67,8.98,23.06,6.32-7.3,2.72-16.44.2-23.37-2.73-2.05-.89-3.83-1.88-5.36-2.96-9.78-.38-22.57-6.9-25.48-15.04-3.73-10.47,9.39-23.35,17.68-27,5.37-2.36,10.34.36,14.37,5.4,12.78-9.11,23.37-2.4,28.56,12.26.76,2.18,1.48,4.52,2.03,6.91,9.07-4.01,17.52-9.37,25.2-15.66,7.62-6.46,14.8-13.58,20.49-21.63-1.66.85-3.44,1.48-5.37,1.69-7.12.59-9.34-7.24-7.13-12.86,2.42-6.6,8.02-11.24,14.96-12.37,2.66-.5,5.58-.03,7.83,1.25.42-2.34.74-4.73.97-7.16-4.41-1.16-7.76-4.31-10.18-8.45-3.82-6.48-5.37-15.41-5.18-22.92.08-3.2.75-7.95,3.34-11.41,1.43-1.92,3.46-3.44,6.3-4.05-.3-.9-.61-1.79-.93-2.66-3.02-7.52-7.08-15.81-14.76-19.39-6.25-2.23-13.41-1.14-19.4,1.46-7.8,3.4-13.81,9.69-21.48,13.39-2.96,1.41-6.29,2.19-9.61,2,.81,3.32.36,7.11-1.85,11.45-3.75,8.85-34.53,7.72-41.35,2.83-1.47-1.25-2.82-2.72-4.02-4.35-6.71-.86-12.92-2.67-15.61-4.52-4.72-3.24-15.59-27.04,2.14-33.98,3.42-1.34,6.43-1.4,9.15-.65h0c2.87.79,5.42,2.46,7.8,4.45.35-.19.72-.37,1.09-.55,3.03-1.48,6.62-2.29,10.08-2.04-.89-1.9-1.73-3.95-2.24-5.59-1.15-3.22-1.52-7.76-2.07-11.19h0c-.02-.13-.04-.25-.06-.36-.01-.11.02-.24.09-.33h.01c-3.35-.97-5.92-2.92-7.82-5.54-2.43,2.6-4.64,5.58-5.62,8.68-.47,1.83,1.75,2.39,3.47,2.46,3.62.04,7.1-1.86,9.57-4.52-3.57,4.07-8.02,8.68-13.94,8.42-4.73-.38-7.3-5.56-6.87-9.71.24-3.86,1.85-7.01,3.91-9.64,1.69-2.11,3.66-3.72,5.72-4.87-.78-3.9-.88-8.23-.45-12.57-2.32,2.93-4.67,5.84-7.02,8.76,1.98,2.73.82,7.71-2.74,12.13h0c-.49.61-1.02,1.2-1.59,1.78-3.38,3.36-7.36,5.25-10.52,5.29-4.56,6.38-8.79,12.99-12.35,20.04-3.8,7.2-6.84,14.78-9.33,22.5,1.71-.43,3.57-.59,5.55-.44,5.79.18,11.05,3.65,14.79,7.72,4.58,5.05,9.75,12.3,9.09,19.42.69-9.17-9.49-17.81-17.4-19.97-2.9-.82-6.46-.46-9.2.85,1.14,1.51,2.11,3.09,2.87,4.67,3.94.89,7.4,4.05,8.21,8.63-2.51,1.27-4.94,1.81-7.22,1.69-1.68,3.77-6.06,6.47-11.14,8.19.39,1.75,1.14,3.33,2.44,4.57,1.49,1.28,3.58,1.67,5.63,1.97,7.91,1.07,21.93-.01,25.38-8.71-2.52,6.73-11.3,9.86-17.62,11.96-4.79,1.42-10.67,2.81-15.59,1.32.17,1.44.36,2.88.75,4.27,1.87,8.6,6.21,16.8,13.01,22.48,6.46,5.5,16.21,9.66,24.11,4.73,1.96-1.14,3.72-2.6,5.33-4.21-3.34-.35-6.07-1.62-7.98-3.69-4.95,3.07-8.31-.34-11.46-3.44-.25-.23-.49-.47-.73-.69-.11-.02-.22-.06-.35-.09-3.7-.79-11.85-3.04-7.5-15.57,2.71-7.83,18.77-9.01,22.58-6.68.69.42,1.6,1.77,2.41,3.67,6.34-3.36,15.14-3.41,20.84-.5.49.29,1.17.76,1.57,1.22.41.45.83,1.06,1.08,1.59,3.46,8.04,2.52,19.2-3.99,25.33,4-3.96,4.48-10.48,2.35-15.52-.98-2.3-2.11-4.74-4.04-6.27-.12-.08-.21-.05-.06.11.02.04.12.06.07.09-.04.05-.11.04-.15.04-4.33-.03-9.64,1.14-13.35,2.91-1.08.57-1.81,1.02-2.45,1.68-.16,2.67-.87,5.38-2.42,7.78h0c.3,2.66,2.37,4.36,5.75,5.63.17.09.55.17.65.33,3.16,4.38,6.59,8.25,11.8,4.74-4.38,3.13-7.91,1.36-11.96-1.76-.08-.06-.15-.11-.23-.17-2.73,5.38-7.7,9.79-13.79,10.71-5.54.95-11.15-.57-16.03-3.22,1.79,3.74,1.55,7.89-1.54,12.37,2.91-4.33,2.98-9.6-1.12-13.11.04.03.07.05.11.07-2-1.75-4.31-2.98-6.83-3.98-.01-.01-.02-.02-.03-.02-.03,0-.07-.03-.1-.04-.11-.05-.22-.1-.32-.16-.55,1.29-1,2.15-1.42,2.87-.55.94-1.07,1.49-1.75,1.84-2.39.89-4.32.31-7.46-.84-1.49-5.12,2.03-8.84,5.84-8.74-1.78-1.62-3.73-2.88-6.05-2.93-2,.04-4.26.83-5.86,2.21.8.65,1.6,1.39,2.32,2.21,0,0,.02.01.03.02,3.02,3.44,4.7,8.34-.08,14.77-.63.85-1.51,1.48-2.58,1.91,5.67,4.79,17.73,9.79,23.45,5.86-4.61,3.34-13.6,1.63-18.7.79-4.2-.98-9.02-1.8-12.15-5.1-.23-.3-.45-.61-.65-.93-7.31-.87-15.8-4.49-18.38-7.13-3-3.08-7.35-22.51,6.92-25.45,3.55-.73,6.26.06,8.48,1.64,1.63,1.15,2.99,2.71,4.25,4.4,3.65-3.32,8.89-4.86,13.84-3.9-.78-1.48-1.5-2.98-2.11-4.47-.33-.82-1.06-3.03-1.39-3.88-1.5-4.86-2.36-9.8-2.68-14.77-2.73.28-5.29.3-7.37.07-2.25-.24-4.06-1.03-5.5-2.19-5.14-4.23-5.34-13.57-3.1-22.03,1.03-3.92,2.93-7.62,6.27-9.93,2.46-1.7,5.71-2.65,9.98-2.36,1.61.11,3.31.57,5.02,1.32,2.06-6.13,4.57-12.1,7.31-17.8-1.7,1.16-3.57,2.07-5.66,2.52-4.32.94-8.02-2.43-8.59-6.56-1.46-10.65,8.88-21.03,19.54-19.57,2.53.34,4.79,1.87,5.94,4,2.25-3.51,4.66-6.94,7.15-10.31.01,0,.01-.01.01-.01.62-2.71,2.36-5.75,5.01-8.41,1.28-1.27,2.64-2.33,4.01-3.16,1.5-1.85,3.01-3.68,4.51-5.51-7.09,5.69-15.84,8.55-24.93,3.77-2.99-1.59-5.57-3.59-7.78-5.92-4.88.89-10.64.05-16.41-5.01-5.3-4.66-8.43-11.08-10.09-17.81-8.31,4.93-17.26,8.38-27.27,7.88-11.37-.27-19.72-4.3-27-9.32-4.07-.83-7.79-2.14-11.29-3.75-.4,1.16-.74,2.32-1.02,3.49-1.81,8.48-1.36,17.1.25,25.56,5.08-1,11.59.29,17.7,2.99,13.14-5.13,29.69,2.99,38.19,13.07,7.97,9.54,6.95,19.52-2,27.88-6.6,6.12-14.4,10.73-22.89,13.49,9.94-3.37,20.18-11.06,24.18-20.79,2.48-5.92-.05-11.18-4.91-15.22-4.59-3.92-10.36-6.86-16.16-8.64-1.08-.34-2.18-.64-3.29-.87,2.93,3.02,4.98,6.38,5.57,9.78.29,1.67.23,3.35-.14,5.01.11.13.22.26.33.39-.18.14-.35.28-.53.41h0c-2.47,8.88-13.15,17.15-22.21,21.34,3.22,6.22,8.63,11.04,16.2,8.9-4.81,1.52-9.2-.06-12.76-2.98,2.57,9.32,4.51,18.83,5.29,28.47,1.32,14.97-.41,30.46-6.67,44.23-4.7,11.27-11.18,21.73-19.12,30.98,3.67-.01,7.43,1.27,11.02,4.24,7.17,6.06,9.33,15.51,9.82,24.36.19,4.21.09,8.4-.67,12.53-.31,1.31-.52,2.83-1.52,3.81-2.39,1.45-5.23,1.87-7.97,2.25-5.62.63-11.28.54-16.9-.55-4.8-.83-9.49-2.94-12.81-6.36-2.58-.23-5.22-.68-7.74-1.38-.16.53-.31,1.07-.45,1.61.05-.25.11-.49.18-.73-.43,1.6-.83,3.29-1.19,5.07-.05.22-.09.44-.13.65-.17.85-.34,1.72-.49,2.62-.32,1.82-.53,4.13-.55,6.74-.01.36-.01.73-.01,1.09,0,.38,0,.76.01,1.14,0,.18.01.37.02.55.01.24.01.47.03.71.01.3.02.61.04.91.02.28.05.56.07.84v.09c.03.36.06.72.1,1.08.05.5.1,1,.16,1.5.03.26.06.51.1.77.03.25.07.5.11.76.08.52.17,1.03.26,1.55.02.15.05.31.08.46.1.56.22,1.12.35,1.68.05.24.11.49.17.73.01.08.04.18.06.27,1.9,7.69,5.57,14.73,11.21,19.82,2.84-.21,5.81.18,8.36,1.83.7.45,1.36.99,1.98,1.65.78.04,1.57.09,2.35.16,7.56-2.73,16.24-2.84,21.67,2.4.18-.04.37-.08.55-.13,5.48-1.38,10.41-4.21,14.71-7.85-.65-.38-1.27-.79-1.88-1.22h-.01c-4.86-.19-10.34-2.29-15.33-5.28-.37-.23-.73-.46-1.09-.69-.25-.16-.49-.31-.74-.48-6.65-4.41-11.65-11.4-7.25-21.98,4.39-10.59,24.92-19.67,34.15-14.01,1.13.69,2.08,1.61,2.88,2.7,6.81-2.26,14.25-2.53,20.19,1.06,10.22,6.78,6.06,26.1,2.02,36.59,2.7-7.28,3.26-15.56,1.31-23.01-1.32-4.76-4.15-8.96-9.34-8.73-3.35.07-7.31,1.15-11.12,2.88.39,3.11.33,6.5-.03,9.81,1.05-.28,2.15-.45,3.27-.5-.36,8.7-5.03,15.69-11.93,20.52,7.58,6.41,21.59,12.26,27.1.88-4.02,9.13-15.09,8.25-23.08,5.51-1.51-.51-3.03-1.08-4.53-1.72-3.27,5.26-7.92,9.82-13.72,12.2-.61.25-1.24.49-1.87.69,2.89,8.9-2.56,14.09-9.63,18.73-5.32,3.27-10.96,6.53-17.07,8.01,8.41-2.27,19.68-11.33,21.45-19.23.14-.93.06-1.6-.33-2.4-1.02-2.71-3.15-5.78-5.69-6.47-3.78-1.29-8.69.34-12.59,1.53,1.18,4.22-.16,6.84-5.21,10.13-.5-.27-.96-.56-1.37-.89-3.73,3.45-8.58,6.56-12.81,8.59,3.2,4.5,8.61,8.17,13.61,8.99-4.55-.64-8.72-3.13-12.49-5.73-1.04-.74-2.01-1.56-2.89-2.45-2.21.94-4.16,1.53-5.55,1.64-5.04.41-25.88-10.18-17.77-25.23,3.23-5.99,8.35-7.11,13.71-7h.01c2.41.04,4.87.33,7.23.52.79-.27,1.76-.61,2.86-.92.37-.11.76-.21,1.16-.31-.66-.6-1.29-1.24-1.91-1.89-6.54-7.16-10.38-16.48-11.56-26.07-.59-4.8-.72-9.72-.19-14.53,0-.17.03-.34.05-.51.92-1.37,1.71-2.83,2.2-4.39.02-.03.03-.06.03-.1.19-.97.22-1.95.05-2.91-.34-2.4-2.29-3.55-4.39-2.73-1.93.69-3.64,2.23-5.1,3.71-2.59,2.69-5.46,6.45-6.63,9.65-.23.66-.36.95-.45,1.36.06,1.67,2.99,1.94,4.61,1.75,3.69-.42,7.14-2.59,9.43-5.56-2.29,3.16-5.01,6.16-8.39,8.35-8.97,5.82-16.31-2.4-13.17-11.61,2.79-8.77,11.23-13.06,17.66-12.9-4.16-5.87-2.97-13.28.41-19.71,1.62-3.08,3.74-5.94,6.02-8.3,1.12-1.16,2.73-2.54,4.7-3.63.33-.18.68-.36,1.03-.52-1.35-.27-2.72-.67-4.11-1.18-3.16-1.22-6.24-3.26-9.07-5.87-3.58.48-7.64-.07-12.24-2.09-12.97-5.67-23.78-31.03-16.63-42.16,5.62-8.76,22.47-8.27,34.96-4.94h.02c10.71-.95,23.12,2.79,30.88,7.07,13.35,7.01,10.1,21.17,4.02,32.25,5-7.4,9.18-15.25,11.42-24.22,5.11-20.75,3.56-44.5-2.82-64.94-4.63.72-8.53-1.05-11.68-4.34-.67-.69-1.3-1.44-1.9-2.26-6.99.09-14.39-1.04-19.47-2.5-1.95-.7-3.41-1.06-5.35-2.53-1.34-1.14-2.07-2.13-2.84-3.17-.04-.05-.07-.11-.11-.16-7.12-1.21-13.75-3.53-16.49-5.66-4.59-3.57-14.09-28.48,4.37-34.59,6.67-2.22,11.57.1,15.75,3.72h0c.15.14.3.27.45.41,4.2-2.34,9.24-3.24,13.93-2.11,2.35.53,4.58,1.7,6.53,3.15-.79-7.26-.27-15.07.43-22.31.58-4.1,1.71-8.24,3.32-12.21-6.56-4.01-12.54-8.75-18.87-12.82-.21-.01-.42-.02-.63-.02-.75-.06-1.6.02-2.35.03h-.19c-3.71,3.13-6.57,7.43-9.43,11.4-7.42,10.85-13.84,22.65-18.52,34.87-4.64,11.89-6.88,24.96-4.51,37.56.76,4.47,2.25,8.36,3.22,13,2.14,9.86-1.59,20.34-6.6,28.63-7.36,12.1-17.02,21.48-26.01,31.85-4.96,5.9-10.17,11.67-11.45,19.26-1.94,9.17,3.1,13.05,11.09,17.3,9.85,5.15,17.25,11.13,15.02,23.56-.49,2.58-1.36,5.15-2.89,7.35-3.02,4.15-5.59,5.09-3.54,10.73,1.05,2.8,2.77,5.65,4.81,8.16.85-2.24,2.39-4.6,4.5-6.71,5.06-5.05,11.52-6.79,14.43-3.88.22.21.41.44.56.69,1.65,2.5.84,6.72-1.92,10.7-.71,1.04-1.56,2.07-2.53,3.04-2.38,2.38-5.07,4.02-7.56,4.79.19,1.25-.09,2.58-.9,3.69-.51.7-1.16,1.23-1.89,1.58-4,1.71-4.59,5.37-4.4,9.66,0,.84.08,1.8.12,2.64.04.03.06.06.03.1-.02.01.04.09.06.14,1.58,3.4,4.23,5.82,6.59,8.92,4.1,5.08,8.08,10.91,8.8,17.78.3,3.95-.33,7.81-.89,11.48-1,6.13-2.4,13.7-2.31,19.72-.05,7.92,2.45,15.54,9.13,19.88,3.75,2.24,8.09,3.82,12.74,4.9h.01c23.54.47,51.05-4.54,69.65-14.82,4.01,1.79,7.66,4.16,10.96,7.04,2.96-1.05,5.89-2.2,8.76-3.46-.08-.03.01-.06.2-.09.01,0,.02-.01.02-.01,3.34-1.48,6.3-2.89,8.96-4.21,12.84-6.37,18.8-10.69,27.78-11.39.36-.02.72-.04,1.09-.06-6.47,8.48-15.53,14.65-27.42,18.5,1.83,1.07,3.57,2.3,5.19,3.63,10.43,8.8,16.09,21.76,19.57,34.61,10.38,41.95,3.77,86.19-7.77,127.15-2.44,8.17-5.18,16.24-8.12,24.22,2.49-8.14,4.76-16.33,6.73-24.59,9.72-41.98,15.82-96.07-1.18-136.61-.55-1.14-1.51-3.06-2.01-4.1-.5-.9-1.72-3.02-2.25-3.94-4.37-6.96-10.44-13.16-18.18-15.94-1.83.82-3.67,1.6-5.53,2.35,28.48,34.84,23.13,115.98.31,176.15-17.17,44.26,274.12,16.52,247.42-41.58ZM416.84,616.38c2.62,3.17.27,9.44-5.25,13.99-5.52,4.55-12.11,5.66-14.73,2.49-2.62-3.18-.27-9.44,5.25-13.99,5.52-4.55,12.11-5.67,14.73-2.49ZM368.67,629.66c2.2-4.3,7.08-6.53,8.38-10.57.38-1.36.53-3.58.3-4.86-.41-1.76-1.7-3.67-2.43-5.74-1.53-3.78-2.24-8.1-2.56-12.03-.21-2.11-.09-4.51.22-6.62,2.85-16.77,20.28-29.37,36.96-27.2-9.02,2.91-17.14,7.92-22.33,15.6-3.03,4.47-5.02,9.22-5.23,14.36.14,4.21.84,8.42,2.21,12.3.92,2.46,2.39,4.83,2.75,7.91.5,5.05-.7,10.13-4.03,13.86-2.15,2.38-4.46,3.81-6.11,5.08-1.69,1.33-2.62,2.23-3.04,3.7-1.06,3.94,1.01,7.86,4.01,10.6,1.69,1.51,3.78,2.7,6.15,3.5-10.06,1.5-20.72-9.65-15.25-19.89ZM245.35,516.45c5.06-5.06,11.51-6.79,14.43-3.89.4.4.71.88.94,1.4,1.42,3.27-.47,8.67-4.83,13.03-1.4,1.39-2.89,2.53-4.4,3.39-3.95,2.28-7.92,2.61-10.03.5-2.92-2.92-1.17-9.37,3.89-14.43Z"/>
      <path class="cls-2" d="M514.51,524.46c-2.8,59.29-31.72,124.2-77.19,164.3-.67,1.29-1.32,2.59-1.94,3.9-7.59-7.33-12.2-16.55-10.98-28.74,10.45-11.16,19.39-24.18,23.55-39.06.88-3.07,1.73-6.29,2.37-9.51,7.8,7.93,18.5,7.26,28.45-1.02,4.21-3.64,8.64-7.75,10.48-13.11-3.29,9.08-17.71,18.01-26.91,14.81-3.61-1.4-6.09-4.28-7.78-7.82,6.67-4.07,12.05-10.41,12.83-14.41.13-.66-.2-1.91-.92-3.54.29-.14.59-.27.89-.42-.29-3.94-2.81-6.75-5.89-7.94-1.58-2.18-3.42-4.43-5.46-6.56.88-.39,1.91-.61,3.1-.63,10.73-.25,20.98,9.25,26.89,17.8,1.49,2.43,3.41,5.03,3.5,7.96.1-1.48-.64-2.87-1.18-4.21-1.87-4.03-4.23-7.79-6.79-11.44-5.53-7.55-12.08-15.36-21.96-17.13-3.77-.68-7.27.06-10.18,1.8-.53-.39-1.07-.75-1.61-1.1-2.58-10.1-6.39-20.02-13.27-27.94-2.67-2.98-6.03-5.49-9.78-6.96-8.42-2.51-17.68-2.95-26.13-.27-3.07.96-5.99,2.35-8.77,3.94-5.52,3.05-10.59,7.38-16.96,8.42-6.26.94-12.7-1.73-17.46-5.73-5.31-4.55-8.5-10.97-10.21-17.7.78.53,1.61,1,2.47,1.39,3.19,1.48,6.62,1.85,9.74,1.59,5.84-.56,11.28-2.09,16.7-4.06,8.92-3.47,23.29-9.55,25.05-20.01.77-9.13-6.8-17.27-13.16-23-7.18-6.16-16.47-11.43-26.37-10.57-1.16.04-2.3.16-3.41.35h-.01c-1.98-1.01-4-1.85-5.99-2.49,1.23-3.43,2.69-6.76,4.45-9.93.38-.69.77-1.37,1.18-2.04.46-.75.93-1.48,1.42-2.2.07.03.15.06.22.09.58.36,1.15.71,1.74,1.06.65.39,1.32.77,1.98,1.13,19.05,10.58,42.44,13.51,65.66,4.61,14.77-5.41,27.86-14.23,41.04-22.18,7.35-4.56,13.51-7.42,18.9-8.61,4.49,5.38,8.4,11.2,11.75,17.39-.96.33-1.94.8-2.94,1.43-14.59,9.05-1.84,28.76,2.73,30.94,1.26.58,3.2,1.51,5.56,1.8l6.14-.16c.45.91.94,1.79,1.49,2.64h0c1.31,6.58,2.21,13.34,2.71,20.24-.16.01-.33.05-.49.09-3.98,1.07-5.69,7.54-3.83,14.45.94,3.5,2.63,6.45,4.58,8.36Z"/>
      <path class="cls-2" d="M345.25,446.53c-1.55,1.6-3.09,3.21-4.63,4.82-.36.37-.72.74-1.07,1.12-.33.34-.66.68-.98,1.02-1.84,1.92-3.66,3.84-5.48,5.78-5.92,6.25-12.61,13.66-17.88,19.59-2.03,3.27-4.54,6.23-7.37,8.87-.02.02-.05.04-.07.06-1.08.94-2.21,1.8-3.36,2.57-1.23-2.91-2.65-4.98-4-6.94-2.67-3.54-5.21-6.74-8.22-9.6.36-.52.7-1.04,1.03-1.57,0,0,0-.01.01-.01,5.02-8.11,6.72-17.72.36-26.06-.83-1.09-1.78-2.11-2.84-3.08,8.9,1.18,17.94,4.1,23.97,10.27,6.51,6.83,5.72,16.86,1.21,24.58,9.21-15.57,2.55-29.11-12.91-37.26-2.62-1.36-5.33-2.58-8.1-3.62,9.61-1.21,19.32-.09,28.7,2.34,3.22.82,6.39,1.77,9.54,2.8.38.12.76.24,1.14.37.41.14.81.27,1.21.41,3.27,1.11,6.51,2.3,9.74,3.54Z"/>
    </g>
    <g id="Feuilles">
      <g>
        <path class="cls-3" d="M18.9,427.72c-1.24,2.36-1.35,5.36-1.18,8.01.09.81.19,1.62.33,2.44h0c.07.42.15.82.25,1.23.27,1.16.64,2.32,1.2,3.47.38.87.83,1.66,1.33,2.37-1.39-.63-2.77-1.39-4.12-2.12-.23-.14-.46-.26-.68-.37-.13-.08-.26-.14-.39-.21-4.84.04-17.16.05-15.48-16.39,1.02-9.94,21.79-15.55,27.58-13.81,1.19.36,3.14,2.04,5.05,4.54-5.82,1.98-11.11,5.5-13.89,10.84Z"/>
        <path class="cls-3" d="M34.27,443.03c-1.22,1.35-2.45,2.28-3.67,2.87-.89-.49-1.69-1.1-2.35-1.85-1.96-2.37-1.96-5.29-1.74-8.32.29-1.3.12-2.48.93-3.59,2.27-3.08,6.1-4.99,9.95-6.64,1.84,5.6,1.81,12.08-3.12,17.53Z"/>
      </g>
      <g>
        <path class="cls-3" d="M449.39,569.49c-.4.23-.78.48-1.15.76-.15-.62-.3-1.24-.46-1.86.54.35,1.08.71,1.61,1.1Z"/>
        <path class="cls-3" d="M439,611.62c-4.41-1.16-7.76-4.31-10.18-8.45-3.82-6.48-5.37-15.41-5.18-22.92.08-3.2.75-7.95,3.34-11.41,1.43-1.92,3.46-3.44,6.3-4.05,1.6,4.74,2.93,9.77,3.92,14.94.11.52.21,1.03.3,1.55,1.81,10.01,2.42,20.49,1.5,30.34Z"/>
        <path class="cls-3" d="M461.47,581.9c-3.73-1.44-8.28-.5-10.69,3.7.29-4.3,1.56-8.68,5.23-10.26,2.04,2.13,3.88,4.38,5.46,6.56Z"/>
        <path class="cls-3" d="M467.39,593.8c-.78,4-6.16,10.34-12.83,14.41-2.75-5.69-3.51-13.06-3.8-18.65-.06-1.16-.07-2.41,0-3.67,4.75,5.41,9.17,7.21,15.71,4.37.72,1.63,1.05,2.88.92,3.54Z"/>
      </g>
      <g>
        <path class="cls-3" d="M154.42,388.35c-.42,5.13-3.18,8.59-7.27,10.71,3.44-6.31,4.82-13.47,2.83-20.69-8.64,3.63-12.94,14.53-9.11,22.79-1.13.23-2.3.39-3.51.5h-.06c-5.22-3.46-7.72-8.66-6.75-15.52,1.88-8.61,10.67-17.97,18.93-22.55,3.87,8.02,5.49,18.19,4.94,24.76Z"/>
        <path class="cls-3" d="M145.11,356.77c-7.3,2.85-13.96,8.54-18.24,14.23-2.95,3.98-5.41,8.83-5.91,14.02-.19,2.33-.05,4.72.44,7.04h0c.17.85.39,1.68.66,2.5v.02c.79,2.43,1.98,4.7,3.59,6.67-1.46-.21-2.92-.47-4.36-.78-2.28-.5-4.53-1.18-6.6-2.13-6.56-2.96-11.51-8.46-11.14-18.32.49-12.98,20.07-30.81,33.04-28.48,3.3.59,6.14,2.51,8.52,5.23Z"/>
      </g>
      <g>
        <path class="cls-3" d="M337.74,465.21c-2.17,5.81-4.12,11.74-5.57,17.79-.12.47-.23.95-.34,1.42-1.03,4.53-1.76,9.12-2.1,13.76-3.17-.8-7.26-.26-11.05,1.86-.78-3.9-.88-8.23-.45-12.57.28-.36.56-.71.84-1.07,5.92-7.33,12.17-14.37,18.67-21.19Z"/>
        <path class="cls-3" d="M333.24,509.53s0,.02,0,.02c-.64,1.88-1.72,3.64-2.97,5.2-3.35-.96-5.92-2.91-7.82-5.53.89-.94,1.8-1.84,2.69-2.67,6.41-5.86,9.1-1.94,8.11,2.98Z"/>
        <path class="cls-3" d="M377.05,494.39c-1.27,9.68-15.84,16.48-28.88,19.41-.18-.28-.6-1.08-.81-1.49,0,0,0-.01,0-.01-.01-.02-.02-.05-.03-.07-2.91-6.39-2.67-14.67-1.45-21.69,8.54,4.98,19.76,7.02,29.1,3.61-5.4-7.9-16.59-11.19-25.32-7.65-.29.12-.59.25-.87.39h-.01c-.85.4-1.68.87-2.46,1.41.13-.59.29-1.16.47-1.71.08-.28.18-.55.28-.82,2.81-7.62,9.66-11.54,18.11-12.05h.01c7.43,6.08,12.75,13.99,11.87,20.67Z"/>
        <path class="cls-3" d="M356.21,467.84c-2.76.47-5.34,1.38-7.67,2.67.5-1.74,1.06-3.46,1.68-5.16,1.99.64,4.01,1.48,5.99,2.49Z"/>
      </g>
      <g>
        <path class="cls-3" d="M171.94,501.85c-2.35-.45-4.72.21-6.58,1.61-.17-.16-.34-.32-.51-.47.45-1.72,1.11-3.37,2.05-4.9.3.17.6.36.9.56.04.04.08.06.12.09,1.37.87,2.7,1.96,4.02,3.11Z"/>
        <path class="cls-3" d="M185.53,541.23c-4.63.72-8.53-1.05-11.68-4.34-.67-.69-1.3-1.44-1.9-2.26,3.8-.04,7.47-.45,10.59-1.36.88,2.04,1.66,4.11,2.42,6.18.19.59.38,1.18.57,1.78Z"/>
        <path class="cls-3" d="M169.81,513.88c.02-.55.01-1.09-.03-1.6.05.52.06,1.05.03,1.6Z"/>
        <path class="cls-3" d="M187.29,529.1c-.21.32-.26.73-.11,1.11.04.11.09.21.13.32-1.28,1.05-2.92,1.7-4.56,2.11-.09.02-.16.07-.21.14-3.75.79-7.91.53-12.02-.32-1.65-2.73-2.99-5.94-4.03-9.35.28-.31.51-.64.7-.99.39-.71.75-1.4,1.04-2.08.14-.31.27-.62.39-.92.1-.26.2-.51.28-.76.03-.07.05-.13.07-.19.1-.28.18-.56.26-.83.08-.29.16-.57.22-.86.06-.23.1-.45.14-.67.01-.05.02-.09.02-.14.07-.41.12-.81.16-1.21.02-.2.03-.39.04-.58.03-.55.02-1.08-.03-1.6h0c.32-.14.63-.3.92-.49.21-.11.41-.24.61-.38,1.86-1.33,3.26-3.42,4.47-6.32.11.09.21.18.32.26,2.33.72,4.55,1.51,6.68,2.57.02.02.04.04.07.05.21.1.43.21.63.32-.07.36-.12.73-.17,1.09-.02.13-.04.25-.04.38-.02.4.03.79.16,1.17.2.55.57,1.06,1.08,1.44,2.31,1.7,4.09,3.77,4.71,6.44,0,0-.02-.23-.02-.26.54,2.49.29,5.39-.71,7.91-.3.79-.68,2.02-1.2,2.64Z"/>
        <path class="cls-3" d="M197.01,492.8c-.22.07-.43.16-.64.25-5.69,2.28-10.42,7.16-12.31,12.98-.18-.14-.36-.27-.54-.4h0c-1.69-5.16-3.19-10.45-4.21-15.82,5.08-1,11.59.29,17.7,2.99Z"/>
        <path class="cls-3" d="M215.36,517.32c-2.47,8.87-13.15,17.14-22.21,21.33-1.4-2.71-2.39-5.68-2.97-8.46,2.37-3.04,3.99-6.55,4.27-10.46,7.16,2.89,14.5,2.48,20.91-2.41Z"/>
        <path class="cls-3" d="M215.56,516.51c-5.49-6.32-15.68-6.75-21.4-1.06-.25-1.17-.64-2.31-1.16-3.39-.28-.6-.59-1.17-.94-1.72-.05-.09-.11-.18-.16-.27-.23-.36-.47-.7-.72-1.03,1.39-2.75,3.5-4.72,6.19-6.06,3.92-2.17,8.41-2.2,12.76-1.26,2.93,3.02,4.98,6.38,5.57,9.78.29,1.67.23,3.35-.14,5.01Z"/>
      </g>
      <g>
        <path class="cls-3" d="M135.92,640.26c-3.58.48-7.64-.07-12.24-2.09-12.97-5.67-23.78-31.03-16.63-42.16,5.62-8.76,22.47-8.27,34.96-4.94-7.8.68-14.69,3.86-18.19,11.12-4.99,11.91,1.89,28.67,12.1,38.07Z"/>
        <path class="cls-3" d="M155.61,621.87c-2.81-1.39-5.85-2.42-9.27-2.97.61,4.04,2.34,7.66,4.85,10.62-.09.14-.18.27-.27.4-2.59,3.73-5.86,7-9.92,8.86-4.12-4.95-7.4-12.25-8.73-19.15-.15-.78-.28-1.56-.38-2.33-.53-4.14-.3-8.01.95-11,3.12-6.07,14.55-6.99,24.55-6.1,3.25,5.87,1.88,13.93-1.78,21.67Z"/>
      </g>
      <g>
        <path class="cls-3" d="M265.62,555.73c-1.58,4.7-2.89,9.5-3.84,14.34-.04.22-.08.43-.12.65-.25,1.35-.48,2.71-.66,4.07-.02.08-.03.16-.04.24-.43,2.27-.7,4.66-.7,7.06v.25c-.14,2.84-.13,5.68.06,8.51-2.73.28-5.29.3-7.37.07-2.25-.24-4.06-1.03-5.5-2.19-5.14-4.23-5.34-13.57-3.1-22.03,1.03-3.92,2.93-7.62,6.27-9.93,2.46-1.7,5.71-2.65,9.98-2.36,1.61.11,3.31.57,5.02,1.32Z"/>
        <path class="cls-3" d="M281.37,580.54c-1.68,3.77-6.06,6.47-11.14,8.19-.87-3.79-.05-8.36.57-11.94.16-.78.33-1.55.52-2.29,2.66,3.72,6.14,5.85,10.05,6.04Z"/>
        <path class="cls-3" d="M280.38,570.22c-2.79-.63-5.82-.13-8.31,1.8.74-2.01,1.77-3.79,3.44-5.23.59-.48,1.27-.9,2-1.24,1.14,1.51,2.11,3.09,2.87,4.67Z"/>
      </g>
      <g>
        <path class="cls-3" d="M351.46,659.19c-.72.5-1.45,1.06-2.19,1.68-6.48,5.31-10.97,12.1-11.91,18.68l-.71.13c.23-.01.47-.02.7-.03-.83,5.98,1.3,11.79,7.54,16.18-9.78-.38-22.57-6.9-25.48-15.04-3.73-10.47,9.39-23.35,17.68-27,5.37-2.36,10.34.36,14.37,5.4Z"/>
        <path class="cls-3" d="M360.02,684.67c-.44.51-.86,1.07-1.26,1.68.19.27.38.53.59.77-1.12,2.94-3.33,5.53-7.09,7.42-.53.27-1.1.49-1.7.66-1.61-1.38-2.99-2.88-4.06-4.42-2.95-4.1-2.32-8.23-.16-12,.17-.32.37-.64.57-.96,2.26-3.51,5.72-6.67,8.64-9.17.34-.27.69-.54,1.04-.81.73,1.6,1.38,3.27,1.96,4.95.11.33.21.65.32.97.24.76.46,1.54.65,2.31.72,2.91.99,5.86.5,8.6Z"/>
        <path class="cls-3" d="M337.36,679.55s0,.07,0,.1c-.23.01-.47.02-.7.03l.71-.13Z"/>
        <path class="cls-3" d="M337.36,679.55s0,.07,0,.1c-.23.01-.47.02-.7.03l.71-.13Z"/>
      </g>
      <g>
        <path class="cls-3" d="M566.5,408.06c-.17.07-.34.14-.5.2.02-.28.03-.57.04-.85.15.22.3.44.46.65Z"/>
        <path class="cls-3" d="M557.76,377.68c-.07.31-.13.62-.19.93-.23-.26-.47-.52-.7-.77.3-.06.59-.11.89-.16Z"/>
        <path class="cls-3" d="M557.76,377.68c-.07.31-.13.62-.19.93-.23-.26-.47-.52-.7-.77.3-.06.59-.11.89-.16Z"/>
      </g>
      <g>
        <path class="cls-3" d="M585.47,502.84c-5.61-2.18-12.46-.6-16.06,4.18h-.01c-.78.17-1.57.34-2.37.51.89-6.99,5.45-11.83,12.46-12.76,1.38-.1,2.78-.04,4.18.14.85,1.18,1.46,2.43,1.78,3.71.34,1.38.33,2.8.02,4.22Z"/>
        <path class="cls-3" d="M566.67,499.69c-.68,2.46-.7,5.15.15,7.89-7.28,1.6-14.83,3.22-20.8-.25-.05-.17-.1-.33-.14-.5l-.46-2.46v-.03s-.56-2.97-.56-2.97c-.54-6.2,1.49-12.4,9.7-15.81,5.81-2.42,15.13-.61,22.06,3.36-4.7,1.96-8.47,5.8-9.86,10.47-.03.1-.06.2-.09.3Z"/>
        <path class="cls-3" d="M569.16,520.68c-1.69.96-3.32,1.73-4.78,2.26-5.2,1.91-9.52-.12-12.79-4.1-.28-1.39-.71-2.76-1.29-4.05,5.73.87,11.91.5,17.72-.91.14,2.31.5,4.6,1.14,6.8Z"/>
        <path class="cls-3" d="M580.41,511.78c-2.58,2.87-5.8,5.48-8.98,7.53-1.18-1.71-2.26-3.55-3.26-5.47,1.77-.43,3.49-.96,5.16-1.59,2.45.23,4.81.08,7.08-.47Z"/>
        <path class="cls-3" d="M545.42,504.37l-.12.03s.07-.04.11-.06v.03Z"/>
      </g>
      <g>
        <path class="cls-3" d="M222.83,712.76c-7.33,1.97-12.76,9.33-12.01,16.76-3.85-4.56-4.44-9.75-1.52-15.55,2.48-4.36,7.85-8.42,13.56-11.02.39,3.11.33,6.5-.03,9.81Z"/>
        <path class="cls-3" d="M199.93,711.95c-1.77,5.91-1.31,12.4,2.55,17.39,1.34,1.79,2.93,3.27,4.7,4.56-4.86-.19-10.34-2.29-15.33-5.28-.37-.23-.73-.46-1.09-.69-.25-.16-.49-.31-.74-.48-6.65-4.41-11.65-11.4-7.25-21.98,4.39-10.59,24.92-19.67,34.15-14.01,1.13.69,2.08,1.61,2.88,2.7-4.56,1.51-8.83,3.92-12.19,6.66-2.35,1.97-4.69,4.54-6.27,7.58-.32.61-.61,1.24-.86,1.89-.2.54-.39,1.09-.55,1.65h0Z"/>
      </g>
      <g>
        <path class="cls-3" d="M472.03,755.43c1.54,1.38,3.51,2.98,5.75,4.55-8.81,3.62-22.98-7.92-28.04-15.59-5.95-9.02,2.99-17.99,13.44-22.8.46-.22.92-.42,1.4-.6.81-.32,1.64-.6,2.47-.81,1.3-.34,2.62-.55,3.94-.59,3.37,1.43,6.55,3.28,9.44,5.52-3.64,1.99-7.3,4.69-10,8.05-.34.43-.67.87-.98,1.32-1.64,2.38-2.79,5.07-3.16,8.04-.71,5.08,2.12,9.74,5.74,12.91Z"/>
        <path class="cls-3" d="M487.02,739.75h0c-.08,7.23-2.4,14.81-6.54,18.51-1.87-2.04-3.46-4.16-4.63-6.02-1.14-1.83-2.23-3.8-2.25-5.85.18-5.95,6.96-9.84,11.74-12.57.04-.02.08-.05.12-.07.27,2.13.78,4.13,1.56,6Z"/>
      </g>
      <g>
        <path class="cls-3" d="M248.52,462.75c-1.07.62-2.14,1.21-3.21,1.77-.72-3.32-1.1-6.68-1.22-9.92,1.53,2.47,2.99,5.17,4.43,8.15Z"/>
        <path class="cls-3" d="M293.23,472.24s-.01.01-.01.01c-.33.53-.67,1.05-1.03,1.57-2.23-2.13-4.72-4.06-7.69-5.79-1.24,4.46-.51,9.02,1.57,12.9-.5.48-1.01.94-1.52,1.38h0c-.7.61-1.39,1.17-2.09,1.73h-.01c-1.16.89-2.63,1.86-4.35,2.71-.5-.63-.97-1.31-1.44-2.03-1.3-2.16-2.33-4.44-3.14-6.81-.63-1.84-1.12-3.74-1.5-5.67-1.29-6.63-1.18-13.64-.44-20.24.01-.05.02-.11.03-.16.34-2.5.75-4.98,1.51-7.31.15-.48.32-.93.46-1.24,1.97-.7,4.26-.76,6.5-.88,3.39,0,7.02.2,10.68.69,1.06.97,2.01,1.99,2.84,3.08,6.36,8.34,4.66,17.95-.36,26.06Z"/>
        <path class="cls-3" d="M272.14,488.77c-4.88.89-10.64.05-16.41-5.01-5.3-4.66-8.43-11.08-10.09-17.81,5.47-3.23,10.66-7.1,15.71-10.9-.52,12.01,2.55,25.07,10.79,33.72Z"/>
        <path class="cls-3" d="M272.58,433.79c-1.37.21-2.83.58-4.07,1.18-1.24.68-1.88,1.31-2.56,2.19-2.72,3.96-3.49,8.33-4.16,12.83-.03.15-.06.3-.08.46-.17,1.37-.28,2.76-.35,4.17-3.03,2.03-6.04,4.02-9.06,5.88.27-.29.53-.6.75-.91.1-.1.17-.2.24-.31.09-.1.16-.2.23-.3.13-.17.25-.34.36-.52.12-.18.23-.36.33-.54.27-.46.47-.87.62-1.21.12-.22.2-.43.27-.66,0-.02.02-.05.03-.07,0-.03.01-.06.03-.08,0-.03,0-.05.02-.08.04-.13.07-.21.09-.23-.12-.32-.25-.65-.38-.97.07.15.13.31.19.46-1.62-4.55-3.89-8.83-6.82-12.53-.87-1.11-1.81-2.18-2.81-3.18.87-3.72,2.04-6.25,3.12-6.78,3.23-1.59,10.29-1.69,18.06-.22.15.03.31.06.46.09,1.81.35,3.64.79,5.49,1.33Z"/>
      </g>
      <g>
        <path class="cls-3" d="M521.47,380.88c-.01,2.73-.7,5.9-2.33,9.58-2.25,5.07-9.32,7.37-17.03,7.96-.75-1.15-1.64-3.09-2.06-4.39-2.02-5.67-2.95-12.83-1.43-18.32,1.12-4.38,5-8.71,9.52-10.27,3.07,1.14,6.87,2.94,9.63,5.92-4.16,2.1-6.87,7.22-5.02,12.31,3.66-.08,6.52-1.04,8.72-2.79Z"/>
        <path class="cls-3" d="M489.23,387.72c-2.72,2.69-5.29,5.51-7.73,8.45-1.22-.43-2.24-.91-2.99-1.41-.97-.65-2.19-2.24-3.37-4.43,4.49.89,9.35.1,14.06-2.76,0,.05.02.1.03.15Z"/>
        <path class="cls-3" d="M499.77,359.14c-3.98,2.26-7.34,5.72-9.23,9.75-1.66,3.62-2.36,7.42-2.33,11.21-.09-.24-.18-.49-.27-.73-2.89-6.74-5.76-12.07-11.6-17.13-4.4,7.61-1.41,17.45,5.58,22.21,2.07,1.35,4.38,2.36,7.14,2.55.02.1.04.2.07.29-2.13.46-4.96.91-7.14.73-3.52-.07-6.66-1.34-9.24-3.38-.62-1.88-1.13-3.91-1.45-6.01-1.17-7.75.21-16.42,8.09-21.62.31-.21.62-.4.95-.58.04-.04.09-.06.14-.09.32-.19.66-.37,1.01-.55,2.11-1.09,4.07-1.65,5.89-1.81,4.87-.42,8.82,2.03,12.39,5.16Z"/>
        <path class="cls-3" d="M493.8,398.43c-.23-.01-.45-.03-.68-.05.12-.14.24-.28.38-.42.1.16.2.32.3.47Z"/>
        <path class="cls-3" d="M459.89,377.91c.78,1.52,1.68,2.93,2.66,4.21-5.66,1.15-13.09.42-18.92-7.59-12.66-17.37-.53-46.98,3.84-48.01,3.41-.8,10.3.74,17.4,3.97-3.39,3.56-4.95,8.13-6.44,12.52-1.49,4.99-2.45,10.21-2.6,15.45l-1.6-2.9c.44,2.35.95,4.67,1.66,6.98.3,5.3,1.52,10.5,4,15.37Z"/>
        <path class="cls-3" d="M487.38,353.98c-1.82.16-3.78.72-5.89,1.81-.35.18-.69.36-1.01.55-.05.03-.1.05-.14.09-.33.18-.64.37-.95.58-7.53,4.88-9.88,12.85-9.08,20.23l-1.92,2.52c-.93-1.46-1.68-3.04-2.24-4.68-3.27-9.25-1.69-19.86,1.46-29.04,1.05-2.84,2.2-5.79,3.94-8.06.22,0,.45.01.72.03,1.95.2,4.15.65,6.48,1.32h.01c3.01,2.69,5.48,5.71,6.98,8.96.89,1.93,1.43,3.83,1.64,5.69Z"/>
        <path class="cls-3" d="M455.89,362.54c-.71-2.31-1.22-4.63-1.66-6.98l1.6,2.9h0c-.04,1.37-.03,2.73.06,4.08Z"/>
        <path class="cls-3" d="M455.89,362.54c-.71-2.31-1.22-4.63-1.66-6.98l1.6,2.9h0c-.04,1.37-.03,2.73.06,4.08Z"/>
      </g>
      <g>
        <path class="cls-3" d="M157.84,646.34c-1.49.12-3.03.04-4.58-.25,1.44-.19,2.98-.14,4.58.25Z"/>
        <path class="cls-3" d="M163.06,648.75c-2.71,3.46-5.38,6.95-7.87,10.54-.37.52-.73,1.05-1.09,1.58-2.19,3.23-4.22,6.55-6.02,10.01-1.77,3.61-3.5,7.4-4.55,11.3-1.39-1.75-3.8-2.65-6.59-2.71-4.16-5.87-2.97-13.28.41-19.71,1.62-3.08,3.74-5.94,6.02-8.3,1.12-1.16,2.73-2.54,4.7-3.63.33-.18.68-.36,1.03-.52,3.81.8,7.42.66,10.74-.32,1.03.42,2.08.98,3.15,1.71.02.02.05.03.07.05Z"/>
        <path class="cls-3" d="M172.63,686.51c-1.47,1.02-4.19,1.75-7.53,2.05-2.12-1.79-3.65-3.93-4.28-6.38-1.56-6.78,2.25-13.09,6.45-18.53.29-.37.6-.74.93-1.11,1.46,2.79,3.23,4.94,5.81,6.81,1.28,8.42.17,16.08-1.38,17.16Z"/>
        <path class="cls-3" d="M157.06,688.53c-2.58-.23-5.22-.68-7.74-1.38.83-2.96,1.85-5.86,3.08-8.67.05.53.14,1.06.24,1.58.63,3.4,2.22,6.22,4.42,8.47Z"/>
      </g>
      <g>
        <path class="cls-3" d="M114.97,416.61c-.57.73-1.13,1.49-1.67,2.28-.55.78-1.07,1.57-1.57,2.38h-.01s0,.02-.01.02h-.01c-4.72,1.53-9.53,3.13-13.43,6.42-5.64,4.59-8.18,13.55-4.29,19.97-3.01.44-7.7.24-11.93-1.09-2.39-.75-4.64-1.86-6.35-3.44-2.68-2.44-4.06-6.01-2.66-11.03,1.98-7.06,7.77-9.7,13.81-11.56,1.7-.53,3.41-1,5.07-1.48,2.08-1.5,5.51-3.97,9.32-5.4,4.59-1.7,9.73-1.9,13.73,2.93Z"/>
        <path class="cls-3" d="M108.71,436.39c-3.89,4.46-8.32,8.36-11.35,10.13-.97-2.43-.69-5.36,1.55-8.7,2.16-3.1,5.41-4.4,8.87-5.33-.1,1.33.21,2.7.93,3.9Z"/>
      </g>
      <g>
        <path class="cls-3" d="M144.18,526.27c-7.12-1.21-13.75-3.53-16.49-5.66-4.59-3.57-14.09-28.48,4.37-34.59,6.67-2.22,11.57.1,15.75,3.72h0c.15.14.3.27.45.41-4.35,2.44-7.8,6.42-9.04,11.32-2.3,8.63.22,17.67,4.96,24.8Z"/>
        <path class="cls-3" d="M169.81,513.88c-.01.19-.02.38-.04.58-.04.4-.09.8-.16,1.21,0,.05,0,.09-.02.14-.04.22-.09.45-.14.67-.06.29-.14.57-.22.86-.08.27-.17.55-.26.83-.02.06-.04.12-.07.19-.08.25-.18.5-.28.76-.12.3-.25.61-.39.92-.29.68-.65,1.37-1.04,2.08-.19.35-.42.68-.7.99-1.27,1.57-3.29,2.61-5.76,3.23-1.58.4-3.34.64-5.2.73h-.01c-1.19-.66-2.44-1.41-3.39-2.33-.45-.43-.83-1.29-1.27-2.22-3.07-6.99-4.11-17.56-.11-22.01,1.09-1.38,2.79-2.54,4.59-3.34h.01c1.65.76,3.84,1.77,6,3.16h0c1.2.77,2.41,1.64,3.5,2.66.17.15.34.31.51.47-2.66,2.02-4.25,5.56-3.14,9.48,3.14.41,5.58.2,7.56-.66.04.51.05,1.05.03,1.6Z"/>
        <path class="cls-3" d="M169.81,513.88c.02-.55.01-1.09-.03-1.6.05.52.06,1.05.03,1.6Z"/>
      </g>
      <g>
        <path class="cls-3" d="M202.83,398.5c-3.26,1.36-6.34,3.02-9.31,4.85-5.67,3.82-13.14,9.19-12.8,17.01.19,1.38.55,2.7,1.08,3.98-2.65.53-5.82.91-8.84.49-1.73-5.84-4.96-11.13-9.76-14.62.36-.71.85-1.43,1.44-2.15,4.6-1.47,8.63-3.99,10.62-8.14,6.23-3.45,13.08-5.89,16.53-6.01,2.15-.08,6.85,1.63,11.04,4.59Z"/>
        <path class="cls-3" d="M208.21,418.19c-4.91,6.85-12.24,6.44-19.25,5.64-.6-1.69-.98-4.26-.47-4.45,3.23-5.08,10.87-8.55,16.47-11.04,1.67-.68,3.28-1.33,4.91-1.83,1.48,3.45,1.39,7.42-1.66,11.68Z"/>
        <path class="cls-3" d="M175.02,400.06c-1.86,3.54-5.16,5.56-9.07,6.55,2.34-2.35,5.6-4.6,9.07-6.55Z"/>
      </g>
      <g>
        <path class="cls-3" d="M153.05,769.15c-2.21.94-4.16,1.53-5.55,1.64-5.04.41-25.88-10.18-17.77-25.23,3.23-5.99,8.35-7.11,13.71-7h.01c2.41.04,4.87.33,7.23.52.79-.27,1.76-.61,2.86-.92.37-.11.76-.21,1.16-.31,1.41,1.34,2.9,2.59,4.47,3.72-4.86,1.49-8.83,4.71-10.69,10.98-2.06,6.38.23,12.29,4.57,16.6Z"/>
        <path class="cls-3" d="M167.63,759.75c-3.73,3.45-8.58,6.56-12.81,8.59-1.17-1.66-2.05-3.43-2.49-5.21-1.32-5.18,2.15-11.6,7.26-12.95,1.94-.46,3.98-.44,6.09-.25-1.79,2.99-1.35,7.24,1.95,9.82Z"/>
        <path class="cls-3" d="M169.79,740.54c-1.87-.09-3.74-.08-5.54.08-1.73-1.04-3.33-2.23-4.8-3.56,2.84-.21,5.81.18,8.36,1.83.7.45,1.36.99,1.98,1.65Z"/>
      </g>
      <g>
        <path class="cls-3" d="M417.75,700.39c-1.69,1.52-3.24,3.32-4.54,5.25-1.52,2.22-2.71,4.61-3.45,6.94h0c-.1.32-.19.62-.27.93-2.43,8.12-1.63,16.66,1.35,24.4-6,1.71-11.79,1.79-14.15.37-3.76-2.26-12.21-26.99,2.13-41.37,3.23-3.24,5.97-4.2,8.42-3.86h.01c3.61.51,6.57,3.82,9.43,6.75l.51.51c.14.02.28.04.43.06.04.01.08.01.13.02Z"/>
        <path class="cls-3" d="M428.43,722.48c-.14.56-.3,1.13-.47,1.72-.79,2.67-2.35,4.96-4.38,6.9-.71.67-1.47,1.3-2.28,1.89-.96.71-1.99,1.35-3.06,1.93-1.9-10.67.07-23.29,7.95-30.23.15-.12.29-.23.44-.34.36.39.7.81,1.01,1.28.07.1.14.22.2.33.47.77.88,1.64,1.18,2.64.3.94.5,1.98.62,3.15-2.15,2.95-2.84,7.05-1.21,10.73Z"/>
      </g>
      <g>
        <path class="cls-3" d="M262.02,641.88c-.63.85-1.51,1.48-2.58,1.91-.83-.7-1.52-1.4-2.04-2.06-1.15-4.44-1.29-10.79.69-14.67.37-.84.95-1.57,1.66-2.18.8.65,1.6,1.39,2.32,2.21,0,0,.02.01.03.02,3.02,3.44,4.7,8.34-.08,14.77Z"/>
        <path class="cls-3" d="M248.13,625.55c-1.71,6.38-.26,13.63,3.26,18.86-7.31-.87-15.8-4.49-18.38-7.13-3-3.08-7.35-22.51,6.92-25.45,3.55-.73,6.26.06,8.48,1.64,1.63,1.15,2.99,2.71,4.25,4.4-1.51,1.36-2.74,3.01-3.57,4.92-.21.48-.4.96-.56,1.46-.16.43-.29.86-.4,1.3Z"/>
      </g>
      <g>
        <path class="cls-3" d="M303.53,608.51c-.51,1.83-.78,3.69-.87,5.58-.13,3.94.97,7.1,3.03,9.33-4.95,3.07-8.31-.34-11.46-3.44-.25-.23-.49-.47-.73-.69-.11-.02-.22-.06-.35-.09-3.7-.79-11.85-3.04-7.5-15.57,2.71-7.83,18.77-9.01,22.58-6.68.69.42,1.6,1.77,2.41,3.67-3.29,1.73-5.91,4.35-7.11,7.89Z"/>
        <path class="cls-3" d="M312.51,611.3c-.16,2.67-.87,5.38-2.42,7.78-.13-1.12.06-2.38.59-3.87.33-.95,1-2.56,1.45-3.46.13-.16.25-.31.38-.45Z"/>
      </g>
      <g>
        <path class="cls-3" d="M345.2,555.98c.08,2.43-.53,5.21-2.06,8.39-1.81,3.76-7.24,5.35-13.55,5.62-.56-.37-1.06-.74-1.48-1.11-3.76-5.83-5.58-14.97-3.84-20.45.88-3.08,3.48-5.3,6.53-6.59.36-.15.72-.29,1.08-.41,2.81,1.17,6.34,2.91,9.05,5.51-2.97,2.01-4.74,5.91-3.25,10.08,3.21.27,5.63-.05,7.52-1.04Z"/>
        <path class="cls-3" d="M319.88,569.52c-6.71-.86-12.92-2.67-15.61-4.52-4.72-3.24-15.59-27.04,2.14-33.98,3.42-1.34,6.43-1.4,9.15-.65h0c2.87.79,5.42,2.46,7.8,4.45-12.7,6.91-11.28,24.12-3.48,34.7Z"/>
      </g>
      <g>
        <path class="cls-3" d="M532.89,468.02c-.14.73-.33,1.5-.56,2.3-1.09,3.72-5.74,6.03-11.32,7.26-3.48-4.02-6.16-9.98-5.89-14.73.16-3.87,3.04-7.3,6.41-9.1.76-.43,1.55-.72,2.36-.92,2.62,1.02,5.26,2.55,7.06,4.92-2.22,1.15-3.86,3.38-3.9,6.17h0c.01.68.07,1.34.25,2.01.01.09.03.17.06.26.21.87.53,1.7,1.02,2.54.98,0,1.85-.09,2.73-.25.64-.1,1.21-.25,1.78-.46Z"/>
        <path class="cls-3" d="M516.96,449.89c-.43.19-.85.41-1.28.65-3.88,1.91-6.5,5.17-7.87,8.96h0c-.18.48-.33.96-.46,1.45-.25.88-.42,1.79-.53,2.7h0c-.29,2.38-.15,4.82.41,7.18.67,2.71,1.58,5.37,2.82,7.85l-6.14.16c-2.36-.29-4.3-1.22-5.56-1.8-4.57-2.18-17.32-21.89-2.73-30.94,1-.63,1.98-1.1,2.94-1.43.02,0,.04,0,.06-.02,5.28-1.8,9.89.48,14.18,3.35l4.16,1.89Z"/>
      </g>
      <g>
        <path class="cls-3" d="M458.69,418.76c-.05.34-.11.69-.18,1.04-1.51,7.43-13.73,8.17-17.76,8.2-.04.01-.09.01-.13.01h-.28c-.12-.52-.23-1.08-.33-1.65-.03-.15-.03-.12-.01-.23.29-1.33,1.03-2.35,2.1-3.64,4.21-4.59,9.72-8.76,15.39-11.97,1.09,2.2,1.67,4.92,1.2,8.24Z"/>
        <path class="cls-3" d="M430.64,428.43c.23.9.5,1.75.8,2.55-4.79,1.08-11.27,1.49-15.27-3.55,2.48-4.68,2.54-10.52.55-15.45,6.04-6.65,17.96-12.56,22.85-12.83,1.75-.09,5.37,1.16,8.98,3.48,0,0,1.79.65,3.87,2.14-10.93,3.5-24.14,12.72-21.78,23.66Z"/>
      </g>
      <path class="cls-3" d="M119.19,688.33c-.71,1.04-1.56,2.07-2.53,3.04-2.38,2.38-5.07,4.02-7.56,4.79-.19-1.29-.88-2.5-2.01-3.32-1.91-1.41-3.8-3.25-5.47-5.31.85-2.24,2.39-4.6,4.5-6.71,5.06-5.05,11.52-6.79,14.43-3.88.22.21.41.44.56.69,1.65,2.5.84,6.72-1.92,10.7Z"/>
      <path class="cls-3" d="M411.59,630.37c-5.52,4.55-12.11,5.66-14.73,2.49-2.62-3.18-.27-9.44,5.25-13.99,5.52-4.55,12.11-5.67,14.73-2.49,2.62,3.17.27,9.44-5.25,13.99Z"/>
      <path class="cls-3" d="M255.89,526.99c-1.4,1.39-2.89,2.53-4.4,3.39-3.95,2.28-7.92,2.61-10.03.5-2.92-2.92-1.17-9.37,3.89-14.43s11.51-6.79,14.43-3.89c.4.4.71.88.94,1.4,1.42,3.27-.47,8.67-4.83,13.03Z"/>
      <path class="cls-3" d="M308.47,508.36h0c-.49.61-1.02,1.2-1.59,1.78-3.38,3.36-7.36,5.25-10.52,5.29,4.7-6.57,9.77-12.9,14.85-19.2,1.98,2.73.82,7.71-2.74,12.13Z"/>
      <path class="cls-3" d="M300.34,496.43c-3.08,3.8-6.12,7.64-9.02,11.57.62-2.71,2.36-5.75,5.01-8.41,1.28-1.27,2.64-2.33,4.01-3.16Z"/>
      <path class="cls-3" d="M389.9,420.17c-.5.04-1.01.08-1.52.15-.35.04-.7.08-1.05.12-2.38.3-4.74.79-7.06,1.45-1.96-2.08-3.53-5.38-4.18-9.26-1.18-7.05,1.15-13.32,5.21-14s8.31,4.49,9.49,11.54c.64,3.82.25,7.4-.89,10Z"/>
      <path class="cls-3" d="M520.5,526.66c-1.96.53-4.1-.35-5.99-2.2-1.95-1.91-3.64-4.86-4.58-8.36-1.86-6.91-.15-13.38,3.83-14.45.16-.04.33-.08.49-.09,3.86-.59,8.29,4.03,10.08,10.66,1.86,6.9.14,13.37-3.83,14.44Z"/>
      <path class="cls-3" d="M25.47,484.72c-5.16,1.35-10.93-.15-12.11-4.1-1.2-3.93,1.98-8.38,7.07-9.91,1.96-.59,5.84-1.48,9.36.84,6.19,4.09,2.27,11.43-4.32,13.17Z"/>
      <path class="cls-3" d="M578.18,358.85c-6.12,1.45-11.94,4.93-15.93,9.74-2.27,2.65-3.73,5.78-4.49,9.09-.3.05-.59.1-.89.16-4.31-4.58-9.97-7.85-16.1-9.61,2.24-3.93,6.11-7.44,12.28-10.03,6.74-2.83,16.49-2.2,25.13.65Z"/>
      <path class="cls-3" d="M543.18,390.87v.02h0c-.22,1.41-.62,2.89-1.19,4.45-2.12-5.01-3.23-10.61-3.31-11.03l.04-.04h-.05c-.36-1.97-.56-3.98-.52-5.99l2.64,1.98c.55.7,1.02,1.45,1.4,2.25.1.21.19.42.28.64.03.07.05.13.08.2.84,2.19,1.08,4.69.63,7.52Z"/>
      <path class="cls-3" d="M567.89,407.46c-.42-.68-.82-1.38-1.19-2.08.32-4.62.31-9.42-.57-14.15,6.78-.02,13.33-1.43,19.82-3.75,2.67-1.08,5.44-2.31,8.22-4.56-2.99-1.95-6-2.8-9.07-3.27-7.89-1.01-16.6,1.48-21.83,7.62-.05.04-.08.09-.11.13-.01-.04,0-.08,0-.11.08-3.57.98-6.8,2.65-9.54.24-.4.49-.78.76-1.15h.01c1.84-2.56,4.41-4.62,7.64-6.08,6.04-3.01,13.27-3.01,20.17-1.59h.01c1.36,1.71,2.31,3.52,2.74,5.42,2.74,12.12-16.32,27.31-29.25,33.11Z"/>
      <path class="cls-3" d="M555.37,409.2c-4.9-1.36-8.82-5.31-11.72-10.49-.6-1.03-1.15-2.16-1.65-3.33.55-1.37.96-2.68,1.25-3.94h0c.66-2.84.69-5.4.16-7.72-.03-.18-.07-.37-.12-.55-.08-.35-.18-.69-.3-1.03-.06-.18-.12-.35-.19-.52.2.11.39.22.59.34h.01c.46.26.92.55,1.36.85h.01c2.05,1.36,3.9,2.99,5.47,4.87,4.85,6,5.98,13.91,5.13,21.52Z"/>
    </g>
    <g id="Notes">
      <path class="cls-1" d="M265.06,185.41c-3.45-4.26-8.39-7.47-13.58-4.52-6.19,3.48-10.47,4.56-15.95,2.16.38,9.4-.02,18.7-.95,28.08-.57,5.41-1.32,10.81-2.76,16.22l-.62,2.04c-.74,2.28-2.52,4.38-4.45,5.68-9.02,6.43-32.71,4.37-32.02-9.85,1.76-14.09,23.16-13.44,31-5.14,4.7-20.09.22-40.74,2.74-61.09.19-1.64,2.48-2.13,3.31-.71,5.06,8.29,10.32,8.49,19.16,8.18,4.49.14,8.89,2.12,12.45,5.01,3.53,3.03,5.36,7.67,5.92,12.12.34,2.41-2.79,3.7-4.25,1.82Z"/>
      <path class="cls-1" d="M176.35,297.97c-4.45,7.33-15.39,14.4-23.48,8.67-1.88-1.42-3.09-3.51-3.98-5.65-5.42-13.07,9.94-18.09,20.07-18.57-.85-8.19-4.69-15.69-8.23-23.01-3.65-7.34-7.76-14.44-11.74-21.68-1.24-2.29-2.58-4.6-3.63-7.06-.24-.61-.62-1.5-.64-2.45-.09-1.42,1.29-2.75,2.71-2.52,1.38.15,2.43,1.46,3.16,2.37,2.64,3.5,4.59,7.07,6.72,10.79,7.85,14.72,15.24,29.58,20.51,45.45,1.68,4.51,1.09,9.66-1.47,13.66Z"/>
      <path class="cls-1" d="M319.52,382.83c-1.32,9.31-10.63,18.36-20.23,18.81-8.07.34-14.67-7.95-13.07-15.73,1.72-9.36,11.02-17.77,20.71-17.49-1.41-15.18-4.93-30.29-8.76-45.04-7.23,1.1-14.39,4.53-20.74,8.18-6.57,3.98-13.63,8.8-17.96,15.1.08.51.15,1.06.2,1.47,1.19,11.1,1.85,22.31,2.24,33.45.17,5.96.25,11.92-.11,17.94-.19,2.51-.35,5.1-1.16,7.54-.76,2.16-2.85,3.74-4.47,5.12-4.59,3.47-9.74,6.59-15.37,7.93.25-15.8-10.97-20.45-10.97-20.45,5.93-4.8,15.85-6.61,22.86-5.39.09.01.18.03.27.05.93.14,1.76.36,2.47.63v-.13c0-10.06-1.16-20.06-2.77-29.98-1.47-10.18-4.3-20.25-5.97-30.33,4.55-9.94,13.34-16.85,22.55-22.14,9.29-5.14,19.92-8.22,30.76-7.95.79.02,1.45.53,1.69,1.23,6.53,18.05,11.3,36.54,15.24,55.29,1.32,7.21,2.97,14.44,2.59,21.89Z"/>
      <path class="cls-1" d="M397.44,372.37c-3.05-1.83-6.39-3.17-9.63-3.3-10.97-.19-10.36,14-26.03,12.48,4.41,10.77,7.85,21.77,10.69,33.04.45,1.85.89,3.7,1.29,5.57-.79.28-3.72,1.35-7.86,3.52-2.64-16.71-10.01-32.26-15.45-48.22-2.06-5.83-4.06-11.71-5.35-17.92-.37-1.65,1.69-2.85,2.95-1.73,1.79,1.33,3.69,2.76,5.77,3.61,4.1,1.97,8.52,1.86,12.82.45,3.76-1.14,7.77-3.37,12.02-3.44,10.03-.4,17.61,3.66,22.13,12.77,1.13,2.1-1.36,4.41-3.35,3.17Z"/>
      <path class="cls-1" d="M400.49,185.42c-.89,6.8-7.68,13.31-14.69,13.65-6.04.26-11.01-5.94-9.82-11.77,1.27-6.66,7.46-12.46,14.26-12.72-.98-9.97-3.28-19.93-5.78-29.65-1.93.36-3.93.99-5.87,1.75-7.21,3.02-14.99,7.46-19.7,13.77.89,7.95,1.29,15.97,1.55,23.96.03,5.74.4,11.64-.84,17.34-.43,1.77-2.11,3.14-3.4,4.19-4.8,3.55-12.1,7.74-18.16,5.2-3.18-1.58-4.48-5.5-3.98-8.84.37-2.27,1.79-4.18,3.48-5.49,4.35-3.15,10.6-4.62,15.98-3.59.05,0,.1,0,.15.03.66.1,1.25.25,1.75.44-.06-7.01-.94-13.95-2.13-20.82-1.22-6.87-2.73-13.68-4.31-20.49-.06-.23-.03-.46.06-.66,3.16-7.03,9.26-11.87,15.71-15.63,6.48-3.63,13.92-5.83,21.55-5.66.78.02,1.43.51,1.68,1.19,4.6,12.6,7.94,25.33,10.7,38.39.92,5,2.17,10.29,1.81,15.41Z"/>
      <path class="cls-1" d="M530.11,119.05c-2.17,1.13-4.82,1.01-7.01-.02-7.62-3.87-5.47-15.33,1.14-19.25-1.8-3-3.92-5.95-5.93-8.76-2.25-3.08-4.59-6.09-7.02-9.03-5.43,4.08-10.8,11.97-12.26,18.29,3.11,5.14,6.05,10.75,8.73,16.1,1.88,4.03,4.05,8.08,5.02,12.51.08.52.09,1.2-.07,1.74-1.61,4.88-6.66,11.98-12.26,12.1-2.83-.09-5.07-2.48-5.82-5.06-1.41-5.92,5.62-11.57,11.11-12.8.07-.02.13-.03.19-.04.35-.09.68-.14.98-.16-2.37-4.84-5.28-9.37-8.37-13.75-3.12-4.37-6.4-8.61-9.75-12.83-.15-.18-.22-.39-.23-.61-.11-6.04,2.57-11.44,5.88-16.26,3.34-4.7,7.86-8.71,13.32-11.13.71-.31,1.5-.14,2.02.36,7.37,7.31,13.85,15.09,20.06,23.33,2.07,2.83,4.18,5.7,5.76,8.86l.32.64.29.81c1.65,5.31-1.01,12.31-6.1,14.96Z"/>
      <path class="cls-1" d="M445.36,224.34c-.14,3.18-1.86,6.19-3.95,8.34-5.21,5.3-15.66,9-21.36,2.61-1.33-1.57-1.86-3.56-2.22-5.52-1.92-11.89,11.7-13.14,20.21-11.47.77-6.89-1.01-13.74-2.57-20.4-1.65-6.7-3.71-13.29-5.63-19.98-.7-2.79-1.76-5.31-1.8-8.32.06-.95.65-1.93,1.62-2.25,3.59-1.17,4.94,5.58,5.89,7.84,3.72,11.7,6.37,23.66,8.44,35.74.66,4.4,1.49,8.84,1.37,13.41Z"/>
      <path class="cls-1" d="M527.44,54.42c-3.87.83-8.86-.81-9.92-5.05-.59-2.26-.75-4.51.24-6.74,3-5.38,10.26-4.57,15.28-3.42.69-5.17-.48-10.34-1.5-15.38-1.07-5.07-2.45-10.06-3.69-15.16-.44-2.29-1.4-4.42-1.04-6.89.15-.6.56-1.15,1.1-1.47,1.39-.73,2.68-.06,3.38,1.03,1.6,2.89,2.14,6.02,2.98,9.1,2.37,10.45,4.28,20.61,4.72,31.41.6,6.63-5.54,11.64-11.55,12.57Z"/>
    </g>
    <g id="Tracs_noirs" data-name="Tracs noirs">
      <path class="cls-1" d="M176.59,391.27c.07,1.36.05,2.62-.06,3.76.06-1.17.09-2.43.06-3.76Z"/>
      <path class="cls-1" d="M176.93,630.39s-.02.03-.03.04c-.26.38-.51.74-.76,1.11,5.34-10.26,7.92-24.97-5.26-28.86-3.04-1-8.05-2.01-13.49-2.48-10-.89-21.43.03-24.55,6.1-1.25,2.99-1.48,6.86-.95,11,.1.77.23,1.55.38,2.33,1.33,6.9,4.61,14.2,8.73,19.15,1.64,1.96,3.4,3.56,5.23,4.61,2.36,1.38,4.72,2.27,7.03,2.7,1.55.29,3.09.37,4.58.25,3.95-.31,7.66-1.97,10.87-4.79-.21.26-.41.53-.62.79-2.49,2.2-5.26,3.77-8.25,4.65-3.32.98-6.93,1.12-10.74.32-1.35-.27-2.72-.67-4.11-1.18-3.16-1.22-6.24-3.26-9.07-5.87-10.21-9.4-17.09-26.16-12.1-38.07,3.5-7.26,10.39-10.44,18.19-11.12h.02c10.71-.95,23.12,2.79,30.88,7.07,13.35,7.01,10.1,21.17,4.02,32.25Z"/>
      <path class="cls-1" d="M375.89,683.24c-1.67,8.03-11.56,9.82-16.54,3.88-.21-.24-.4-.5-.59-.77.4-.61.82-1.17,1.26-1.68,4.24-4.97,10.09-5.27,15.87-1.43Z"/>
      <path class="cls-1" d="M225.56,785.41c.07-.03.13-.06.2-.09-.19.03-.28.06-.2.09Z"/>
      <path class="cls-1" d="M589.96,414.11c9.41-4.17,18.08-9.92,25.39-17.35,5.66-5.75,9.45-14.23,4.83-21.82-7.09-11.64-23.36-17.36-36.51-16.83-1.83.05-3.67.31-5.49.74-6.12,1.45-11.94,4.93-15.93,9.74-2.27,2.65-3.73,5.78-4.49,9.09-.07.31-.13.62-.19.93-.23-.26-.47-.52-.7-.77-4.31-4.58-9.97-7.85-16.1-9.61-4.52-1.3-9.31-1.77-14.01-1.33-2.58-3.15-5.35-6.3-8.96-8.34-1.74-1.02-3.57-1.66-5.44-1.95-.47-1.97-1.21-3.85-2.17-5.61-6.06-10.63-17.02-17.12-28.17-21.06-4.62-1.37-12.44-3.69-16.66.06-.17.16-.33.32-.49.49-3.39,3.56-4.95,8.13-6.44,12.52-1.49,4.99-2.45,10.21-2.6,15.45h0c-.04,1.37-.03,2.73.06,4.08.3,5.3,1.52,10.5,4,15.37.78,1.52,1.68,2.93,2.66,4.21,3.35,4.35,7.76,7.25,12.59,8.21,4.49.89,9.35.1,14.06-2.76,0,.05.02.1.03.15-2.72,2.69-5.29,5.51-7.73,8.45-5.42,6.48-10.18,13.5-14.29,20.86-1.24,2.17-2.4,4.37-3.51,6.6-.54-.55-1.19-1.03-1.94-1.45-3.07,1.84-4.75,3.22-5.7,5.88-.32,1.75-.06,3.07.49,4.65-.93.51-1.86,1.02-2.79,1.52l-3.18,1.74s-.01,0-.02,0c-2.02-.19-3.99-.61-5.74-1.47-2.63-1.39-3.77-3.51-4.45-6.34-.01-.05-.02-.1-.03-.15-.12-.52-.23-1.08-.33-1.65-.03-.15-.03-.12-.01-.23.29-1.33,1.03-2.35,2.1-3.64,4.21-4.59,9.72-8.76,15.39-11.97,1.28-.72,2.57-1.39,3.85-2.01,1.36-.68,3.13-.33,4.68-.14,1.5.23,3.05.55,4.64.94-2.77-3.37-6.78-6.61-11.47-5.99-2.01.17-4.33.66-6.77,1.45-10.93,3.5-24.14,12.72-21.78,23.66.23.9.5,1.75.8,2.55.3.77.62,1.5.98,2.18,2.16,4.11,5.42,6.61,9.14,7.61-5.9,3.04-11.91,5.84-18.05,7.99-1.72.64-3.44,1.21-5.16,1.71-.17-1.62-.4-3.24-.72-4.84-.05-.31-.11-.63-.18-.94-.07-.32-.13-.63-.2-.95-.09-.41-.18-.82-.28-1.23-.02-.09-.04-.17-.07-.26-.03-.12-.06-.25-.1-.37-.16-.61-.33-1.22-.51-1.82-.09-.3-.18-.6-.28-.9-.09-.29-.19-.59-.29-.88-.14-.42-.3-.84-.45-1.25-.02-.04-.03-.08-.04-.11-.16-.41-.33-.82-.5-1.23-.1-.24-.2-.48-.31-.72-.07-.16-.14-.32-.22-.48-.13-.29-.26-.57-.4-.85-.17-.34-.33-.66-.51-.99-.17-.33-.35-.65-.53-.97-.01,0-.01-.01-.01-.01.38-.28.74-.6,1.07-.95.94-1,1.72-2.11,2.35-3.29,2.48-4.68,2.54-10.52.55-15.45-1.45-3.58-3.99-6.69-7.48-8.53-3.77-2-8.67-.76-10.33,3.18-1.68,3.84-1.35,8-.81,11.92-.27-2.45-.02-4.99,1-7.17.76-1.84,2.8-4.24,4.72-3.63,1.4.72,2.01,2.39,2.64,3.91,1.17,3.36,2.91,11.13,1.56,15.23l-9.54-6.31-.03-.02h-.01s-.01-.01-.01-.01c-.02,0-.03-.01-.05-.01-.04,0-.07,0-.11-.02-.08-.01-.16-.03-.23-.04-2.59-.44-5.33-.52-8.14-.31-.5.04-1.01.08-1.52.15-.35.04-.7.08-1.05.12-2.38.3-4.74.79-7.06,1.45-1.95.55-3.87,1.21-5.76,1.97-.7.28-1.4.58-2.08.89-.7.3-1.38.62-2.06.96-.38.18-.75.37-1.12.56-.93.48-1.85.98-2.76,1.5h0s-.02.02-.03.02c-.14.08-.27.16-.41.24-.02,0-.03.02-.04.02h0s-.01.02-.01.02h0s-.02,0-.02.01h-.01c-.24.14-.48.28-.71.43-.28.16-.55.33-.82.5-.39.24-.76.48-1.14.72-.73.46-1.45.95-2.16,1.44-3.62,2.55-6.69,5.76-9.72,8.97-.1.1-.19.2-.29.3-4.5-1.41-9.06-2.74-13.66-3.86-.34-.08-.69-.16-1.03-.25-.33-.07-.67-.15-1.01-.23-6.08-1.39-12.24-2.39-18.42-2.71-5.18-.27-10.39-.06-15.58.8-2.86.52-5.66,1.25-8.4,2.2h-.01c-6.09-2.07-12.46-3.19-18.95-2.78-.46.04-.95.1-1.45.18h-.02c-1.37.21-2.83.58-4.07,1.18-1.24.68-1.88,1.31-2.56,2.19-2.72,3.96-3.49,8.33-4.16,12.83-.03.15-.06.3-.08.46-.17,1.37-.28,2.76-.35,4.17-3.03,2.03-6.04,4.02-9.06,5.88.27-.29.53-.6.75-.91.1-.1.17-.2.24-.31.09-.1.16-.2.23-.3.13-.17.25-.34.36-.52.12-.18.23-.36.33-.54.27-.46.47-.87.62-1.21.12-.22.2-.43.27-.66,0-.02.02-.05.03-.07,0-.03.01-.06.03-.08,0-.03,0-.05.02-.08.04-.13.07-.21.09-.23-.12-.32-.25-.65-.38-.97.07.15.13.31.19.46-1.62-4.55-3.89-8.83-6.82-12.53-.87-1.11-1.81-2.18-2.81-3.18-3.05-3.06-6.66-5.57-10.83-7.29-1.7-.68-3.5-1.3-5.36-1.83.8-.51,1.56-1.12,2.3-1.84,2.5-2.39,4.05-4.98,4.79-7.62.1-.34.18-.68.25-1.02.07-.35.13-.71.17-1.06.76-6.03-2.46-12.11-7.95-16.54-.15-.12-.31-.24-.46-.35-.15-.12-.3-.23-.45-.34-.01,0-.01-.02-.02-.02-3.95-2.86-8.21-5.3-13.27-5.83-1.42-.09-2.9.16-4.28.42-2.63.62-5.11,1.46-7.51,2.45-3.26,1.36-6.34,3.02-9.31,4.85-5.67,3.82-13.14,9.19-12.8,17.01.19,1.38.55,2.7,1.08,3.98.43,1.05.96,2.07,1.59,3.06,2.09,3.31,5.06,5.08,8.36,5.75-5.91,3.54-10.88,8.67-14.67,14.6-1.27-.97-2.57-1.9-3.9-2.76h0c.3-1.02.53-2.07.72-3.13.99-5.48.7-11.51-.94-17.03-1.73-5.84-4.96-11.13-9.76-14.62-.62-.45-1.26-.88-1.93-1.26,1.14-.24,2.27-.53,3.37-.89,4.6-1.47,8.63-3.99,10.62-8.14.69-1.43,1.13-3.05,1.27-4.89-.23,1.94-.75,3.61-1.51,5.03-1.86,3.54-5.16,5.56-9.07,6.55-7.14,1.8-16.31.15-22.51-2.03,1.41-1.74,2.66-3.59,3.71-5.52,3.44-6.31,4.82-13.47,2.83-20.69-8.64,3.63-12.94,14.53-9.11,22.79.52,1.14,1.21,2.22,2.05,3.23-2.13-.74-4-1.65-5.62-2.73-5.22-3.46-7.72-8.66-6.75-15.52,1.88-8.61,10.67-17.97,18.93-22.55.9-.5,1.79-.94,2.67-1.32,14.94-6.56,23.83,15.59,24.44,29-.2-12.55-4.4-31.34-16.27-35.53-5.01-1.55-10.26-.92-15.21,1.03-7.3,2.85-13.96,8.54-18.24,14.23-2.95,3.98-5.41,8.83-5.91,14.02-.19,2.33-.05,4.72.44,7.04h0c.17.85.39,1.68.66,2.5v.02c.79,2.43,1.98,4.7,3.59,6.67.82,1.02,1.75,1.95,2.79,2.77.75.61,1.54,1.15,2.34,1.64-6.44,1.78-11.52,5.47-15.81,10.95-.57.73-1.13,1.49-1.67,2.28-.55.78-1.07,1.57-1.57,2.38h-.01s0,.02-.01.02h-.01c-4.72,1.53-9.53,3.13-13.43,6.42-5.64,4.59-8.18,13.55-4.29,19.97,0,.03.02.05.04.08.76,1.2,1.8,2.24,3.03,3.11-3.57,5.48-8.38,10-13.29,14.27-7.37,6.43-16.4,9.86-26.21,8.33-7.69-1.09-15.29-4.83-17.28-12.92-.8-2.91-.83-6.01-.33-8.99,5.82,2.33,11.53,3.87,16.44-1.86-5.43,6.15-11.49,3.08-16.91-.89,7.22,1.05,11.27-7.59,5.79-13.02-3.51,1-5.54,2.07-7.09,4.57-1.1,2.55-.7,4.29-.16,7.52-.09-.01-.19-.02-.27-.02-2.42-.27-5.03-.8-7.14-1.96-.89-.49-1.69-1.1-2.35-1.85-1.96-2.37-1.96-5.29-1.74-8.32.29-1.3.12-2.48.93-3.59,2.27-3.08,6.1-4.99,9.95-6.64.58-.25,1.15-.49,1.72-.73,2.45-.91,5-1.78,7.54-2.22.89-.18,1.63-.24,2.21-.27-.07-.09-.02-.07.07-.06,1.16.34,2.18,1.22,3.17,2.04,7.02,5.92,11.32,16.84,4.97,24.65,5.14-6.11,4.9-15.04,1.95-22.28-1.54-3.75-3.5-7.65-6.89-10.19-1.61-1.11-4.04-1.42-5.72-1.55-4.26-.17-9.1.45-13.62,1.99-5.82,1.98-11.11,5.5-13.89,10.84-1.24,2.36-1.35,5.36-1.18,8.01.09.81.19,1.62.33,2.44h0c.07.42.15.82.25,1.23.27,1.16.64,2.32,1.2,3.47.38.87.83,1.66,1.33,2.37h0c3.41,4.86,9.35,6.18,15.12,5.58-1.41,4.74-.82,9.93.83,14.53.97,2.66,2.45,5.15,4.35,7.25-4.74,1.51-8.75,5.36-9.11,10.66-.28,8.93,8.3,9.97,15,8.27-3.56.74-9.38-.71-9.13-4.86.66-2.76,3.75-3.67,6.17-4.53,2.8-.77,4.72-1.37,7.31-.39,1.07.47,1.81,1.25,2.01,2.61.25,3.31-2.65,6.2-5.8,7.03,5.88-1.45,10.82-6.4,9.15-11.87,3.2.4,6.58.48,9.61.15,17.25-1.66,29.44-10.92,37.52-25.84,2.19.54,4.49.82,6.72.86,2.11.05,4.15-.12,5.95-.48-1.79.31-3.76.35-5.74.14-5.79-.62-11.68-3.41-13.43-7.83-.97-2.43-.69-5.36,1.55-8.7,2.16-3.1,5.41-4.4,8.87-5.33-.1,1.33.21,2.7.93,3.9.96,1.62,2.67,2.91,5.12,3.35,2.34-2.52,3.62-4.05,3.9-6.68,0-.8-.24-1.56-.8-2.56-.1-.18-.2-.36-.32-.55.06-.02.11-.05.17-.07,4.74-3.06,11.36-8.49,16.67-4.95.59.42,1.26.98,1.72,1.54.08.08.34.36.42.44.21.11.32.3.48.67.54,2.54-.5,5.1-1.65,7.78-.08.17-.15.33-.22.5-1.12,2.38-2.54,4.68-4.11,6.87-3.04,4-6.46,7.98-10.84,10.55,4.43-2.53,8.22-6.09,11.99-9.54,2.44-2.45,4.89-4.74,6.9-7.42,1.43-1.89,2.64-3.96,3.51-6.42.67-2.21.65-4.58-.52-6.72-1.5-3.03-3.71-5.58-6.88-7.11-1.05-.49-2.11-.83-3.17-1.05,1.99-.84,4.15-1.3,6.31-1.54,7.8-.65,16.55.96,22.48,6.36,3.52,3.92,5.81,9.22,6.09,14.5.13,2.17-.28,4.31-.74,6.44-4.09-1.61-8.62-2.58-13.85-2.54h-1.34c-.24.01-.61-.01-.89.08-.93.23-1.33.5-1.7.72-.31.23-.62.46-.92.7-4.22,3.35-7.28,7.75-10.53,11.94-10.74,14.88-19.87,31.19-24.62,49.08-2.36,9.24-2.85,18.82-1.39,28.3.94,6.98,3.78,12.33,3.28,18.83-1.85,18.4-19.97,33.56-31.67,47.14-4.66,5.33-9.62,11.03-12.35,17.98-1.78,5.16-2.72,10.36-1.62,15.9,1.48,8.3,9.06,13.72,15.85,17.29,4.34,2.65,10.02,4.83,10.34,10.3.07.52-.03,1.19-.04,1.72-.09.57-.18,1.35-.33,1.91-.48,3.35-3.99,5.39-5.64,8.89-4.51,9.09,1.47,20.22,8.52,27.54-4.01,4.53-4.83,10.85-4.19,17.55.45,6,5.53,10.58,8.93,14.97,3.01,3.77,6.08,7.77,6.72,12.47.21,2.93-.31,5.96-.76,9.08-2.43,14.06-5.2,31.12,4.62,43.07.58.71,1.2,1.39,1.87,2.06,8.73,8.55,21.78,10.54,33.4,11.55,25.8,1.41,51.8-2.71,75.73-12.38,1.86-.75,3.7-1.53,5.53-2.35,7.74,2.78,13.81,8.98,18.18,15.94.53.92,1.75,3.04,2.25,3.94.5,1.04,1.46,2.96,2.01,4.1,17,40.54,10.9,94.63,1.18,136.61-1.97,8.26-4.24,16.45-6.73,24.59,2.94-7.98,5.68-16.05,8.12-24.22,11.54-40.96,18.15-85.2,7.77-127.15-3.48-12.85-9.14-25.81-19.57-34.61-1.62-1.33-3.36-2.56-5.19-3.63,11.89-3.85,20.95-10.02,27.42-18.5-.37.02-.73.04-1.09.06-8.98.7-14.94,5.02-27.78,11.39-2.66,1.32-5.62,2.73-8.96,4.21,0,0-.01.01-.02.01-.07.03-.13.06-.2.09-2.87,1.26-5.8,2.41-8.76,3.46-13.6,4.85-28.04,7.66-42.44,9.12-11.38.93-25.86,1.52-38.17-1.34h-.01c-4.65-1.08-8.99-2.66-12.74-4.9-6.68-4.34-9.18-11.96-9.13-19.88-.09-6.02,1.31-13.59,2.31-19.72.56-3.67,1.19-7.53.89-11.48-.72-6.87-4.7-12.7-8.8-17.78-2.36-3.1-5.01-5.52-6.59-8.92-.02-.05-.08-.13-.06-.14.03-.04.01-.07-.03-.1-.04-.84-.12-1.8-.12-2.64-.19-4.29.4-7.95,4.4-9.66.73-.35,1.38-.88,1.89-1.58.81-1.11,1.09-2.44.9-3.69-.19-1.29-.88-2.5-2.01-3.32-1.91-1.41-3.8-3.25-5.47-5.31-2.04-2.51-3.76-5.36-4.81-8.16-2.05-5.64.52-6.58,3.54-10.73,1.53-2.2,2.4-4.77,2.89-7.35,2.23-12.43-5.17-18.41-15.02-23.56-7.99-4.25-13.03-8.13-11.09-17.3,1.28-7.59,6.49-13.36,11.45-19.26,8.99-10.37,18.65-19.75,26.01-31.85,5.01-8.29,8.74-18.77,6.6-28.63-.97-4.64-2.46-8.53-3.22-13-2.37-12.6-.13-25.67,4.51-37.56,4.68-12.22,11.1-24.02,18.52-34.87,2.86-3.97,5.72-8.27,9.43-11.4h.19c.75,0,1.6-.09,2.35-.03.21,0,.42.01.63.02,8.41.32,14.98,3.64,21.12,7.96-.84,1.58-1.59,3.21-2.25,4.86-1.61,3.97-2.74,8.11-3.32,12.21-.7,7.24-1.22,15.05-.43,22.31-1.95-1.45-4.18-2.62-6.53-3.15-4.69-1.13-9.73-.23-13.93,2.11-4.35,2.44-7.8,6.42-9.04,11.32-2.3,8.63.22,17.67,4.96,24.8.04.05.07.11.11.16.77,1.04,1.5,2.03,2.84,3.17,1.94,1.47,3.4,1.83,5.35,2.53,5.08,1.46,12.48,2.59,19.47,2.5,3.8-.04,7.47-.45,10.59-1.36.88,2.04,1.66,4.11,2.42,6.18.19.59.38,1.18.57,1.78,6.38,20.44,7.93,44.19,2.82,64.94-2.24,8.97-6.42,16.82-11.42,24.22-.01.01-.02.03-.03.04-.26.38-.51.74-.76,1.11,0,0,0,.01-.01.01-1.09,1.58-2.21,3.13-3.36,4.67-1.86-2.61-3.71-4.42-5.51-6.16-3.71-3.25-7.42-6.12-11.65-8.19-2.81-1.39-5.85-2.42-9.27-2.97.61,4.04,2.34,7.66,4.85,10.62,3.19,3.78,7.64,6.48,12.59,7.61,2.73.53,5.57.64,8.52-.28-1.18,1.58-2.37,3.14-3.59,4.7-.21.26-.41.53-.62.79-1.67,2.14-3.36,4.27-5.03,6.41-2.71,3.46-5.38,6.95-7.87,10.54-.37.52-.73,1.05-1.09,1.58-2.19,3.23-4.22,6.55-6.02,10.01-1.77,3.61-3.5,7.4-4.55,11.3-1.39-1.75-3.8-2.65-6.59-2.71-6.43-.16-14.87,4.13-17.66,12.9-3.14,9.21,4.2,17.43,13.17,11.61,3.38-2.19,6.1-5.19,8.39-8.35-2.29,2.97-5.74,5.14-9.43,5.56-1.62.19-4.55-.08-4.61-1.75.09-.41.22-.7.45-1.36,1.17-3.2,4.04-6.96,6.63-9.65,1.46-1.48,3.17-3.02,5.1-3.71,2.1-.82,4.05.33,4.39,2.73.17.96.14,1.94-.05,2.91,0,.04-.01.07-.03.1-.49,1.56-1.28,3.02-2.2,4.39-.02.17-.04.34-.05.51-.53,4.81-.4,9.73.19,14.53,1.18,9.59,5.02,18.91,11.56,26.07.62.65,1.25,1.29,1.91,1.89,1.41,1.34,2.9,2.59,4.47,3.72-4.86,1.49-8.83,4.71-10.69,10.98-2.06,6.38.23,12.29,4.57,16.6.88.89,1.85,1.71,2.89,2.45,3.77,2.6,7.94,5.09,12.49,5.73-5-.82-10.41-4.49-13.61-8.99-1.17-1.66-2.05-3.43-2.49-5.21-1.32-5.18,2.15-11.6,7.26-12.95,1.94-.46,3.98-.44,6.09-.25-1.79,2.99-1.35,7.24,1.95,9.82.41.33.87.62,1.37.89,5.05-3.29,6.39-5.91,5.21-10.13,3.9-1.19,8.81-2.82,12.59-1.53,2.54.69,4.67,3.76,5.69,6.47.39.8.47,1.47.33,2.4-1.77,7.9-13.04,16.96-21.45,19.23,6.11-1.48,11.75-4.74,17.07-8.01,7.07-4.64,12.52-9.83,9.63-18.73.63-.2,1.26-.44,1.87-.69,5.8-2.38,10.45-6.94,13.72-12.2,1.5.64,3.02,1.21,4.53,1.72,7.99,2.74,19.06,3.62,23.08-5.51-5.51,11.38-19.52,5.53-27.1-.88,6.9-4.83,11.57-11.82,11.93-20.52-1.12.05-2.22.22-3.27.5-7.33,1.97-12.76,9.33-12.01,16.76-3.85-4.56-4.44-9.75-1.52-15.55,2.48-4.36,7.85-8.42,13.56-11.02,3.81-1.73,7.77-2.81,11.12-2.88,5.19-.23,8.02,3.97,9.34,8.73,1.95,7.45,1.39,15.73-1.31,23.01,4.04-10.49,8.2-29.81-2.02-36.59-5.94-3.59-13.38-3.32-20.19-1.06-4.56,1.51-8.83,3.92-12.19,6.66-2.35,1.97-4.69,4.54-6.27,7.58-.32.61-.61,1.24-.86,1.89-.2.54-.39,1.09-.55,1.65h0c-1.77,5.92-1.31,12.41,2.55,17.4,1.34,1.79,2.93,3.27,4.7,4.56h.01c.61.43,1.23.84,1.88,1.22-4.3,3.64-9.23,6.47-14.71,7.85-.18.05-.37.09-.55.13-5.43-5.24-14.11-5.13-21.67-2.4-.78-.07-1.57-.12-2.35-.16-1.87-.09-3.74-.08-5.54.08-1.73-1.04-3.33-2.23-4.8-3.56-5.64-5.09-9.31-12.13-11.21-19.82-.02-.09-.05-.19-.06-.27-.06-.24-.12-.49-.17-.73-.13-.56-.25-1.12-.35-1.68-.03-.15-.06-.31-.08-.46-.1-.52-.18-1.03-.26-1.55-.04-.26-.08-.51-.11-.76-.04-.26-.07-.51-.1-.77-.06-.5-.12-1-.16-1.5-.04-.36-.07-.72-.1-1.08v-.09c-.02-.28-.05-.56-.07-.84-.02-.3-.03-.61-.04-.91-.02-.24-.02-.47-.03-.71-.01-.18-.02-.37-.02-.55-.01-.38-.01-.76-.01-1.14,0-.36,0-.73.01-1.09.02-2.61.23-4.92.55-6.74.15-.9.32-1.77.49-2.62.04-.21.08-.43.13-.65.36-1.78.76-3.47,1.19-5.07-.07.24-.13.48-.18.73.14-.54.29-1.08.45-1.61.83-2.96,1.85-5.86,3.08-8.67.05.53.14,1.06.24,1.58.63,3.4,2.22,6.22,4.42,8.47,3.32,3.42,8.01,5.53,12.81,6.36,5.62,1.09,11.28,1.18,16.9.55,2.74-.38,5.58-.8,7.97-2.25-7.22,3.9-22.1,1.8-29.64-4.63-2.12-1.79-3.65-3.93-4.28-6.38-1.56-6.78,2.25-13.09,6.45-18.53.29-.37.6-.74.93-1.11,1.46,2.79,3.23,4.94,5.81,6.81.62.46,1.29.9,2.02,1.33,1.58.85,3.39,1.77,6.11,2.33.91-2.61.83-4.82.28-6.93-1.13-4-4.37-7.14-8.21-8.27.97-.44,1.98-.73,3.03-.81,12.9-.03,19.34,17,19.22,28.23-.14,2.6.01,5.86-1.72,7.96,1-.98,1.21-2.5,1.52-3.81.76-4.13.86-8.32.67-12.53-.49-8.85-2.65-18.3-9.82-24.36-3.59-2.97-7.35-4.25-11.02-4.24,7.94-9.25,14.42-19.71,19.12-30.98,6.26-13.77,7.99-29.26,6.67-44.23-.78-9.64-2.72-19.15-5.29-28.47,3.56,2.92,7.95,4.5,12.76,2.98-7.57,2.14-12.98-2.68-16.2-8.9-1.4-2.71-2.39-5.68-2.97-8.46,2.37-3.04,3.99-6.55,4.27-10.46,7.16,2.89,14.5,2.48,20.91-2.41h0c.18-.14.35-.28.53-.42-.11-.13-.22-.26-.33-.39-5.49-6.32-15.68-6.75-21.4-1.06-.25-1.17-.64-2.31-1.16-3.39-.28-.6-.59-1.17-.94-1.72-.05-.09-.11-.18-.16-.27-.23-.36-.47-.7-.72-1.03,1.39-2.75,3.5-4.72,6.19-6.06,3.92-2.17,8.41-2.2,12.76-1.26,1.11.23,2.21.53,3.29.87,5.8,1.78,11.57,4.72,16.16,8.64,4.86,4.04,7.39,9.3,4.91,15.22-4,9.73-14.24,17.42-24.18,20.79,8.49-2.76,16.29-7.37,22.89-13.49,8.95-8.36,9.97-18.34,2-27.88-8.5-10.08-25.05-18.2-38.19-13.07-.22.07-.43.16-.64.25-5.69,2.28-10.42,7.16-12.31,12.98-.18-.14-.36-.27-.54-.4h0c-1.69-5.16-3.19-10.45-4.21-15.82-1.61-8.46-2.06-17.08-.25-25.56.28-1.17.62-2.33,1.02-3.49.43-1.26.93-2.5,1.5-3.72,3.16,2.51,6.35,5.1,9.79,7.47,7.28,5.02,15.63,9.05,27,9.32,10.01.5,18.96-2.95,27.27-7.88,5.47-3.23,10.66-7.1,15.71-10.9-.52,12.01,2.55,25.07,10.79,33.72,2.21,2.33,4.79,4.33,7.78,5.92,9.09,4.78,17.84,1.92,24.93-3.77-1.5,1.83-3.01,3.66-4.51,5.51-3.08,3.8-6.12,7.64-9.02,11.57,0,0,0,.01-.01.01-2.49,3.37-4.9,6.8-7.15,10.31-1.15-2.13-3.41-3.66-5.94-4-10.66-1.46-21,8.92-19.54,19.57.57,4.13,4.27,7.5,8.59,6.56,2.09-.45,3.96-1.36,5.66-2.52-2.74,5.7-5.25,11.67-7.31,17.8-1.58,4.7-2.89,9.5-3.84,14.34-.04.22-.08.43-.12.65-.25,1.35-.48,2.71-.66,4.07-.02.08-.03.16-.04.24-.43,2.27-.7,4.66-.7,7.06v.25c-.14,2.84-.13,5.68.06,8.51.32,4.97,1.18,9.91,2.68,14.77.33.85,1.06,3.06,1.39,3.88.61,1.49,1.33,2.99,2.11,4.47-4.95-.96-10.19.58-13.84,3.9-1.51,1.36-2.74,3.01-3.57,4.92-.21.48-.4.96-.56,1.46-.16.43-.29.86-.4,1.3-1.71,6.38-.26,13.63,3.26,18.86.2.32.42.63.65.93,3.13,3.3,7.95,4.12,12.15,5.1,5.1.84,14.09,2.55,18.7-.79-5.72,3.93-17.78-1.07-23.45-5.86-.83-.7-1.52-1.4-2.04-2.06-1.15-4.44-1.29-10.79.69-14.67.37-.84.95-1.57,1.66-2.18,1.6-1.38,3.86-2.17,5.86-2.21,2.32.05,4.27,1.31,6.05,2.93-3.81-.1-7.33,3.62-5.84,8.74,3.14,1.15,5.07,1.73,7.46.84.68-.35,1.2-.9,1.75-1.84.42-.72.87-1.58,1.42-2.87.1.06.21.11.32.16.03.01.07.03.1.04.01,0,.02.01.03.02,2.52,1,4.83,2.23,6.83,3.98-.04-.02-.07-.04-.11-.07,4.1,3.51,4.03,8.78,1.12,13.11,3.09-4.48,3.33-8.63,1.54-12.37,4.88,2.65,10.49,4.17,16.03,3.22,6.09-.92,11.06-5.33,13.79-10.71.08.06.15.11.23.17,4.05,3.12,7.58,4.89,11.96,1.76-5.21,3.51-8.64-.36-11.8-4.74-.1-.16-.48-.24-.65-.33-3.38-1.27-5.45-2.97-5.75-5.62h0c-.13-1.13.06-2.39.59-3.88.33-.95,1-2.56,1.45-3.46.13-.16.25-.31.38-.45.64-.66,1.37-1.11,2.45-1.68,3.71-1.77,9.02-2.94,13.35-2.91.04,0,.11.01.15-.04.05-.03-.05-.05-.07-.09-.15-.16-.06-.19.06-.11,1.93,1.53,3.06,3.97,4.04,6.27,2.13,5.04,1.65,11.56-2.35,15.52,6.51-6.13,7.45-17.29,3.99-25.33-.25-.53-.67-1.14-1.08-1.59-.4-.46-1.08-.93-1.57-1.22-5.7-2.91-14.5-2.86-20.84.5-3.29,1.73-5.91,4.35-7.11,7.89-.51,1.83-.78,3.69-.87,5.58-.13,3.94.97,7.1,3.03,9.33,1.91,2.07,4.64,3.34,7.98,3.69-1.61,1.61-3.37,3.07-5.33,4.21-7.9,4.93-17.65.77-24.11-4.73-6.8-5.68-11.14-13.88-13.01-22.48-.39-1.39-.58-2.83-.75-4.27,4.92,1.49,10.8.1,15.59-1.32,6.32-2.1,15.1-5.23,17.62-11.96-3.45,8.7-17.47,9.78-25.38,8.71-2.05-.3-4.14-.69-5.63-1.97-1.3-1.24-2.05-2.82-2.44-4.57-.87-3.79-.05-8.36.57-11.94.16-.78.33-1.55.52-2.29,2.66,3.72,6.14,5.85,10.05,6.04,2.28.12,4.71-.42,7.22-1.69-.81-4.58-4.27-7.74-8.21-8.63-2.79-.63-5.82-.13-8.31,1.8.74-2.01,1.77-3.79,3.44-5.23.59-.48,1.27-.9,2-1.24,2.74-1.31,6.3-1.67,9.2-.85,7.91,2.16,18.09,10.8,17.4,19.97.66-7.12-4.51-14.37-9.09-19.42-3.74-4.07-9-7.54-14.79-7.72-1.98-.15-3.84,0-5.55.44,2.49-7.72,5.53-15.3,9.33-22.5,3.56-7.05,7.79-13.66,12.35-20.04,4.7-6.57,9.77-12.9,14.85-19.2,2.35-2.92,4.7-5.83,7.02-8.76.28-.36.56-.71.84-1.07,5.92-7.33,12.17-14.37,18.67-21.19-2.17,5.81-4.12,11.74-5.57,17.79-.12.47-.23.95-.34,1.42-1.03,4.53-1.76,9.12-2.1,13.76-3.17-.8-7.26-.26-11.05,1.86-2.06,1.15-4.03,2.76-5.72,4.87-2.06,2.63-3.67,5.78-3.91,9.64-.43,4.15,2.14,9.33,6.87,9.71,5.92.26,10.37-4.35,13.94-8.42-2.47,2.66-5.95,4.56-9.57,4.52-1.72-.07-3.94-.63-3.47-2.46.98-3.1,3.19-6.08,5.62-8.68.89-.94,1.8-1.84,2.69-2.67,6.41-5.86,9.1-1.94,8.11,2.98,0,0,0,.02,0,.02-.64,1.88-1.72,3.64-2.97,5.2h-.01c-.07.1-.1.23-.09.34.02.11.04.23.06.35h0c.55,3.44.92,7.98,2.07,11.2.51,1.64,1.35,3.69,2.24,5.59-3.46-.25-7.05.56-10.08,2.04-.37.18-.74.36-1.09.55-12.7,6.91-11.28,24.12-3.48,34.7,1.2,1.63,2.55,3.1,4.02,4.35,6.82,4.89,37.6,6.02,41.35-2.83-4.97,9.09-27.36,4.39-35.66-1.05-.56-.37-1.06-.74-1.48-1.11-3.76-5.83-5.58-14.97-3.84-20.45.88-3.08,3.48-5.3,6.53-6.59.36-.15.72-.29,1.08-.41,1.48-.48,2.98-.68,4.58-.47.05.01.09.01.14.02,3.23.51,6.29,2.43,9.2,4.57-1.75-.09-3.45.43-4.87,1.39-2.97,2.01-4.74,5.91-3.25,10.08,3.21.27,5.63-.05,7.52-1.04,2.39-1.23,3.94-3.51,5.19-6.98.12.09.24.15.34.18,2.59.64,5.09,1.34,7.45,2.42,3.55,1.54,6.11,3.77,7.57,6.46.01.02.02.03.02.05l.6,1.33h.01s.03.07.04.1c0,.02.02.06.03.09,1.23,3.36.88,7.3-1.2,11.41,2.21-4.34,2.66-8.13,1.85-11.45,3.32.19,6.65-.59,9.61-2,7.67-3.7,13.68-9.99,21.48-13.39,5.99-2.6,13.15-3.69,19.4-1.46,7.68,3.58,11.74,11.87,14.76,19.39.32.87.63,1.76.93,2.66,1.6,4.74,2.93,9.77,3.92,14.94.11.52.21,1.03.3,1.55,1.81,10.01,2.42,20.49,1.5,30.34-.23,2.43-.55,4.82-.97,7.16-2.25-1.28-5.17-1.75-7.83-1.25-6.94,1.13-12.54,5.77-14.96,12.37-2.21,5.62.01,13.45,7.13,12.86,1.93-.21,3.71-.84,5.37-1.69-5.69,8.05-12.87,15.17-20.49,21.63-7.68,6.29-16.13,11.65-25.2,15.66-.55-2.39-1.27-4.73-2.03-6.91-5.19-14.66-15.78-21.37-28.56-12.26-.72.5-1.45,1.06-2.19,1.68-6.48,5.31-10.97,12.1-11.91,18.68,0,.03,0,.07,0,.1-.83,5.98,1.3,11.79,7.54,16.18,1.53,1.08,3.31,2.07,5.36,2.96,6.93,2.93,16.07,5.45,23.37,2.73-7.39,2.66-16.87-.98-23.06-6.32-1.61-1.38-2.99-2.88-4.06-4.42-2.95-4.1-2.32-8.23-.16-12,.17-.32.37-.64.57-.96,2.26-3.51,5.72-6.67,8.64-9.17.34-.27.69-.54,1.04-.81,1.54-1.17,3.15-2.23,4.62-2.96,1.39-.68,2.52-.84,4.2-.4,3.98,1.31,7.62,5.55,10.12,9.23,5.97,8.63,10.75,21.46-1.16,27.51,7.76-3.67,9.33-10.79,8.5-18.15,10.76-1.16,21.97-3.76,30.04-11.36.55,9.49,5.97,17.78,12.67,24.36-2.71.57-5.42,2.16-7.83,4.32-1.69,1.52-3.24,3.32-4.54,5.25-1.52,2.22-2.71,4.61-3.45,6.94h0c-.1.32-.19.62-.27.93-2.43,8.12-1.63,16.66,1.35,24.4.09.26.2.51.3.77,1.51,3.21,2.94,6.72,6.24,8.79,1.19.56,2.57.8,3.84.85.14,0,.28,0,.42-.01,10.15-.2,25.44-7.28,28.43-17.44-3.05,9.33-14.08,12.94-23.01,13.01-1.75-.04-3.48-.11-5.03-.58-.52-.16-1.02-.36-1.49-.62-.08-.08-.15-.14-.23-.2.14,0,.08-.05-.07-.37-.87-2.22-1.54-4.65-2-7.19-1.9-10.67.07-23.29,7.95-30.23.15-.12.29-.23.44-.34.75-.56,1.47-.96,2.37-.97.58.01,1.16.12,1.73.32,1.64.57,3.18,1.81,4.55,2.86.12.1.74.6,1.37,1.1-2.93.26-5.39,1.85-7.01,4.09-2.15,2.95-2.84,7.05-1.21,10.73.15.36.33.71.53,1.05,7.46-1.81,10.82-7.14,10.74-14.34.42,0,.83-.03,1.17.03,1.77.09,3.54.42,5.12,1.19,6.92,3.53,6.14,12.77,4.38,19.39,1.49-5.35,2.78-11.83.59-16.93,5.74,2.5,11.86,3.66,17.7,5.81.79.28,1.56.58,2.33.91,3.37,1.43,6.55,3.28,9.44,5.52-3.64,1.99-7.3,4.69-10,8.05-.34.43-.67.87-.98,1.32-1.64,2.38-2.79,5.07-3.16,8.04-.71,5.08,2.12,9.74,5.74,12.91,1.54,1.38,3.51,2.98,5.75,4.55,6.91,4.87,16.27,9.45,22.72,6.4-6.95,2.99-14.65-2.27-20.02-8.12-1.87-2.04-3.46-4.16-4.63-6.02-1.14-1.83-2.23-3.8-2.25-5.85.18-5.95,6.96-9.84,11.74-12.57.04-.02.08-.05.12-.07.27,2.13.78,4.13,1.56,6h0c1.63,3.92,4.44,7.25,8.64,9.83,3.85-6.1,2.06-14.27-3.11-18.51,4.22-.66,7.95.78,11.39,4.86,5.56,7.35,5.76,23.9-2.51,29.85,6.02-4.17,8.29-13.16,9.19-20.06.69-5.65-.05-12.07-3.75-16.76-4.84-6.86-12.52-8.5-19.82-6.59-3.85-5.33-9.87-8.94-16.2-10.69-3.9-1.25-7.95-1.96-11.56-3.74l-4.47-2.21c2.97-4.66,6.42-9.19,9.49-12.1,47.47-38.1,75.31-100.83,71.85-161.57.53.7,1.12,1.35,1.79,1.95,3.15,2.92,8.15,1.99,10.75-1.4,3.02-3.91,3.85-9.01,2.89-13.77-.28-1.39-.71-2.76-1.29-4.05,5.73.87,11.91.5,17.72-.91.14,2.31.5,4.6,1.14,6.8.78,2.69,1.99,5.26,3.74,7.61,6.63,8.63,16.22,5.59,24.22.61,7.27-4.69,14.56-11,15.65-20.43.66-14.33-18.36-22.08-30.41-20.93-2,.14-3.94.62-5.74,1.38-4.7,1.96-8.47,5.8-9.86,10.47-.03.1-.06.2-.09.3-.68,2.46-.7,5.15.15,7.89-7.28,1.6-14.83,3.22-20.8-.25-1.74-1.01-3.35-2.46-4.77-4.46-2.6-3.84-4.21-8.28-4.83-12.86.08-.01.17-.01.25-.02,7.78-.99,18.64-3.31,21.13-12.03,2.18-10.29-2.8-18.13-13.26-19.09,2.35-4.21,4.96-8.25,7.6-12.28,2.34-3.7,5.89-8.6,7.78-12.53,3.71-8.1,5.65-16.92,6.08-25.8.02-.28.03-.57.04-.85.15.22.3.44.46.65,4.91,6.68,12.56,10.49,20.96,7.12-9.53,3.45-15.69-1.53-19.57-7.72-.42-.68-.82-1.38-1.19-2.08.32-4.62.31-9.42-.57-14.15,6.78-.02,13.33-1.43,19.82-3.75,2.67-1.08,5.44-2.31,8.22-4.56-2.99-1.95-6-2.8-9.07-3.27-7.89-1.01-16.6,1.48-21.83,7.62-.05.04-.08.09-.11.13-.01-.04,0-.08,0-.11.08-3.57.98-6.8,2.65-9.54.24-.4.49-.78.76-1.15h.01c1.84-2.56,4.41-4.62,7.64-6.08,6.04-3.01,13.27-3.01,20.17-1.59h.01c4.04.83,7.97,2.16,11.47,3.65,4.93,2.41,10.77,5.81,10.97,11.84-.63,12.05-15.62,24.47-26.88,29.69ZM182.78,507.92s.04.04.07.05c.21.1.43.21.63.32-.07.36-.12.73-.17,1.09-.02.13-.04.25-.04.38-.02.4.03.79.16,1.17.2.55.57,1.06,1.08,1.44,2.31,1.7,4.09,3.77,4.71,6.44,0,0-.02-.23-.02-.26.54,2.49.29,5.39-.71,7.91-.3.79-.68,2.02-1.2,2.64-.21.32-.26.73-.11,1.11.04.11.09.21.13.32-1.28,1.05-2.92,1.7-4.56,2.11-.09.02-.16.07-.21.14-3.75.79-7.91.53-12.02-.32-5.22-1.07-10.34-3.07-14.39-5.07-.2-.11-.4-.21-.6-.32h-.01c-1.19-.66-2.44-1.41-3.39-2.33-.45-.43-.83-1.29-1.27-2.22-3.07-6.99-4.11-17.56-.11-22.01,1.09-1.38,2.79-2.54,4.59-3.34h.01c1.08-.48,2.2-.83,3.23-1.01,2.95-.55,5.69.36,8.32,1.93.3.17.6.36.9.56.04.04.08.06.12.09,1.37.87,2.7,1.96,4.02,3.11-2.35-.45-4.72.21-6.58,1.61-2.66,2.02-4.25,5.56-3.14,9.48,3.14.41,5.58.2,7.56-.66h0c.32-.14.63-.3.92-.49.21-.11.41-.24.61-.38,1.86-1.33,3.26-3.42,4.47-6.32.11.09.21.18.32.26,2.33.72,4.55,1.51,6.68,2.57ZM189.1,424.21c-.05-.12-.1-.25-.14-.38-.6-1.69-.98-4.26-.47-4.45,3.23-5.08,10.87-8.55,16.47-11.04,1.67-.68,3.28-1.33,4.91-1.83,1.37-.43,2.74-.77,4.17-.95,2.81.43,5.81,1.99,8.31,3.6.87.58,1.75,1.23,2.56,1.94.34.29.66.59.97.9h.01c.49.51.94,1.02,1.34,1.57.49.66.9,1.37,1.19,2.11.25.61.42,1.24.49,1.89.04.38.06.76.04,1.14-.03.63-.16,1.29-.38,1.96-1.02,2.91-2.97,5.62-5.9,7.02-.6.3-1.23.56-1.88.77-2.1-.3-4.23-.49-6.36-.55,3.2-2.83,3.4-8.55-1.38-11.58-3.15,1.63-4.9,2.78-6.08,5.29-.61,2.25-.13,3.92.64,6.51-3.22.31-6.35.94-9.28,1.94h-.01c-3.99-.49-7.59-1.97-9.22-5.86ZM245.31,464.52c-11.93,6.27-24.41,9.42-39.46,3.72-2.01-.78-3.92-1.69-5.74-2.7-6.11-3.42-11.27-7.99-16.45-12.41,5.43-8.94,14.41-15.86,24.96-16.48,15.03-.66,24.25,3.4,31.47,12.25,1.4,1.71,2.73,3.61,4,5.68v.02c1.53,2.47,2.99,5.17,4.43,8.15-1.07.62-2.14,1.21-3.21,1.77ZM280.57,530.23s-.02.04-.04.06c-1.68,2.43-4,4.57-6.18,6.05-.01.02-.03.02-.04.03-2.19,1.14-4.66,1.7-7,1.1-3.43-1.01-1.71-4.03-.34-6.08,2.36-3.32,8.93-10.57,13.15-10.38.6.12,1.35.87,1.66,1.97.65,2.42.02,5-1.21,7.25ZM579.49,494.77c1.38-.1,2.78-.04,4.18.14,4.92.62,9.87,2.78,13.77,5.43,2.61,1.99,5.45,4.14,5.36,7.42-.27,3.25-3.19,6.86-5.67,9.42-3.44,3.5-7.57,6.69-11.96,8.88-5.32,2.86-10.32-1.81-13.38-6.21-.13-.18-.25-.36-.36-.54-1.18-1.71-2.26-3.55-3.26-5.47,1.77-.43,3.49-.96,5.16-1.59,2.45.23,4.81.08,7.08-.47,3.54-.86,6.85-2.72,9.86-5.75-1.38-1.45-3.03-2.51-4.8-3.19-5.61-2.18-12.46-.6-16.06,4.18h-.01c-.78.17-1.57.34-2.37.51.89-6.99,5.45-11.83,12.46-12.76ZM488.21,380.1c-.09-.24-.18-.49-.27-.73-2.89-6.74-5.76-12.07-11.6-17.13-4.4,7.61-1.41,17.45,5.58,22.21,2.07,1.35,4.38,2.36,7.14,2.55.02.1.04.2.07.29-2.13.46-4.96.91-7.14.73-3.52-.07-6.66-1.34-9.24-3.38-1.71-1.33-3.18-3.01-4.36-4.88-.93-1.46-1.68-3.04-2.24-4.68-3.27-9.25-1.69-19.86,1.46-29.04,1.05-2.84,2.2-5.79,3.94-8.06.22,0,.45.01.72.03,1.95.2,4.15.65,6.48,1.32h.01c9.73,2.82,21.58,9.53,25.89,17.77-1.69.47-3.33,1.17-4.88,2.04-3.98,2.26-7.34,5.72-9.23,9.75-1.66,3.62-2.36,7.42-2.33,11.21ZM364.1,443.18c2.38-2.13,5-3.97,7.76-5.58.7-.4,1.4-.8,2.11-1.17.7-.37,1.4-.73,2.1-1.07,1.58-.77,3.18-1.48,4.79-2.15,6.65-2.69,14.36-3.28,19.72,2.28,3.06,3.12,5.32,7.11,6.13,11.39.32,1.57.43,3.18.31,4.8-.01.4-.03.8-.06,1.2-8.26,1.06-16.48.64-24.54-1.14h0c-4.06-.89-8.08-2.13-12.05-3.72-.67-.25-1.33-.53-2-.82-.67-.28-1.34-.57-2.01-.89-1.22-.55-2.44-1.14-3.65-1.77.45-.46.92-.92,1.4-1.36ZM339.55,452.47c-.33.34-.66.68-.98,1.02-1.84,1.92-3.66,3.84-5.48,5.78-5.92,6.25-12.61,13.66-17.88,19.59-2.03,3.27-4.54,6.23-7.37,8.87-.02.02-.05.04-.07.06-1.08.94-2.21,1.8-3.36,2.57-1.23-2.91-2.65-4.98-4-6.94-2.67-3.54-5.21-6.74-8.22-9.6-2.23-2.13-4.72-4.06-7.69-5.79-1.24,4.46-.51,9.02,1.57,12.9,2.06,3.87,5.46,7.06,9.58,8.76,2.46.97,5.09,1.53,8,1.17-8.37,5.25-18.14,5.56-25.56-4.11-.5-.63-.97-1.31-1.44-2.03-1.3-2.16-2.33-4.44-3.14-6.81-.63-1.84-1.12-3.74-1.5-5.67-1.29-6.63-1.18-13.64-.44-20.24.01-.05.02-.11.03-.16.34-2.5.75-4.98,1.51-7.31.15-.48.32-.93.46-1.24,1.97-.7,4.26-.76,6.5-.88,3.39,0,7.02.2,10.68.69,8.9,1.18,17.94,4.1,23.97,10.27,6.51,6.83,5.72,16.86,1.21,24.58,9.21-15.57,2.55-29.11-12.91-37.26-2.62-1.36-5.33-2.58-8.1-3.62,9.61-1.21,19.32-.09,28.7,2.34,3.22.82,6.39,1.77,9.54,2.8.38.12.76.24,1.14.37.41.14.81.27,1.21.41,3.27,1.11,6.51,2.3,9.74,3.54-1.55,1.6-3.09,3.21-4.63,4.82-.36.37-.72.74-1.07,1.12ZM426.39,640.22c-1.97.27-5.07-.3-5.5-2.27-.08-1.57,1.06-2.93,2.06-4.23,2.54-2.95,9.31-9.13,13.53-9.11-1.96,5.41-4.64,10.45-7.85,15.17-.73.22-1.49.37-2.24.44ZM536.52,510.73c1.46.57,2.22,2.17,3,3.62,1.7,3.69,4.7,13.01,2.44,16.56-.45.45-1.42.75-2.55.47-3.53-.97-6-4.4-7.15-7.87.89,2.93,1.95,5.95,3.83,8.46-9.68,58.69-33.94,114.89-75.11,158.42-3.31,4.44-5.88,9.37-7.79,14.52-6.69-3.49-12.88-7.47-17.81-12.25-7.59-7.33-12.2-16.55-10.98-28.74,10.45-11.16,19.39-24.18,23.55-39.06.88-3.07,1.73-6.29,2.37-9.51,7.8,7.93,18.5,7.26,28.45-1.02,4.21-3.64,8.64-7.75,10.48-13.11-3.29,9.08-17.71,18.01-26.91,14.81-3.61-1.4-6.09-4.28-7.78-7.82-2.75-5.69-3.51-13.06-3.8-18.65-.06-1.16-.07-2.41,0-3.67,4.75,5.41,9.17,7.21,15.71,4.37.29-.14.59-.27.89-.42-.29-3.94-2.81-6.75-5.89-7.94-3.73-1.44-8.28-.5-10.69,3.7.29-4.3,1.56-8.68,5.23-10.26.88-.39,1.91-.61,3.1-.63,10.73-.25,20.98,9.25,26.89,17.8,1.49,2.43,3.41,5.03,3.5,7.96.1-1.48-.64-2.87-1.18-4.21-1.87-4.03-4.23-7.79-6.79-11.44-5.53-7.55-12.08-15.36-21.96-17.13-3.77-.68-7.27.06-10.18,1.8-.4.23-.78.48-1.15.76-.15-.62-.3-1.24-.46-1.86-2.58-10.1-6.39-20.02-13.27-27.94-2.67-2.98-6.03-5.49-9.78-6.96-8.42-2.51-17.68-2.95-26.13-.27-3.07.96-5.99,2.35-8.77,3.94-5.52,3.05-10.59,7.38-16.96,8.42-6.26.94-12.7-1.73-17.46-5.73-5.31-4.55-8.5-10.97-10.21-17.7.78.53,1.61,1,2.47,1.39,3.19,1.48,6.62,1.85,9.74,1.59,5.84-.56,11.28-2.09,16.7-4.06,8.92-3.47,23.29-9.55,25.05-20.01-2.46,12.86-22.76,17.38-33.88,18.07-6.41.44-13.51.29-17.11-5.33-.18-.28-.6-1.08-.81-1.49,0,0,0-.01,0-.01-.01-.02-.02-.05-.03-.07-2.91-6.39-2.67-14.67-1.45-21.69,8.54,4.98,19.76,7.02,29.1,3.61-5.4-7.9-16.59-11.19-25.32-7.65-.29.12-.59.25-.87.39h-.01c-.85.4-1.68.87-2.46,1.41.13-.59.29-1.16.47-1.71.08-.28.18-.55.28-.82,2.81-7.62,9.66-11.54,18.11-12.05h.01c.45-.03.9-.05,1.36-.06,12.89.19,33.58,12.94,32.62,27.4.77-9.13-6.8-17.27-13.16-23-7.18-6.16-16.47-11.43-26.37-10.57-1.16.04-2.3.16-3.41.35h-.01c-2.76.47-5.34,1.38-7.67,2.67.5-1.74,1.06-3.46,1.68-5.16,1.23-3.43,2.69-6.76,4.45-9.93.38-.69.77-1.37,1.18-2.04.46-.75.93-1.48,1.42-2.2.07.03.15.06.22.09.58.36,1.15.71,1.74,1.06.65.39,1.32.77,1.98,1.13,19.05,10.58,42.44,13.51,65.66,4.61,14.77-5.41,27.86-14.23,41.04-22.18,7.35-4.56,13.51-7.42,18.9-8.61,13.4-2.94,22.06,4.45,32.51,21.76-.78.2-1.57.48-2.36.85-.43.19-.85.41-1.28.65-3.88,1.91-6.5,5.17-7.87,8.96h0c-.18.48-.33.96-.46,1.45-.25.88-.42,1.79-.53,2.7h0c-.29,2.38-.15,4.82.41,7.18.67,2.71,1.58,5.37,2.82,7.85.45.91.94,1.79,1.49,2.64h0c1.52,2.4,3.42,4.55,5.77,6.31,2.49,1.44,5.1,2.45,8.11,2.82h.42c.67,6.22,3.26,12.15,7.82,16.49-.98.78-1.74,1.84-2.14,3.15-1.39,4.24-.47,8.62.52,12.68-.67-2.62-.75-5.47.13-7.97.58-1.91,2.37-4.5,4.35-4.07ZM551.1,476c-3.1,4.19-13.32,4.47-18.38,4.47-2.11-.01-4.23.02-6.35.06-1.21-.2-2.51-.73-3.71-1.29.02.01.03.02.03.03-.02-.01-.04-.03-.06-.04h-.01c-.07-.06-.15-.13-.27-.23-.46-.44-.91-.91-1.34-1.42-3.48-4.02-6.16-9.98-5.89-14.73.16-3.87,3.04-7.3,6.41-9.1.76-.43,1.55-.72,2.36-.92,3.42-.79,7.19.35,10.6,1.69-.07.19,0,.41.17.53l4.22,2.96c1.66.44,3.39.72,5.01,1.26.21.07.43-.02.54-.21h.01c7.09,4.06,10.03,8.95,6.66,16.94ZM555.37,409.2c-.31,2.86-.91,5.68-1.7,8.33-2.93,9.98-8.28,19.17-13.92,27.86-1.88,2.88-3.6,5.87-5.16,8.94-4-4.36-9.4-6.68-14.91-5.38-6.28-17.59-17.4-32.48-37.95-27.33-.37.09-.76.19-1.14.3-.27.07-.54.15-.8.24.17-.66.35-1.31.55-1.96,1.11-3.7,2.6-7.26,4.58-10.61,2.3-4.02,5.11-7.74,8.2-11.21.12-.14.24-.28.38-.42.1.16.2.32.3.47,1.13,1.79,2.4,3.51,4.07,4.89,1.54,1.27,3.69,1.87,5.35,2.27,9.55,2.06,33.36,1.58,38.03-8.46-5.72,10.74-27.12,7.49-36.31,3.3-.97-.47-1.92-1.01-2.49-1.52-.11-.14-.23-.3-.34-.49-.75-1.15-1.64-3.09-2.06-4.39-2.02-5.67-2.95-12.83-1.43-18.32,1.12-4.38,5-8.71,9.52-10.27,2.1-.74,4.34-.87,6.5-.14,2.96,1.01,5.74,3.04,8.4,5.15-1.85-.26-3.66.1-5.27.91-4.16,2.1-6.87,7.22-5.02,12.31,3.66-.08,6.52-1.04,8.72-2.79,2.26-1.8,3.83-4.45,4.87-7.84.12.08.25.14.38.17,2.87.49,5.45,1.24,7.67,2.25l3.76,2.82,2.64,1.98c.55.7,1.02,1.45,1.4,2.25.1.21.19.42.28.64.03.07.05.13.08.2.84,2.19,1.08,4.69.63,7.52v.02h0c-.22,1.41-.62,2.89-1.19,4.45-.22.58-.47,1.18-.74,1.79.27-.59.53-1.18.75-1.75.55-1.37.96-2.68,1.25-3.94h0c.66-2.84.69-5.4.16-7.72-.03-.18-.07-.37-.12-.55-.08-.35-.18-.69-.3-1.03-.06-.18-.12-.35-.19-.52.2.11.39.22.59.34h.01c.46.26.92.55,1.36.85h.01c2.05,1.36,3.9,2.99,5.47,4.87,4.85,6,5.98,13.91,5.13,21.52Z"/>
      <path class="cls-1" d="M538.63,458.24c-.22,2.23-.6,4.91-1.58,6.76-.9,1.54-2.12,2.3-3.93,2.94,0-.01.02-.08.05-.19l-.06.19c-.07.03-.15.06-.22.08-.57.21-1.14.36-1.78.46-.88.16-1.75.24-2.73.25-.49-.84-.81-1.67-1.02-2.54-.03-.09-.05-.17-.06-.26-.18-.67-.24-1.33-.25-2h0c.04-2.8,1.68-5.03,3.9-6.18,2.33-1.21,5.29-1.25,7.68.49Z"/>
      <path class="cls-1" d="M376.01,437.85c-.01.11-.02.23-.03.34,0,.03,0,.06-.01.09-.01.08-.02.16-.03.23s-.02.13-.03.2c-.15.95-.54,2.56-1.48,4.32-.04.09-.1.19-.15.28-.04.09-.1.18-.16.28-.09.17-.19.33-.31.5-.08.13-.17.27-.26.4,0,0-.67-.27-1.66-1.11h0c-.4-.35-.85-.78-1.33-1.33,0,0,.84-1.41,3.21-2.95h0c.63-.42,1.37-.85,2.24-1.25Z"/>
      <path class="cls-1" d="M361.1,426.61c-2.7,1.81-6.86,5.49-7.49,5.31-.75-.22-2.53-1.57-9.26-3.11,0,0,.08-.04.22-.1.08-.03.17-.07.27-.12.67-.27,1.98-.79,3.67-1.25.2-.06.4-.12.61-.17.75-.2,1.57-.39,2.43-.53.29-.05.59-.09.88-.14.34-.04.68-.08,1.02-.12.26-.03.52-.05.78-.07.22-.02.45-.03.67-.04.15-.01.29-.01.43-.01.31-.01.61-.01.9-.01.38,0,.73,0,1.07.01.04,0,.07.01.11,0,.04.01.08.01.12.01h.07c.32.01.63.03.92.05.09,0,.17.01.25.01.02.01.03.01.04.01h.04c.09.01.18.01.27.02.11.01.22.02.32.03.89.09,1.47.18,1.62.21.02,0,.03,0,.04,0Z"/>
      <path class="cls-1" d="M409.54,562.64c-9.02,2.91-17.14,7.92-22.33,15.6-3.03,4.47-5.02,9.22-5.23,14.36.14,4.21.84,8.42,2.21,12.3.92,2.46,2.39,4.83,2.75,7.91.5,5.05-.7,10.13-4.03,13.86-2.15,2.38-4.46,3.81-6.11,5.08-1.69,1.33-2.62,2.23-3.04,3.7-1.06,3.94,1.01,7.86,4.01,10.6,1.69,1.51,3.78,2.7,6.15,3.5-10.06,1.5-20.72-9.65-15.25-19.89,2.2-4.3,7.08-6.53,8.38-10.57.38-1.36.53-3.58.3-4.86-.41-1.76-1.7-3.67-2.43-5.74-1.53-3.78-2.24-8.1-2.56-12.03-.21-2.11-.09-4.51.22-6.62,2.85-16.77,20.28-29.37,36.96-27.2Z"/>
      <path class="cls-1" d="M492.48,936.17c-37.72-53.18-63-131.67-48.18-196.53-.04,68.59,22.08,133.87,48.18,196.53Z"/>
    </g>
  </g>
</svg>