<?xml version="1.0" encoding="UTF-8"?>
<svg id="Calque_2" data-name="Calque 2" xmlns="http://www.w3.org/2000/svg" viewBox="0 0 412.32 911.41">
  <defs>
    <style>
      .cls-1 {
        fill: #b0c0b0;
      }

      .cls-1, .cls-2 {
        stroke-width: 0px;
      }

      .cls-2 {
        fill: #d6e5db;
      }
    </style>
  </defs>
  <g id="PLANTE">
    <path class="cls-2" d="M222.96,440.09c-.24,1.67-.58,3.36-1.01,5.06-.01.03-.01.05-.02.08-.42,1.63-.92,3.25-1.51,4.85-5.42,14.7-17.96,27.84-37.42,39.2-.18.11-.37.22-.56.33h0c-.19.11-.37.22-.56.32h0c-2.16,1.24-4.4,2.46-6.72,3.65-2.55,1.31-5.23,2.37-8.03,3.18-.18.06-.36.11-.54.15-.17.06-.35.11-.52.15-4.35,1.16-8.98,1.74-13.86,1.74-10.86,0-22.94-2.87-35.86-8.57-35.13-15.51-66.82-47.16-71.68-65.08-3.62-13.34,9.13-48.57,31-74,16.19-18.84,43.8-40.34,83.35-35.8,34.87,3.99,43.5,25.74,46.19,48.22.04.32.08.64.11.96v.02s.01.08.02.13c.03.29.06.58.09.87v.02c.4,3.76.64,7.52.82,11.21.1,1.93.19,3.85.27,5.73.09,1.91.17,3.82.27,5.7.44.65.89,1.33,1.37,2.04.03.05.06.1.1.15.11.17.23.35.34.53.12.17.23.34.35.52,7.08,10.84,16.97,28.57,14.01,48.64Z"/>
    <path class="cls-2" d="M276.88,807.05c-.1,1.65-.25,3.33-.44,5.04-.18,1.65-.41,3.33-.68,5.03,0,.03-.01.06-.01.09-1.73,10.93-9.18,20.76-22.16,29.25-.13.09-.27.18-.41.27s-.28.18-.43.27c-.47.31-.96.61-1.45.91-4.34,2.66-9.12,5.09-14.22,7.31-.15.07-.3.13-.46.2-.16.07-.32.14-.48.2-25.95,11.07-59.63,16.51-83.98,16.51-10.09,0-18.58-.93-24.25-2.78-14.44-4.72-46.62-37.82-53.77-75.59-4.86-25.65,3.25-48.02,23.44-64.68,30.26-24.96,59.36-12.89,85.51.77.21.11.42.22.63.33.2.11.41.21.61.32,1.24.65,2.47,1.31,3.7,1.95h0c.73.4,1.46.78,2.18,1.17.92.49,1.85.99,2.77,1.47,1.09.58,2.18,1.16,3.27,1.73.59.04,1.19.08,1.82.12,1.94.13,4.05.28,6.31.49.18.01.36.03.55.05.18.01.36.03.54.05,17.99,1.72,44.09,6.61,59.49,25.85,9.02,11.27,13.01,25.92,11.92,43.67Z"/>
    <path class="cls-2" d="M324.45,504.2c-.5,21.44-43.39,90.77-84.87,113.13-11.53,6.22-21.47,8.38-29.71,8.38-7.48,0-13.56-1.78-18.18-3.93-4.98-2.32-9.57-5.67-13.63-9.88-.2-.19-.39-.38-.56-.58-.2-.2-.38-.4-.55-.6-1.74-1.89-3.36-3.93-4.86-6.11-1.63-2.35-3.13-4.87-4.48-7.53-2-3.92-3.69-8.15-5.01-12.63h0c-.63-2.12-1.18-4.28-1.64-6.49-.06-.31-.13-.63-.19-.96v-.02c-.17-.91-.34-1.92-.48-3-.2-1.52-.36-3.2-.44-5.02v-.05c-.08-1.78-.08-3.71.02-5.75v-.02c.04-.77.1-1.57.18-2.38v-.02c.15-1.66.38-3.38.7-5.17v-.02c.18-1.02.4-2.05.65-3.11-.01-.01,0-.01,0-.02.03-.14.06-.28.1-.42.56-2.33,1.28-4.74,2.19-7.21,2.73-7.37,7.17-15.29,14.2-23.24h0c.18-.22.37-.42.56-.63h0c.18-.21.37-.41.56-.61h0c4.2-4.59,9.26-9.18,15.36-13.67,24.74-18.24,51.13-22.89,68.9-23.58,22.89-.89,41.33,4.14,50.95,9.14,6.89,3.58,10.33,7.62,10.23,12Z"/>
    <path class="cls-2" d="M376.78,293.92c-1.07,31.72-23.24,62.85-34.48,68.55-4.03,2.04-9.95,3.77-17.05,5.05-1.89.33-3.86.63-5.9.91-2.01.27-4.1.5-6.24.7-5.67.54-11.73.82-17.97.82-19.23,0-40.09-2.71-55.93-9.33-5.27-2.21-9.74-4.75-13.39-7.62-.15-.12-.3-.24-.45-.37-.14-.1-.27-.21-.4-.32l-.39-.33c-.9-.77-1.75-1.56-2.54-2.37-1.2-1.24-2.27-2.53-3.21-3.87-.92-1.3-1.71-2.65-2.38-4.05-.09-.2-.18-.39-.27-.59-.09-.2-.18-.4-.26-.6-.3-.72-.57-1.45-.81-2.19-5.73-17.88-5.04-33.21,2.06-45.55,9.87-17.17,29.52-24.56,43.88-28.36.25-.07.5-.13.75-.19h0c.26-.07.51-.14.76-.2h0c2.64-.67,5.07-1.22,7.19-1.69,1.43-1.05,2.87-2.13,4.31-3.22,3.42-2.57,6.92-5.19,10.52-7.7h0c.36-.26.73-.52,1.1-.77,0,0,0-.01.01-.01.36-.25.72-.49,1.08-.74,0,0,.01,0,.02-.02,17.81-12.07,37.95-20.67,62.52-6.06,18.69,11.11,28.19,28.44,27.47,50.12Z"/>
    <path class="cls-2" d="M347.81,69.03c0,1.52-.06,3-.18,4.44-.15,1.85-.39,3.63-.74,5.33-1.77,8.82-6.1,15.48-12.82,18.4-.03.01-.05.02-.08.03-.15.07-.3.13-.46.19-.15.07-.31.13-.48.18-1.01.38-2.06.65-3.12.83-.16.04-.33.06-.5.09-.16.02-.33.04-.5.06-.77.09-1.55.14-2.34.14-.51,0-1.02-.02-1.53-.06-1.62-.11-3.26-.42-4.92-.9-1.58-.45-3.16-1.06-4.75-1.83-11.05-5.29-22.14-17.8-29.47-34.68-11.65-26.82-8.74-53.05,6.61-59.72,15.35-6.67,36.51,9.12,48.15,35.94,4.69,10.79,7.01,21.48,7.12,30.84.01.24.01.48.01.72Z"/>
    <path class="cls-1" d="M336.77,740.6c-5.51,21.5-16.8,45-28.74,59.85-6.71,8.35-14.81,13.6-24.16,15.68.3-1.81.57-3.6.79-5.38.24-1.83.44-3.65.59-5.45,1.44-17.04-1.1-32.68-11.7-46.53-18.5-24.17-61.19-25.85-61.19-25.85-1.39-3.97-4.3-14.27-6.72-23.11-.64-2.32-1.25-4.53-1.78-6.51-.71-2.61-1.3-4.79-1.68-6.23,15.25-20.08,47.67-30.91,73.25-32.74,23.57-1.69,42.52,3.45,53.37,14.46,15.62,15.86,12.96,42.36,7.97,61.81Z"/>
    <path class="cls-1" d="M289.88,902.02c-1.9,4.92-9.11,8.79-14.64,9.32-.48.05-.94.07-1.38.07-3.1,0-5.48-1.1-6.78-3.16-10.21-16.08-19.82-32.31-28.56-48.27.14-.06.29-.14.46-.22.14-.07.29-.14.45-.21h0c3.25-1.59,9.68-4.82,15.68-8.46.15-.08.29-.17.43-.26.14-.08.28-.17.42-.26.03.04.05.09.08.13,11.89,20.31,23.43,36.18,32.49,44.67,1.81,2,2.27,4.29,1.35,6.65Z"/>
    <path class="cls-1" d="M203.96,733.01l-.53-.04-.55-.04h-.15c-1.34-.79-2.84-1.65-4.41-2.53-1.54-.86-3.14-1.75-4.73-2.61-1.6-.88-3.18-1.73-4.66-2.53-3.12-1.68-5.81-3.1-7.29-3.87h-.01c-.12-.07-.22-.12-.32-.17-.1-.06-.19-.1-.27-.14h-.01s-.01-.01-.01-.01c-.33-.18-.54-.29-.59-.31h0c-.46-1.62-.91-3.22-1.35-4.82-.22-.8-.44-1.59-.65-2.38-.33-1.21-.65-2.41-.96-3.6-.45-1.68-.88-3.35-1.3-5.01-.53-2.07-1.03-4.11-1.52-6.14-.25-1.02-.49-2.02-.72-3.03-.34-1.42-.67-2.84-.98-4.24-.22-.95-.43-1.89-.64-2.83-.22-.98-.43-1.95-.64-2.91-.82-3.76-1.57-7.43-2.27-11.01-.27-1.39-.54-2.77-.79-4.13-.56-2.95-1.08-5.84-1.56-8.66-.28-1.62-.54-3.22-.8-4.79-.7-4.32-1.32-8.45-1.86-12.38-.33-2.31-.62-4.55-.9-6.71-.46-3.63-.85-7.05-1.18-10.25-.61-5.83-1.04-10.9-1.34-15.11-.36-5.01-.53-8.79-.61-11.16-.01-.15-.01-.3-.02-.45-.01-.2-.01-.39-.02-.57-.03-1.22-.04-1.86-.04-1.86,0,0,.16.35.49.96h0c.15.29.33.62.55,1,.27.48.6,1.04.98,1.66,1.04,1.68,2.49,3.8,4.36,6.08,1.25,1.52,2.69,3.11,4.33,4.69,1.95,1.88,4.19,3.75,6.72,5.44.17.12.35.23.53.34h0c.17.12.35.24.53.35l.12,1.06c.02.23.04.45.07.68,3,27.47,8.7,56.18,16.97,85.64h0c.66,2.36,1.34,4.7,2.03,7.05h0c.76,2.6,1.54,5.18,2.34,7.78v.02c1.16,3.77,2.37,7.55,3.61,11.34.01.03.02.06.02.09,0,.03.02.04.02.06.01.03.02.05.02.05Z"/>
    <path class="cls-1" d="M157.25,648.67c-1.34,1.83-2.78,3.53-4.29,5.1-8.95,9.26-20.34,13.94-33.9,13.94-1.32,0-2.66-.04-4.02-.13-20.99-1.37-48.57-9.46-70.28-20.62-19.58-10.06-43.24-27-44.69-50.51-.97-15.6,8.03-33.32,25.34-49.88,24.63-23.57,59.12-38.2,83.87-35.58,17.93,1.9,32.26,7.98,42.71,17.98-.18,2.26-.35,4.49-.5,6.71-.17,2.54-.32,5.05-.45,7.53-2.07,39.88,1.12,72.22,3.66,90.22h0c.45,3.23.89,5.99,1.27,8.25.63,3.79,1.11,6.18,1.28,6.99Z"/>
    <path class="cls-1" d="M181.4,499.74l-.41,3.3-.76,6.09-.31,2.45c-.18.14-.36.29-.53.43h0c-.19.16-.38.31-.56.47-8.09,6.79-13.62,14.42-15.89,17.83h0c-.23.35-.42.65-.59.9h0c-.37.59-.56.91-.56.91.57-5.94,1.09-10.81,1.53-14.74.08-.66.15-1.29.22-1.9.04-.35.08-.69.12-1.03.25-2.15.47-3.94.67-5.41.06-.52.13-1.01.19-1.45,0-.03.01-.06.01-.09.07-.55.14-1.04.2-1.47.16-1.1.27-1.83.33-2.22.04-.25.06-.37.06-.37.16-.01.33-.02.49-.04.17,0,.34-.02.51-.03,7.22-.57,12.22-2.33,14.25-3.17.21-.09.39-.16.53-.23.33-.14.5-.23.5-.23Z"/>
    <path class="cls-1" d="M343.38,416.83c-7.75,27.61-57.01,38.38-91.72,38.38-5.97,0-11.51-.32-16.33-.93-1.43-.18-2.83-.41-4.19-.68.25-.63.84-2.28,1.36-4.83.27-1.39.53-3.06.69-4.97.8-9.65-.79-25.64-13.76-45.38,0,0,8.46-22.3,12.36-30.86,0,0,20.43,12.07,63.35,11.57,10.18-.12,18.8-1.07,25.12-2.07,2.13-.33,4-.67,5.58-.99,2.64-.52,4.46-.97,5.36-1.2.54.74,1.07,1.47,1.58,2.21,9.97,14.43,13.74,28.55,10.6,39.75Z"/>
    <path class="cls-1" d="M221.82,360.19l-1.46,3.39-.38.86c-1.06,2.39-2.09,4.78-3.09,7.15l-.25.58-1.28,2.96c-.02-.36-.05-.71-.07-1.06-.03-.37-.06-.73-.09-1.08h0c-.13-1.69-.29-3.28-.47-4.78-.37-3.14-.82-5.87-1.28-8.17-.57-2.83-1.14-5.03-1.59-6.57h0c-.15-.51-.29-.94-.41-1.3h0c-.08-.28-.16-.52-.23-.71-.15-.44-.24-.66-.24-.66l.88-1.88,1.13-2.44s.01.03.01.04c.07.24.14.47.22.7.07.22.15.45.23.67h0c.3.82.63,1.6.98,2.35.82,1.72,1.76,3.26,2.69,4.59,1.2,1.71,2.39,3.06,3.27,3.98.27.28.5.51.7.71.15.14.28.26.38.36.23.2.35.31.35.31Z"/>
    <path class="cls-1" d="M298.86,192.06h0c-.4.84-1.47,2.96-3.51,6.52-1.09,1.91-2.47,4.24-4.17,7h0c-5.32,8.67-13.83,21.6-26.94,39.45-1.96,2.67-4.02,5.45-6.19,8.35h-.01c-1.72,2.3-3.52,4.67-5.38,7.11-6.17,1.75-12.31,2.66-18.19,2.66-3.4,0-6.71-.3-9.89-.92-12.65-2.47-22.73-9.56-29.99-21.08-11.9-18.9-12.16-45.63-11.26-59.89,1.33-20.98,6.67-39.94,13.27-47.16,4.34-4.75,15.68-3.83,24.43-2.22,26.97,4.95,63.06,22.35,76.03,55.06.69,1.75,1.29,3.45,1.8,5.12Z"/>
    <path class="cls-1" d="M335.76,130.24s.02.03.02.05c-.03.45-.06.89-.1,1.33-.02.23-.04.47-.06.7-.01.15-.03.3-.04.45-.03.44-.08.87-.12,1.31-.02.23-.05.47-.07.7-.05.51-.1,1.01-.16,1.51-.02.25-.05.5-.08.75-.3,2.65-.66,5.17-1.05,7.56-.07.45-.15.9-.23,1.36-.1.56-.21,1.13-.31,1.7-.03.2-.07.39-.1.58-.66,3.46-1.37,6.58-2.06,9.28-.17.67-.33,1.31-.5,1.93-.03.1-.05.2-.08.29-.16.62-.32,1.2-.48,1.76-.1.37-.2.72-.3,1.06-.07.24-.14.47-.2.7-.06.2-.12.39-.17.58-.09.31-.19.61-.28.9-.01.02-.01.03-.02.05-.09.29-.17.58-.25.85,0,0-.01.01-.01.02-.09.27-.17.53-.23.78.04-.12.08-.25.12-.38-.35,1.23-.74,2.47-1.15,3.71-.01.04-.03.08-.04.12-.05.16-.1.32-.15.48-.06.16-.11.32-.16.48-.33.97-.66,1.93-.99,2.9-.19.55-.38,1.1-.58,1.65-.39,1.1-.79,2.19-1.2,3.29-3.08,8.18-6.65,16.18-10.24,23.53-.24.49-.48.98-.72,1.46-.54,1.1-1.09,2.19-1.63,3.26-.41.79-.82,1.59-1.23,2.39-.38.73-.76,1.46-1.15,2.19-.19.37-.38.73-.57,1.08-.49.91-.98,1.83-1.48,2.75-.28.53-.57,1.04-.85,1.55-4.19,7.68-7.89,13.8-10.19,17.47-.18.29-.35.56-.51.82-.33.53-.62.99-.87,1.38-.67,1.05-1.04,1.61-1.04,1.61-.27.15-.54.3-.82.45,0,0,0,0,0,.01-.31.17-.61.34-.93.53-9.29,5.38-22.41,15.56-24.3,17.03-.15.12-.23.18-.23.18l-.61.13-.73.15h-.01c.07-.09.14-.19.21-.28.22-.3.44-.6.67-.91.32-.43.64-.86.95-1.29-.32.43-.64.86-.96,1.29.3-.42.61-.85.91-1.28.53-.73,1.07-1.48,1.6-2.22.84-1.16,1.68-2.33,2.52-3.5.46-.64.92-1.29,1.38-1.93-.27.38-.54.76-.8,1.15.3-.41.58-.82.87-1.23.6-.84,1.18-1.69,1.76-2.52.01,0,.01-.01.01-.01,0,0,0-.01.02-.01,0,0,0-.01.01-.01.18-.28.37-.55.56-.82.2-.28.38-.55.57-.82.54-.77,1.06-1.53,1.57-2.27.46-.67.91-1.32,1.34-1.96,1.99-2.92,3.74-5.51,5.08-7.54.06-.1.13-.19.18-.28.03-.04.06-.08.08-.11.01-.01.02-.02.02-.03.07-.1.13-.2.2-.3.13-.2.26-.39.38-.58.45-.67.83-1.25,1.14-1.72.07-.11.13-.22.19-.32h.01c.21-.32.36-.56.48-.75.32-.5.64-1.01.94-1.5.08-.11.14-.21.21-.32.14-.22.27-.44.4-.65.24-.39.48-.76.71-1.14.36-.58.71-1.14,1.06-1.71,1.82-2.96,3.51-5.78,5.07-8.47,1.89-3.24,3.6-6.28,5.14-9.13,8.39-15.44,12.01-25.08,13.63-29.06.2-.5.41-1,.61-1.5.27-.71.55-1.42.81-2.12,3.22-8.42,5.62-16.58,7.42-24.1.11-.48.22-.96.33-1.43.12-.46.22-.93.32-1.4.11-.47.21-.93.31-1.39.09-.4.18-.8.26-1.21.1-.46.19-.93.29-1.39.42-2.13.81-4.18,1.15-6.14.17-1,.33-1.97.48-2.92.13-.78.25-1.56.35-2.35.09-.58.17-1.15.24-1.71.04-.3.08-.59.12-.87v-.02c.05-.41.1-.82.15-1.23.04-.33.08-.65.12-.97.01-.16.03-.31.05-.47.23-2.05.43-4.12.6-6.21.25-3.13.43-6.3.53-9.51v.27c.01-.13.01-.22.01-.27v-.05c.17.01.33.02.5.03.17.01.34.01.5.01,1.82.02,3.51-.3,4.5-.53.19-.04.35-.08.49-.12.28-.07.43-.12.43-.12.91,8.38.94,16.3.47,23.52h0Z"/>
    <path class="cls-1" d="M323.33,118.24h0c-.42,5.11-.99,8.84-.99,8.84-.16-.27-.32-.54-.47-.8-.01,0-.02-.03-.02-.04-1.76-3.03-3.1-5.8-4.13-8.3h0c-.16-.41-.33-.8-.48-1.2-.19-.49-.36-.96-.53-1.42-.11-.31-.22-.62-.32-.92-.1-.3-.19-.6-.29-.89-.14-.46-.27-.91-.39-1.35-.07-.25-.14-.5-.2-.74-.09-.34-.17-.66-.24-.98-.07-.31-.14-.62-.2-.91-.05-.24-.1-.47-.14-.7-.15-.81-.26-1.54-.34-2.2-.03-.23-.05-.47-.08-.71-.01-.07-.01-.15-.02-.22,0-.17-.02-.33-.03-.5-.01-.11-.02-.22-.02-.32-.01-.17-.01-.33-.02-.49-.01-.25-.01-.48-.01-.68.01-.87.08-1.32.08-1.32,1.83,1.17,3.57,2.07,5.03,2.72,2.52,1.14,4.24,1.6,4.24,1.6.08,3.98-.14,8.07-.43,11.53Z"/>
    <path class="cls-1" d="M398.55,158.41c-6.45,10.67-14.15,16.75-22.88,18.07-3.71.55-7.22.83-10.54.83-10.17,0-18.47-2.61-24.77-7.82-1.39-1.15-2.63-2.38-3.75-3.69.61-2.05,1.17-4.07,1.67-6.06.65-2.56,1.22-5.07,1.71-7.52,5.69-28.25,1.68-48.82,1.68-48.82,5.43-4.37,9.01-13.9,10.07-20.59.93-5.88.86-9.36.53-15.27-.02-.41,6.35-.06,7.07-.03,3.28.16,6.54.63,9.74,1.34,20.89,4.66,38.95,19.84,41.73,27.83,4.14,11.92-.41,42.11-12.27,61.73Z"/>
  </g>
</svg>