<?xml version="1.0" encoding="UTF-8"?>
<svg id="Calque_2" data-name="Calque 2" xmlns="http://www.w3.org/2000/svg" viewBox="0 0 602.29 877.99">
  <defs>
    <style>
      .cls-1 {
        fill: #b0c0b0;
      }

      .cls-1, .cls-2 {
        stroke-width: 0px;
      }

      .cls-2 {
        fill: #d6e5db;
      }
    </style>
  </defs>
  <g id="PLANTE_COIN">
    <path class="cls-2" d="M554.69,213.42c-.24-.22-.5-.44-.75-.64-.21-.18-.42-.35-.64-.53-11.83-9.63-25.65-13.52-32.13-14.9-7.16-1.53-14.45-2.5-21.68-2.95-7.22-.43-14.39-.33-21.31.31-3.64.34-7.22.83-10.71,1.48-4.57.83-8.98,1.92-13.15,3.26-6.76,2.17-12.87,4.96-18.28,8.32-2.91,1.82-5.63,3.8-8.14,5.95-.25.2-.5.43-.74.65-.21.17-.4.35-.6.54-8.8,7.96-14.87,18.02-17.92,29.93-11.89,46.32,29.91,115.88,54.58,126.37,10.52,4.47,36.62-11.42,41.74-14.66,15.51-9.77,66.3-45.62,68.55-96.51.99-22.49-7.86-37.14-18.82-46.62Z"/>
    <path class="cls-2" d="M274.95,165.16c-39.89-30.77-117.59-42.42-159.42-38.53-9.71.9-17.48,2.64-22.41,5.17-5.04,2.6-7.68,10.05-7.85,22.16-.5,35.87,21.08,105.08,81.09,138.1.33.18.65.36.97.52.15.09.3.17.45.25.15.08.3.15.43.23,6.65,3.53,13.26,6.37,19.79,8.5.2.06.39.12.59.19.21.07.41.14.62.19,11.39,3.58,22.6,5.03,33.54,4.33,1.71-.1,3.41-.27,5.1-.47,1.07-.14,2.14-.29,3.2-.47.6-.1,1.21-.2,1.81-.32,18.06-3.41,30.64-12.19,36.64-17.23,11.48-9.64,20.58-20.87,26.74-32.66,1.48-2.83,2.8-5.68,3.92-8.56.07-.19.15-.37.21-.55.09-.21.17-.42.24-.63.79-2.1,1.49-4.21,2.08-6.31.57-1.99,1.05-3.99,1.44-5.99.38-1.89.66-3.79.87-5.67.17-1.59.3-3.19.35-4.77,0-.22,0-.45.02-.67,0-.17,0-.34.01-.52.01-.74.01-1.5,0-2.24-.42-20.33-10.95-39.02-30.43-54.06Z"/>
    <path class="cls-2" d="M166.26,319.77c-.05-.21-.11-.4-.17-.61-.04-.17-.08-.33-.14-.5-1.37-5.01-3.41-10.2-6.12-15.53-.38-.76-.8-1.49-1.26-2.2-.07-.12-.15-.25-.24-.38-.08-.12-.16-.26-.26-.39-5.09-7.52-14.03-12.84-26.63-15.84-12.99-3.1-28.52-3.44-43.61-2.03-24.48,2.28-47.83,9.13-57.44,16.17-11.4,8.36-26.23,43.52-22.58,73.12,2.73,22.14,15.01,38.26,35.51,46.61,28.51,11.62,48.24-3.2,64.08-19,.05-.04.1-.1.15-.14.13-.12.25-.25.38-.38.18-.19.36-.36.54-.54h0c1.49-1.5,2.93-3.01,4.35-4.5.73-.76,1.46-1.53,2.18-2.28,1.24-1.3,2.47-2.59,3.7-3.87.03-.01.05-.02.08-.03,2.42-.96,5.28-2.11,8.36-3.48.17-.08.36-.15.54-.24.17-.08.36-.16.54-.24h0c13.23-6.02,30.28-16.24,37.04-34.05.06-.16.11-.31.17-.47.59-1.6,1.08-3.22,1.46-4.88.41-1.67.7-3.39.89-5.12.71-6.07.2-12.47-1.52-19.19Z"/>
    <path class="cls-2" d="M239.3,497.62c-13.03-10.47-37.85-25.98-67.78-23.2-4.43.41-8.98,1.23-13.62,2.52-15.52,4.31-22.72,11.79-25.5,20.4-.42,1.3-.75,2.64-.98,3.99-.09.52-.17,1.04-.24,1.57h0c-.08.59-.13,1.17-.17,1.75-.16,2.22-.13,4.48.06,6.74v.02c.35,4.35,1.23,8.72,2.24,12.88v.02s0,0,0,.02c.46,1.95.96,3.84,1.43,5.67l.57,2.21c-.47.57-.93,1.16-1.38,1.77-2.19,2.97-4.17,6.38-5.72,10.08h0c-.54,1.27-1.02,2.58-1.45,3.9h0c-.11.34-.21.67-.32,1.01h0c-.08.29-.16.57-.23.85h0c-.47,1.66-.84,3.35-1.12,5.08h0c-.51,3.21-.67,6.51-.39,9.83.15,2.05.48,4.12,1.01,6.17.47,1.88,1.09,3.77,1.9,5.64,1.61,3.75,4.46,8.45,9.49,12.87h0c.22.19.43.38.64.55.24.21.49.42.74.6,4.01,3.22,9.23,6.21,16.06,8.47.19.06.38.12.58.19.19.05.37.12.56.18,4.03,1.24,8.61,2.24,13.8,2.89,1.85.23,3.77.42,5.78.55,1.96.14,4,.23,6.12.26.7.01,1.42.02,2.14.02,13.2,0,27.43-4.12,40.82-11.63,1.63-.91,3.25-1.87,4.85-2.88,1.54-.97,3.06-1.98,4.56-3.05,2.21-1.55,4.37-3.2,6.49-4.93,16.65-13.65,27.02-29.98,27.76-43.68.47-8.75-12.14-26.03-28.71-39.33Z"/>
    <path class="cls-2" d="M184.22,672.42h0c-.17-1.87-.44-3.71-.81-5.54-.65-3.3-1.61-6.54-2.89-9.65-3.11-7.61-7.88-13.96-13.92-18.7-.13-.11-.26-.22-.4-.31-.02.18-.05.36-.06.54-.06-.25-.14-.49-.2-.73-.22-.16-.43-.32-.65-.48-1.19-.86-2.41-1.66-3.69-2.4-1.5-.87-3.05-1.66-4.66-2.34-1.45-.63-2.94-1.18-4.48-1.66-.41-.13-.85-.26-1.3-.4h0c-.19-.06-.39-.12-.59-.19-.2-.05-.39-.11-.59-.18-3.61-1.1-8.26-2.43-13.47-3.45-6.5-1.28-13.86-2.1-21.19-1.41-11.26,1.05-22.41,5.62-30.12,17.43-11.62,17.8-16.65,49.5-11.21,70.67,2.72,10.6,7.97,18.25,15.19,22.09,15.58,8.3,62.45,6.37,84.62-24.92h0c.13-.19.26-.37.38-.55h0c.16-.24.31-.46.47-.69,1.08-1.6,2.09-3.28,3.03-5.03.77-1.43,1.47-2.89,2.1-4.36.13-.29.27-.6.38-.89h0c.14-.32.26-.65.38-.96h0c2.59-6.63,3.89-13.65,3.9-20.62.02-1.76-.07-3.52-.23-5.26Z"/>
    <path class="cls-2" d="M175.33,806.86c-3.02-4.47-6.54-7.77-10.37-9.78-.15-.09-.3-.16-.45-.23-.15-.09-.31-.15-.45-.22-.98-.46-1.98-.83-2.99-1.12-.17-.05-.32-.09-.48-.14-.16-.04-.33-.08-.49-.11-1.69-.39-3.44-.54-5.19-.44-.23.01-.46.02-.69.04-7.37.68-13.83,5.7-18.27,14.2-4.14,7.93-6.1,18.16-5.5,28.82.6,10.66,3.67,20.61,8.68,28.03,5.52,8.19,12.78,12.48,20.43,12.05,7.66-.47,14.38-5.49,18.96-14.26,4.14-7.93,6.1-18.16,5.5-28.82-.6-10.66-3.67-20.61-8.68-28.03Z"/>
    <path class="cls-1" d="M598.04,199.78s-.11-.07-.17-.09c-21.27-7.35-49.95-11.32-82.8-11.92.98.15,1.94.31,2.88.5h0c1.05.2,2.1.42,3.1.64h.02c24.89,5.62,37.24,19.55,40.96,24.51.13.18.25.35.37.5.17.24.31.44.43.62,16.06,2.38,26.93,5.07,31.75,6.38,3.24.31,5.56-1.02,6.78-3.82,2.27-5.27.02-14.37-3.33-17.32Z"/>
    <path class="cls-1" d="M493.56,117.91c-9.93-24.44-29.01-54.94-48.58-77.73C428.07,20.49,403.55-1.96,381.06.14c-.98.09-1.95.22-2.9.41-12.13,2.31-22.99,12.07-31.43,28.2-18.23,34.87-21.02,90.36-6.22,123.73,8.24,18.58,17.96,31.55,28.2,40.43,2.07-.46,4.11-.92,6.15-1.37,2.2-.48,4.38-.94,6.54-1.39,42.39-8.79,76.67-11.89,94.9-12.97,2.74-.15,5.11-.27,7.09-.36,3.18-.14,5.38-.19,6.45-.21,1.01-1.41,1.94-2.86,2.8-4.35,8.95-15.57,9.26-33.87.93-54.36Z"/>
    <path class="cls-1" d="M457.36,189.78c-22.18,1.79-42.58,4.62-60.65,7.83.08.02.15.05.23.07-3.11.55-6.23,1.11-9.35,1.71-.05-.03-.1-.05-.15-.07-2.62.51-5.19,1.01-7.7,1.54.02.02.04.03.06.03-2.4.47-4.79.97-7.19,1.47l-1.45.32c-5.66,1.21-11.76,2.64-18.22,4.3-.73.19-1.45.38-2.17.56-17.97,4.62-30.45,8.77-36,10.72-.18.06-.34.11-.51.17-1.81.64-2.74,1-2.74,1,.02.14.04.27.06.41.04.21.07.42.1.62.25,1.65.42,3.26.54,4.81.14,1.82.19,3.53.19,5.13,0,1.94-.08,3.7-.2,5.25-.2,2.68-.53,4.72-.75,5.91-.04.22-.08.42-.12.58-.05.25-.08.42-.1.51,1.67-.57,3.36-1.14,5.05-1.7.32-.1.64-.21.95-.32,5.96-1.98,12.01-3.88,18.14-5.71h0c2.62-.79,5.25-1.56,7.89-2.32,2.25-.64,4.51-1.27,6.78-1.9,3.67-1.01,7.38-1.99,11.09-2.95,4.29-1.1,8.53-2.15,12.74-3.12,1.43-.33,2.81-.65,4.18-.95,1.52-.35,3.02-.68,4.48-.99,1.23-.28,2.46-.55,3.68-.79,1.19-.25,2.36-.49,3.52-.73,1.14-.24,2.26-.46,3.34-.67,1.84-.37,3.6-.71,5.27-1.02.78-.15,1.54-.29,2.27-.43,3.24-.6,6.05-1.1,8.4-1.48.67-.11,1.31-.22,1.89-.32.3-.05.58-.09.85-.14.45-.07.85-.14,1.24-.2.27-.04.51-.09.75-.12.24-.04.48-.07.68-.1.43-.07.8-.12,1.11-.17.11-.02.21-.03.31-.05.35-.06.68-.11,1.03-.17.12-.18.25-.36.37-.54.14-.2.28-.41.44-.6,1.35-1.86,2.81-3.6,4.34-5.21,2.03-2.16,4.18-4.1,6.38-5.86,3.87-3.09,7.9-5.59,11.67-7.58h.02c4.75-2.51,9.1-4.2,12.24-5.27h0c.87-.29,1.64-.53,2.3-.74h0c1.16-.35,1.99-.57,2.41-.68h0c.19-.05.29-.07.29-.07Z"/>
    <path class="cls-1" d="M378.98,272.07c-5.52-15.06-12.44-26.68-20.71-34.76-.69.17-2.7.69-5.69,1.52-1.68.46-3.68,1.03-5.93,1.67-9.52,2.73-23.64,7.02-38.11,12.31,0,0-6.7,24.12-33.77,46.3-8.66,7.11-23.06,13.62-37.93,16.03-1.74.28-3.49.5-5.24.67-1.78.18-3.57.27-5.35.3,4.61,10.71,11.15,19.67,17.49,26.68,19.36,21.39,48.16,36.08,60.73,34.91.22-.02.44-.05.66-.08,16.02-2.32,47.83-27.1,64.83-55.57,11.08-18.57,14.2-35.85,9.02-49.97Z"/>
    <path class="cls-1" d="M182.86,306.42s-.17-.07-.49-.22c-.15-.07-.31-.14-.51-.23-2.55-1.16-9.62-4.54-17.59-9.77-.13-.08-.26-.17-.4-.25-.14-.09-.27-.19-.41-.27,0,0-.34.27-.76.61-.42.34-.92.73-1.25.97,0,0,.01,0,.04.03.06.06.19.15.37.3.1.08.21.18.34.29,1.17,1.01,3.51,3.18,5.32,5.94.76,1.14,2.21,3.35,4.77,9.54.06.15.13.3.19.45.06.15.13.32.2.48,0,0,5.04-4.07,10.17-7.86Z"/>
    <path class="cls-1" d="M177.03,343.88c-.05.75-.26,2.63-.99,5.29-.39,1.42-.94,3.07-1.69,4.89h0c-3.98,9.47-13.83,23.42-38.17,33.63,0,0-2.36,16-2.82,38.5-.03,1.79-.06,3.61-.07,5.48,0,1.77,0,3.58.01,5.41.48.19.96.36,1.45.54,12.75,4.55,32.27,1.13,49.75-8.71,15.55-8.76,25.83-20.46,28.23-32.11,4.27-20.77-15.99-41.16-35.67-52.92Z"/>
    <path class="cls-1" d="M126.65,392.6h0c-.19.21-.38.41-.57.62-3.29,3.5-6.09,6.39-8.47,8.76h0c-1.73,1.74-3.22,3.19-4.49,4.4-1.92,1.84-3.35,3.12-4.34,3.98-.31.27-.58.5-.8.69-.21.17-.38.32-.52.43h0c-.27.23-.43.35-.49.39-.02.01-.03.02-.03.02-.62,13.16.16,27.97,1.68,42.66.29,2.81.6,5.6.94,8.38.43,3.52.88,7,1.36,10.44,0,0,0,.03.01.04,4.84,34.46,12.14,63.93,12.14,63.93.03-.04.04-.07.07-.12.09-.18.21-.37.31-.55.14-.23.28-.48.42-.71,2.02-3.36,4.27-6.18,4.27-6.18-4.03-14.46-3.82-18.3-4.37-21.53-.29-1.73-.27-3.42-.03-5.03v-.02c.44-2.94,1.58-5.59,2.75-7.66.84-1.5,1.71-2.71,2.33-3.49.15-.2.29-.37.4-.51.28-.34.44-.51.44-.51-.04-.2-.07-.41-.1-.6-.1-.59-.18-1.19-.27-1.77-2.8-18.36-4.34-36.56-4.34-55.7,0-2.02.02-4.03.06-6.07h0c.03-2.16.09-4.34.16-6.52-.03-.03-.05-.05-.07-.07h0c.54-17.32,2.07-28.25,2.07-28.25-.18.2-.36.38-.54.57Z"/>
    <path class="cls-1" d="M100.23,454.08c-.2-2.14-.37-4.27-.52-6.41-8.84-5.38-18.88-7.58-30.01-6.55-3.35.31-6.78.92-10.32,1.82-17.28,4.4-35.66,22.2-47.98,46.46C.03,511.87-3.07,534.51,3.16,549.98c6.37,15.84,23.69,27.04,48.77,31.54,19.65,3.53,42.81,2.61,59-2.34,2.76-.85,5.34-1.91,7.71-3.22-.36-1.02-.89-2.75-1.29-5.03-.3-1.61-.54-3.5-.6-5.6-.13-3.53.2-7.69,1.45-12.23,0,0-12.46-45.44-17.3-92.01-.25-2.34-.48-4.69-.66-7.02Z"/>
    <path class="cls-1" d="M163.47,627.26s0,0,0-.02h0c-.34-1.23-.68-2.44-1.02-3.65-.47-1.66-.92-3.28-1.34-4.82-.04-.13-.07-.25-.11-.39-.18-.62-.34-1.22-.51-1.8-.25-.88-.48-1.72-.71-2.52-.15-.53-.29-1.04-.42-1.52-.13-.45-.25-.88-.36-1.28-.01-.03-.02-.06-.03-.08-.12-.43-.24-.83-.33-1.2-.06-.19-.1-.36-.15-.54-.16-.58-.3-1.07-.41-1.45-.18-.63-.28-.98-.28-.98-.18-.04-.36-.1-.54-.15-.19-.04-.38-.1-.57-.16-7.48-2.14-13.1-5.66-15.57-7.39-.28-.2-.52-.36-.71-.51h0c-.33-.25-.55-.41-.64-.48.35,1.16.7,2.32,1.06,3.47.11.37.23.74.34,1.1.15.49.3.97.44,1.43.11.35.22.69.33,1.03.1.34.2.67.31,1.01,1.86,5.92,3.26,10.33,4.22,13.32.11.33.21.66.32.98.13.41.25.79.37,1.13.07.23.14.45.21.64,0,.04.02.07.03.11.1.29.18.56.25.79.07.22.14.42.19.58.04.15.08.26.11.35.03.07.04.12.05.16s.03.07.03.1c.2.05.38.1.57.14.2.05.39.1.59.15,3.93,1,6.86,1.83,9.02,2.51,2.35.73,3.8,1.26,4.67,1.62.02,0,.03,0,.05.02.22.09.4.16.54.23.42.19.57.29.57.29-.2-.74-.41-1.48-.61-2.22Z"/>
    <path class="cls-1" d="M238.92,589.41c-.4.32-1.87,1.49-4.2,3.11-1.22.86-2.66,1.83-4.32,2.88-5.98,3.79-14.62,8.51-24.36,11.48-11.1,3.4-20.48,3.75-29.39,3.09-.69-.05-1.37-.1-2.04-.17-.42-.04-.84-.07-1.27-.12-.75-.07-1.49-.15-2.24-.24-1.79-.2-3.56-.42-5.34-.66l-.85,1.61s.89,3.19,2.05,7.36h0c.27.95.54,1.93.82,2.93.09.33.18.68.29,1.02.38,1.36.76,2.75,1.15,4.11v.02c.79,2.85,1.55,5.58,2.11,7.64,0,0,17.34,10.15,19.68,35.4.15,1.62.24,3.31.25,5.07.02,1.62-.03,3.3-.15,5.03,23.87,2.98,48.36-10.2,56.28-14.95,5.03-3.03,21.48-13.52,22.12-21.63.97-12.11-11.99-37.72-30.58-52.97Z"/>
    <path class="cls-1" d="M181.91,710.13c-.12-1.31-.27-2.64-.43-3.98,0,0-.14.21-.41.59-.11.17-.26.38-.43.62-.81,1.14-2.18,2.96-3.84,4.86-.49.56-1,1.13-1.54,1.68-.16.18-.33.34-.5.51-.14.14-.28.28-.41.41.06.38.1.75.13,1.12.33,2.89.56,5.74.71,8.56,0,.01-.02.02-.03.03h0c.09,1.84.15,3.87.15,6.09,0-.01.02-.01.03-.02.03,4.33-.16,8.61-.58,12.9-.02.15-.03.3-.05.46-.45,4.7-1.19,9.72-2.33,14.86-.13.61-.43,1.91-.89,3.79-.06.24-.12.48-.18.73-.12.51-.26,1.05-.41,1.63-.23.87-.49,1.8-.76,2.8-.2.67-.39,1.37-.61,2.11-.21.75-.44,1.52-.68,2.27-.25.79-.5,1.59-.77,2.43-.25.78-.52,1.58-.8,2.4-.04.13-.09.27-.14.41-.53,1.57-1.1,3.21-1.73,4.9,0,.01,0,0-.02,0-.58,1.56-1.18,3.15-1.83,4.75.01.02.02.03.03.02-.63,1.56-1.3,3.17-2,4.82,0,0,.16.03.46.12.13.03.3.07.48.14.75.24,1.9.7,3.37,1.53.15.08.29.16.45.26.13.08.27.16.4.24,0,0,.04-.06.13-.2l.02-.02c.86-1.45,1.68-2.91,2.45-4.41,0,0,0-.01.02-.03l.34-.69c.04-.08.09-.18.14-.28l.15-.31c.1-.22.22-.45.35-.71l.36-.76c.05-.09.09-.17.14-.26l.08-.16c.11-.22.22-.44.32-.65l.35-.71c.72-1.52,1.39-3.07,2.03-4.65.39-.97.77-1.94,1.13-2.93.33-.87.65-1.78.97-2.72.06-.19.13-.37.19-.57.03-.09.07-.2.1-.3.2-.57.39-1.15.56-1.73.04-.11.07-.24.11-.35.07-.23.15-.47.22-.7.32-1.06.64-2.16.96-3.28.21-.76.41-1.52.61-2.31.01-.06.03-.12.04-.19.09-.33.17-.66.25-.99.23-.9.43-1.82.64-2.74,1.21-5.55,2.11-11.32,2.67-17.34.05-.57.11-1.13.14-1.7.01-.18.03-.37.04-.57.03-.43.07-.91.1-1.41.03-.43.06-.9.08-1.37.08-1.43.15-3.05.21-4.82,0-.44.03-.9.03-1.36.04-1.39.07-2.86.07-4.41,0-.68,0-1.39,0-2.1,0-.52,0-1.05-.02-1.59,0-.47-.02-.94-.03-1.43,0-.28,0-.56-.02-.85-.01-.26-.02-.52-.03-.77,0-.09,0-.17,0-.26-.1-2.75-.25-5.54-.48-8.37h0c-.06-1.01-.15-2.02-.25-3.03Z"/>
    <path class="cls-1" d="M170.78,721.63c-7.26,4.83-21.03,14.81-23.39,29.97-1.52,9.86,1.96,20.12,10.36,30.5.74.91,1.55,1.75,2.44,2.52.71-1.7,1.36-3.39,1.97-5.05.7-1.89,1.34-3.76,1.93-5.6,5.26-16.32,6.74-30.73,7-40.31.07-2.38.07-4.46.03-6.2-.08-3.14-.27-5.17-.34-5.83Z"/>
    <path class="cls-1" d="M245.98,719.06c-5-14.74-15.52-24.09-30.41-27.03-3.93-.77-7.5-.95-10.75-.65-8.13.76-14.31,4.53-19.32,9.57.32,2.22.59,4.39.82,6.53.29,2.55.5,5.06.67,7.51,2.15,31.43-4.35,54.01-9.17,65.99-.75,1.86-1.46,3.46-2.09,4.8-1.15,2.45-2.03,4.02-2.43,4.68,2.26.4,4.68.63,7.27.68,21.73.45,52.37-11.98,61.26-22.09,6.14-6.97,10.58-31.03,4.15-50Z"/>
  </g>
</svg>