<?xml version="1.0" encoding="UTF-8"?>
<svg id="Calque_2" data-name="Calque 2" xmlns="http://www.w3.org/2000/svg" viewBox="0 0 431.44 430.86">
  <defs>
    <style>
      .cls-1 {
        fill: #000;
        stroke-width: 0px;
      }
    </style>
  </defs>
  <g id="I_HORLOGE">
    <path class="cls-1" d="M215.18.01C97.05-.62-1.82,99.12.03,217.2c1.16,152.27,156.18,254.93,296.96,197.5,79.15-31.07,134.92-112.24,134.44-197.5C433.03,98.74,333.79-1.25,215.18.01ZM291.21,400.76C161.16,455.49,16.66,358.14,17.93,217.2c-.06-106.9,90.4-196.48,197.25-195.21,106.2-.78,196.61,88.88,196.16,195.21,1.37,78.08-47.77,153.69-120.13,183.56Z"/>
    <path class="cls-1" d="M213.18,43.77c-93.43-.28-171.7,78.52-170.2,171.99.88,120.7,123.46,201.74,235.13,156.73,63.19-24.52,108-88.62,107.63-156.73,1.18-94.33-78.39-173.22-172.56-171.99ZM302.07,348.8c-82.78,57.78-199.57,21.57-237.01-71.69-33.47-80.36,6.71-175.58,87.46-207.81,103.61-42.4,217.97,34.71,218.22,146.46.66,52.07-25.6,103.49-68.67,133.04Z"/>
    <path class="cls-1" d="M288.62,245.61l-54.15-23.81c.02-.21.03-.41.03-.62.28-10.4-7.17-18.69-16.38-20.58v-91.36c0-2.76-2.24-5-5-5s-5,2.24-5,5v91.9c-.66.21-1.33.46-1.99.75-13.34,5.59-16.6,23.57-6.12,33.42,8.37,8.06,20.67,6.91,28.1.07l54.48,23.96c.98.43,2,.64,3.01.64,2.88,0,5.64-1.68,6.87-4.49,1.67-3.79-.06-8.22-3.85-9.88ZM214.13,228.37c-5.99-.01-8.9-7.73-4.37-11.56,3.8-3.5,10.68-.87,10.95,4.37.06.64.02,1.28-.12,1.89-.15.69-.41,1.36-.77,1.97-1.16,2-3.29,3.44-5.69,3.33Z"/>
    <path class="cls-1" d="M220.59,223.07c-.15.69-.41,1.36-.77,1.97.1-.44.24-.87.43-1.3.1-.23.21-.45.34-.67Z"/>
    <path class="cls-1" d="M214.13,90.1c-2.76,0-5-2.24-5-5v-12c0-2.76,2.24-5,5-5s5,2.24,5,5v12c0,2.76-2.24,5-5,5Z"/>
    <path class="cls-1" d="M355.98,226.19h-12c-2.76,0-5-2.24-5-5s2.24-5,5-5h12c2.76,0,5,2.24,5,5s-2.24,5-5,5Z"/>
    <path class="cls-1" d="M84.34,225.43h-12c-2.76,0-5-2.24-5-5s2.24-5,5-5h12c2.76,0,5,2.24,5,5s-2.24,5-5,5Z"/>
    <path class="cls-1" d="M214.13,363.38c-2.76,0-5-2.24-5-5v-12c0-2.76,2.24-5,5-5s5,2.24,5,5v12c0,2.76-2.24,5-5,5Z"/>
    <path class="cls-1" d="M305.95,130.09c-1.28,0-2.56-.49-3.54-1.46-1.95-1.95-1.95-5.12,0-7.07l8.49-8.49c1.95-1.95,5.12-1.95,7.07,0s1.95,5.12,0,7.07l-8.49,8.49c-.98.98-2.26,1.46-3.54,1.46Z"/>
    <path class="cls-1" d="M310.03,326.62c-1.28,0-2.56-.49-3.54-1.46l-8.49-8.49c-1.95-1.95-1.95-5.12,0-7.07,1.95-1.95,5.12-1.95,7.07,0l8.49,8.49c1.95,1.95,1.95,5.12,0,7.07-.98.98-2.26,1.46-3.54,1.46Z"/>
    <path class="cls-1" d="M122.51,127.43c-1.28,0-2.56-.49-3.54-1.46l-8.49-8.49c-1.95-1.95-1.95-5.12,0-7.07,1.95-1.95,5.12-1.95,7.07,0l8.49,8.49c1.95,1.95,1.95,5.12,0,7.07-.98.98-2.26,1.46-3.54,1.46Z"/>
    <path class="cls-1" d="M114.93,325.64c-1.28,0-2.56-.49-3.54-1.46-1.95-1.95-1.95-5.12,0-7.07l8.49-8.49c1.95-1.95,5.12-1.95,7.07,0,1.95,1.95,1.95,5.12,0,7.07l-8.49,8.49c-.98.98-2.26,1.46-3.54,1.46Z"/>
    <path class="cls-1" d="M95.46,167.56c-.63,0-1.27-.12-1.88-.37l-11.12-4.53c-2.56-1.04-3.79-3.96-2.75-6.52,1.04-2.56,3.96-3.78,6.52-2.75l11.12,4.53c2.56,1.04,3.79,3.96,2.75,6.52-.79,1.94-2.66,3.12-4.63,3.12Z"/>
    <path class="cls-1" d="M264.94,99.35c-.63,0-1.27-.12-1.88-.37-2.56-1.04-3.79-3.96-2.75-6.52l4.53-11.12c1.04-2.56,3.96-3.79,6.52-2.75,2.56,1.04,3.79,3.96,2.75,6.52l-4.53,11.12c-.79,1.94-2.66,3.12-4.63,3.12Z"/>
    <path class="cls-1" d="M160.45,356.05c-.63,0-1.27-.12-1.88-.37-2.56-1.04-3.79-3.96-2.75-6.52l4.53-11.12c1.04-2.56,3.96-3.78,6.52-2.75,2.56,1.04,3.79,3.96,2.75,6.52l-4.53,11.12c-.79,1.94-2.66,3.12-4.63,3.12Z"/>
    <path class="cls-1" d="M343.05,271.35c-.63,0-1.27-.12-1.88-.37l-11.12-4.53c-2.56-1.04-3.79-3.96-2.75-6.52,1.04-2.56,3.96-3.79,6.52-2.75l11.12,4.53c2.56,1.04,3.79,3.96,2.75,6.52-.79,1.94-2.66,3.12-4.63,3.12Z"/>
    <path class="cls-1" d="M164.98,99.91c-1.97,0-3.83-1.17-4.63-3.1l-4.56-11.1c-1.05-2.55.17-5.48,2.73-6.52,2.55-1.05,5.48.17,6.52,2.73l4.56,11.1c1.05,2.55-.17,5.48-2.73,6.52-.62.26-1.26.38-1.9.38Z"/>
    <path class="cls-1" d="M336.78,176.49c-1.97,0-3.83-1.17-4.63-3.1-1.05-2.55.17-5.48,2.73-6.52l11.1-4.56c2.55-1.05,5.48.17,6.52,2.73,1.05,2.55-.17,5.48-2.73,6.52l-11.1,4.56c-.62.25-1.26.38-1.9.38Z"/>
    <path class="cls-1" d="M85.89,280.98c-1.97,0-3.83-1.17-4.63-3.1-1.05-2.55.17-5.48,2.73-6.52l11.1-4.56c2.56-1.05,5.48.17,6.52,2.73,1.05,2.55-.17,5.48-2.73,6.52l-11.1,4.56c-.62.25-1.26.38-1.9.38Z"/>
    <path class="cls-1" d="M268.74,352.72c-1.97,0-3.83-1.17-4.63-3.1l-4.56-11.1c-1.05-2.55.17-5.48,2.73-6.52,2.56-1.05,5.48.17,6.52,2.73l4.56,11.1c1.05,2.55-.17,5.48-2.73,6.52-.62.25-1.26.38-1.9.38Z"/>
  </g>
</svg>