<?xml version="1.0" encoding="UTF-8"?>
<svg id="Calque_2" data-name="Calque 2" xmlns="http://www.w3.org/2000/svg" viewBox="0 0 414.97 275.66">
  <defs>
    <style>
      .cls-1 {
        fill: #000;
        stroke-width: 0px;
      }
    </style>
  </defs>
  <g id="I_MAIL">
    <path class="cls-1" d="M414.74,34.5c-1.51-14.51-11.97-27.41-25.84-31.94-4.01-1.36-8.4-1.96-12.62-1.98C334.84.21,249.97.04,207.74,0,163.9.09,78.5.3,35.54.68,17.44.81,1.81,15.14.16,33.16c-.17,2.24-.18,5.12-.13,7.38.03,2.62.06,5.24.08,7.87.03,2.63.06,5.26.09,7.89.03,2.65.06,5.29.08,7.93.03,2.65.06,5.3.09,7.95.03,2.66.06,5.32.09,7.98.03,2.66.06,5.33.09,7.99.03,2.67.07,5.34.1,8.01.03,2.68.06,5.36.1,8.03.03,2.68.06,5.36.1,8.04.03,2.68.07,5.37.1,8.05.04,2.68.07,5.37.11,8.05.04,2.69.08,5.38.12,8.06.04,2.69.08,5.38.12,8.06.04,2.69.08,5.38.12,8.06.05,2.69.09,5.37.13,8.06.05,2.68.1,5.36.14,8.05l.15,8.04c.05,2.67.1,5.35.15,8.02s.11,5.35.16,8.02c.06,2.66.11,5.33.17,7.99.06,2.66.12,5.32.18,7.98.06,2.65.12,5.3.18,7.95.07,2.64.13,5.28.2,7.92.06,2.68.02,5.34-.11,8.02-.1,1.92-.25,3.85-.2,5.77.1,2.39.01,4.75.22,7.32.63,15.93,14.47,29.66,30.4,30.01,20.5-.08,41.02-.52,61.52-.61,92.27-.73,187.23-.74,279.6.5,1.16.02,4.21.07,5.31.07,13.85.2,26.76-9.26,30.98-22.44,1.59-5,1.76-10.16,1.57-15.36-.19-5.41-.22-10.83-.14-16.24.09-5.26.5-10.53.5-15.79.09-5.46.15-10.91.26-16.37v-.15c.23-10.96.43-21.93.63-32.89.15-8.43.44-16.87.44-25.3.33-23.39.92-66.04,1.1-89.04,0-2.33.09-5.25-.22-7.54ZM397.87,219.08c-34.65-26.04-69.51-52.03-104.43-77.8l101.81-75.08c.55,50.01,1.4,102.92,2.62,152.88ZM19.86,37.36c.04-2,.31-4.06,1.07-5.91,2.23-6.16,8.61-10.34,15.09-10.14,105.33.73,231.72.88,337.08.1l3.18-.02c.49-.01.79.01,1.25.04,8.15.04,15.67,6.41,17.09,14.44.38,1.76.36,4.36.38,6.17,0,0,.06,5.67.06,5.67-6.28,4.63-12.57,9.27-18.85,13.9l-40.88,30.15c-13.17,9.71-26.33,19.42-39.5,29.13-12.55,9.26-24.62,19.14-37,28.61-11.56,8.84-23.57,17.24-38.21,19.84-16.52,3.22-34.26-.06-47.58-10.39-11.23-8.74-22.52-17.73-33.45-26.91-.04-.04-.08-.07-.12-.1l-4.35-3.25L19.82,42.76c.01-1.88.03-3.68.04-5.4ZM18.73,129.58c.25-17.98.62-45.25.88-68.26l102.95,76.72L17.06,216.67c.7-29.03,1.18-58.06,1.67-87.09ZM397.64,245.23c-.5,6.23-3.97,11.85-9.43,14.93-.77.43-1.57.81-2.39,1.12-2.26.93-4.7,1.29-7.14,1.34-1.35.07-30.55.35-32.33.43-101.94.98-205.74.85-307.56-.46-1.56-.04-4.72-.01-6.17-.27-8.45-1.08-15.43-8.79-15.44-17.33-.02-2.52.09-6.43.17-9.82l118.03-87.97c9.27,6.18,18.51,12.63,27.54,19.04,11.29,8.57,24.64,13.92,38.76,15,13.08,1.12,26.66-.82,38.88-5.61,13.44-5.26,24.87-15.2,36.8-23.13.31-.21,3.01-2.23,3.18-2.1,37.01,27.28,74.1,54.3,111.45,81.27l6.28,4.63c.01,2.85-.4,5.95-.64,8.93Z"/>
  </g>
</svg>