<?xml version="1.0" encoding="UTF-8"?>
<svg id="Calque_2" data-name="Calque 2" xmlns="http://www.w3.org/2000/svg" viewBox="0 0 326.16 476.99">
  <defs>
    <style>
      .cls-1 {
        fill: #000;
        stroke-width: 0px;
      }
    </style>
  </defs>
  <g id="I_ETIQUETTES">
    <path class="cls-1" d="M111.57,104.37s-.01.07-.02.1c.03-.03.06-.07.1-.1-.03-.01-.05-.01-.08,0Z"/>
    <path class="cls-1" d="M196.5,361.9H46.02c-2.76,0-5-2.24-5-5s2.24-5,5-5h150.48c2.76,0,5,2.24,5,5s-2.24,5-5,5Z"/>
    <path class="cls-1" d="M196.5,395.59H46.02c-2.76,0-5-2.24-5-5s2.24-5,5-5h150.48c2.76,0,5,2.24,5,5s-2.24,5-5,5Z"/>
    <path class="cls-1" d="M196.5,428.64H46.02c-2.76,0-5-2.24-5-5s2.24-5,5-5h150.48c2.76,0,5,2.24,5,5s-2.24,5-5,5Z"/>
    <path class="cls-1" d="M326.09,415.81l-.04-.58-.07-1.15-.13-2.3c-1.22-20.55-3.51-57.63-4.71-78.19-2.91-49.88-6.74-118.16-9.78-167.9-.39-6.33-1.72-12.61-4-18.54-2.52-6.66-6.38-12.74-10.88-18.24-5.64-7.29-17.05-21.74-22.72-29.02-.85-1.11-3.49-4.42-4.28-5.45-8.23-10.47-21.47-16.63-34.8-16.13-2.93.15-6.9.6-9.86.87-10.3,1.12-21.9,2.14-33.71,3.23-.68-7.7-2.91-15.25-6.36-22.27-2.49-4.8-5.64-10.02-9.76-13.98,10.08-4.55,17.5-16.08,20.99-25.73,1.54-4.36,2.6-8.85,2.86-13.53.12-2.36-1.04-4.71-3.21-5.99-3.25-1.94-7.46-.66-9.18,2.69-1.89,3.2-3.79,6.37-5.82,9.35-3.69,5.45-8.05,11.02-13.16,14.64-1.05.62-1.97,1.3-2.8,2.05-5.17-2.36-11.96-2.36-17.3-2.36s-11.36,0-16.14,1.76c-1.19-.8-2.48-1.48-3.85-2.16-3.13-1.77-6.19-3.93-9.1-6.35-6.04-5.03-11.08-10.99-15.76-17.47-1.43-2.15-4.05-3.35-6.74-2.8-3.5.72-5.76,4.15-5.04,7.65,1.02,4.91,2.88,9.66,5.31,14.12,5.01,9.06,12.3,16.77,21.34,22.11.4.25.8.48,1.2.71-14.84,16.22-24.1,37.83-25.26,59.78-1.54.03-3.07.06-4.6.09-13.6.2-27.06,5.32-37.25,14.32-4.47,3.91-8.46,8.96-12.24,13.01l-11.14,12.42c-1.86,2.1-6.54,7.28-8.35,9.33-9.91,10.37-16.79,23.53-18.95,37.74-1.03,6-.89,12.37-.56,18.41,2.99,65,8.14,173.74,10.53,237.53-.39,16.12,11.88,29.44,28.11,29.51,15.05-.11,43.14-.23,58.41-.22,35.07-.14,78.67.03,113.68.15,12.43.17,24.14-8.67,27.39-20.68.46-1.45.74-3.02.91-4.58l13.76-1.35c13.71-1.36,33.38-2.95,47.04-4.21,3.19-.33,6.47-1.08,9.38-2.46,10.59-4.66,17.48-16.27,16.64-27.83ZM111.57,104.37c1.89-14,7.69-27.49,15.85-38.96,1.94-2.95,4.47-5.22,6.53-7.8,2.97.59,6.27.67,9.69.67h3.73c3.66,0,7.8,0,11.64-.65,2.77,3.97,6.2,7.52,8.69,11.87,2.87,4.59,5.24,9.45,7.47,14.45-11.55,1.17-22.84,2.49-32.82,4.13-7.4,1.07-14.51,3.75-20.67,7.73-3.74,2.41-7.14,5.3-10.03,8.56-.04.03-.07.07-.1.1.01-.03.02-.07.02-.1ZM128.09,176.84c5.58,2.98,11.71,4.5,17.96,5.31-4.39,12.25-17.92,19.37-31.32,13.66-15.44-6.55-19.38-26.88-7.94-38.64,5.32,8.12,12.34,15,21.3,19.67ZM119.43,150.24c12.53-2.34,25.92,6,27.85,19.85-4.6-.25-9.08-2.13-13.06-4.41-6.41-3.79-11.24-9.19-14.79-15.44ZM228.97,448.55c-.02,1.19-.1,2.17-.3,3.31-.53,3.19-2,6.22-4.11,8.69-3.16,3.74-7.92,6.09-12.81,6.32-3.55.17-10.79.07-14.36.13-47.87.15-102.31.21-150.15-.09l-8.31-.06c-6.51-.02-12.76-3.98-15.6-9.8-1.08-2.15-1.7-4.53-1.82-6.92-.02-.28-.05-.5-.05-.88l-.05-2.09s-.1-4.17-.09-4.17c-1.54-65.16-2.5-173.34-3.56-239.6.09-12.35,4.97-24.6,13.39-33.61,5.66-6.06,17.19-18.05,22.84-24.14,2.79-2.88,8.07-8.8,10.84-11.05,6.66-5.58,15.33-8.61,23.99-8.51,2.01.02,4.04.05,6.07.07,1.35,7.37,3.53,14.65,6.64,21.43-12.52,12.2-14.73,33.68-.06,47.92,18.45,17.86,49.81,7.92,55.83-15.55.45-1.74.76-3.56.92-5.45.04-.61.07-1.23.09-1.85.55-18.83-15.12-34.72-33.99-34.37-3.37.06-6.54.57-9.49,1.47-1.45-4.39-2.45-8.96-3.07-13.52,20.19.02,40.81-.23,60.48-.65,1.29-.03,5.04-.08,6.26-.11,6.18-.24,12.36,2.26,16.63,6.79,1.05,1.04,1.99,2.42,2.82,3.62,3.91,5.79,20.29,30.24,24.47,36.33,2.69,3.83,5,7.99,6.4,12.46,1.42,4.38,2.13,8.89,2.09,13.62l-.35,66.74c-.3,51-.63,116.19-1.34,166.84l-.25,16.68ZM314.44,424.07c-1.94,5.99-7.31,10.74-13.5,12.05-.87.14-2.07.37-2.96.43-17.94,2-39.61,4.22-58.31,6.05.34-11,.87-28.63,1.24-39.11l40.26-3.92c2.75-.27,4.76-2.71,4.49-5.46-.27-2.75-2.71-4.76-5.46-4.49l-38.92,3.79c.25-7.53.52-15.29.8-23.23l35.88-3.5c2.75-.27,4.76-2.72,4.49-5.46-.26-2.75-2.71-4.77-5.46-4.49l-34.54,3.37c.27-7.84.57-15.83.86-23.9l31.38-3.05c2.75-.27,4.76-2.72,4.49-5.47-.26-2.74-2.7-4.76-5.46-4.49l-30.03,2.93c1.62-43.46,3.4-88.68,4.95-127.44.42-9.66-1.62-19.69-5.82-28.49-2.85-6.2-18.66-30.1-22.45-36.47-1.07-1.74-5.19-8.13-6.15-9.7-5.19-8.11-13.17-14.34-22.35-17.36-2.2-.76-4.48-1.28-6.78-1.62,13.31-1.42,38.86-4.22,48.79-5.26,8.29-1.01,15.98,2.76,20.82,9.46,1.56,1.85,12.9,15.9,14.56,17.85,3.51,4.55,13.65,16.07,16.59,20.64,3.55,5.5,5.8,11.85,6.48,18.37,3.2,34.92,8.78,96.31,12.16,131.78,3.33,35.46,7.46,81.59,10.66,117.02.37,3.07.33,6.23-.71,9.17Z"/>
    <path class="cls-1" d="M157.3,179.95c.45-1.74.76-3.56.92-5.45.07.25.13.5.17.76.3,1.72-.15,3.37-1.09,4.69Z"/>
  </g>
</svg>