<?xml version="1.0" encoding="UTF-8"?>
<svg id="Calque_2" data-name="Calque 2" xmlns="http://www.w3.org/2000/svg" viewBox="0 0 438.9 478.7">
  <defs>
    <style>
      .cls-1 {
        fill: #000;
        stroke-width: 0px;
      }
    </style>
  </defs>
  <g id="I_FEUILLES">
    <path class="cls-1" d="M264.56,85.84H34.59c-2.76,0-5-2.24-5-5s2.24-5,5-5h229.97c2.76,0,5,2.24,5,5s-2.24,5-5,5Z"/>
    <path class="cls-1" d="M264.56,123.93H34.59c-2.76,0-5-2.24-5-5s2.24-5,5-5h229.97c2.76,0,5,2.24,5,5s-2.24,5-5,5Z"/>
    <path class="cls-1" d="M142.58,162.03H34.59c-2.76,0-5-2.24-5-5s2.24-5,5-5h107.99c2.76,0,5,2.24,5,5s-2.24,5-5,5Z"/>
    <path class="cls-1" d="M264.56,229.2H34.59c-2.76,0-5-2.24-5-5s2.24-5,5-5h229.97c2.76,0,5,2.24,5,5s-2.24,5-5,5Z"/>
    <path class="cls-1" d="M264.56,268.3H34.59c-2.76,0-5-2.24-5-5s2.24-5,5-5h229.97c2.76,0,5,2.24,5,5s-2.24,5-5,5Z"/>
    <path class="cls-1" d="M264.56,307.4H34.59c-2.76,0-5-2.24-5-5s2.24-5,5-5h229.97c2.76,0,5,2.24,5,5s-2.24,5-5,5Z"/>
    <path class="cls-1" d="M142.58,346.51H34.59c-2.76,0-5-2.24-5-5s2.24-5,5-5h107.99c2.76,0,5,2.24,5,5s-2.24,5-5,5Z"/>
    <path class="cls-1" d="M423.45,66.89c-40.02-7.52-80.69-14.85-121.04-20.61.41-7.87.74-15.75,1.04-23.63l.06-1.55v-.39s.01-.55.01-.55c.15-9.36-7.72-17.87-17.07-18.51C204.64-.93,118.12.2,36.13.51c-1.28-.03-13.9.15-14.74.1-1.12.02-2.47.1-3.58.3C9.22,2.2,2.01,9.24.4,17.75c-.25,1.52-.44,3.09-.39,4.64v.77s.13,12.42.12,12.42c1.02,99.14,2.89,267.69,3.74,366.21.04,1.83-.02,4.79.11,6.57.48,5.34,4.84,9.91,10.12,10.66.37.06.74.12,1.12.12.34.02.81.04,1.02.03l12.41-.02c14.76-.12,30.71.1,45.62.37.19,1.04.5,2.02.86,2.81,1.81,4.13,5.87,6.91,10.29,7.41l1.32.23,5.29.92c80.51,14.09,172.59,31.5,253.27,46.51l5.27.98.35.07c1.06.13,2.29.33,3.35.2,6.54-.18,12.48-5.46,13.5-11.86,3.52-18.63,65.6-352.11,70.85-379.71,1.82-9.91-5.33-18.97-15.17-20.19ZM78.31,411.33c-12,.33-25.16.42-37.24.48l-12.42-.03-12.41-.02c-2.35.12-4.49-1.84-4.66-4.13.78-107.02,2.9-277.03,3.89-384.47v-.77s.01-.39.01-.39l.02-.17c.09-3.04,2.86-5.56,5.89-5.41,51.15.32,112.63.68,163.7.55,22.82-.07,51.56-.34,74.49-.88,8.27-.14,16.55-.42,24.83-.62,1.98-.2,3.95.42,5.25,2.03.8.99,1.23,2.3,1.24,3.59.34,9.79.75,19.61,1.28,29.39v.09s-.02,22.59-.05,55.13v.89c0,11.56-.02,24.35-.03,37.82v.89c-.01,12.18-.02,24.91-.03,37.76v1.03c-.02,20.01-.03,40.32-.05,59.35-.01,0-.01.02,0,.03v.98s0,.02,0,.03c-.01,13.74-.02,26.81-.03,38.62-.01.01-.01.02,0,.03v1.12s-.01.02,0,.03c-.01,15.64-.02,29-.04,38.7h0c.01.31.01.61,0,.9h0c0,10.11-.01,16-.01,16v4.86c-.06-.03-.12-.05-.18-.07-6.01-2.2-12-3.69-18.21-4.94-9.92-1.83-20.07-3.42-30.29-2.23-3.84.2-6.83,3.95-6.22,7.75,1.53,12.74,2.17,26.04-.8,38.08-1.82,7.44-5.07,14.42-9.75,20.44-1.8,2.36-3.92,4.55-5.99,6.69-9.86.13-24.12.33-33.71.45-34.71.43-73.16.98-107.7.49-.24-.05-.51-.07-.78-.07ZM247.4,348.05c-.03-.26-.06-.56-.1-.9,2.31-.14,4.64-.1,7.07.05,11.3.79,23.26,3.05,33.89,6.82.34.12.78.3,1.27.5-9.32,17-29.25,39.16-51.52,50.21,10.23-16.68,11.68-36.31,9.39-56.68ZM426,84.79c-4.99,24.93-64.26,371.32-68.33,383.04-1.3,1.58-3.53,2.25-5.51,1.81-82.57-14.7-176.62-30.88-258.74-46.39l-5.27-1-1.32-.25-.66-.12c-1.48-.19-2.82-1.1-3.51-2.39,33.66-.35,70.6.04,104.13.53,9.44.12,24.57.33,33.91.44l1.13.02h.37c.06-.01.12-.01.18-.02h.08s.09.01.13.01c.34,0,.68-.03,1.02-.11,34.84-7.19,67.63-43.85,77.91-67.55.36-.83.48-1.7.38-2.53v-.02c.05-.43.06-.88.02-1.34v-9.03s0-3.78.01-10.47l53.04,9.63c.3.05.6.08.9.08,2.37,0,4.47-1.69,4.91-4.11.49-2.72-1.31-5.32-4.03-5.81l-54.81-9.95c.01-8.04.01-18.1.02-29.57l59.99,10.88c.3.06.6.08.9.08,2.37,0,4.47-1.69,4.91-4.1.5-2.72-1.31-5.32-4.02-5.82l-61.77-11.2c.01-9.24.02-19.19.03-29.58l66.93,12.15c.3.05.61.08.9.08,2.37,0,4.48-1.69,4.92-4.11.49-2.72-1.32-5.32-4.03-5.81l-68.71-12.47c.01-16.22.03-33.27.04-50.22l78.88,14.31c.3.06.6.09.9.09,2.37,0,4.47-1.7,4.91-4.11.49-2.72-1.31-5.32-4.03-5.81l-80.65-14.64c.01-9.67.02-19.25.03-28.56l85.64,15.54c.3.06.6.09.9.09,2.37,0,4.47-1.7,4.91-4.11.5-2.72-1.31-5.32-4.02-5.81l-87.42-15.87c0-10.01.02-19.6.02-28.56l92.41,16.77c.3.06.61.09.9.09,2.37,0,4.48-1.7,4.92-4.11.49-2.72-1.31-5.32-4.03-5.81l-94.19-17.09c.02-20.6.04-36.81.04-45.17,33.42,7.34,67.45,13.71,101.07,19.72l17.89,3.15,1.11.2c.24.04.22.05.33.07l.23.05c2.08.48,3.58,2.71,3.2,4.79Z"/>
  </g>
</svg>