<?xml version="1.0" encoding="UTF-8"?>
<svg id="Calque_2" data-name="Calque 2" xmlns="http://www.w3.org/2000/svg" viewBox="0 0 369.94 490.85">
  <defs>
    <style>
      .cls-1 {
        fill: #000;
        stroke-width: 0px;
      }
    </style>
  </defs>
  <g id="I_PROFIL">
    <path class="cls-1" d="M356.8,76.14C330.13,20.2,267,1.68,209.39.1c-46.1-1.54-92.37,15.53-126.75,46.19-22.5,20.1-41.67,44.62-52.15,73.23-1.33,4.01-2.52,8.72-2.74,12.93-.57,7.34-.17,14.98,1.8,22.1,1.15,4.72,2.83,7.28,2.81,10.74-.17,2.98-2.07,6.09-3.87,9-2.37,3.59-5.55,7.37-8.96,11.3C11.44,195.2.72,205.74,0,219.77c.75,16.5,7.38,23.22,20.74,30.81,2.12,1.24,4.17,2.41,6.21,3.57-.11-.32-.22-.65-.34-.97-.2-.63-.46-.93-.64-1.38l3.27,3.66c-.76-.44-1.53-.87-2.29-1.31,1.66,5.01,2.03,10.28,2.58,15.72,1.28,14.77,1.56,29.86,4.51,44.77,2.27,11.15,6.31,23.12,15.4,30.81,10.72,7.96,23.31,14.21,36.94,14.7,4.27.13,8.56-.28,12.56-1.07,7.06-1.21,14.17-4.09,20.78-4.06,1.88.01,3.56.3,5.12.87-.09-.08-.19-.15-.29-.23l1.28.63c-.32-.15-.65-.28-.99-.4,3.79,3,7.13,6.44,10,10.24,21.54,29.76,11.93,75.03,1.12,107.55-3.79,10.94,7.75,20.99,18.03,15.73,21.73-10.6,42.11-23.71,64.36-33.11,24.19-9.88,57.19-21.09,83.26-18.42l.88.09.45.05c2.23.28,4.55-.08,6.59-1.09,5.03-2.31,7.61-8.57,5.96-13.76-3.69-13.74-6.13-27.78-8.18-41.91-2.87-20.46-4.79-41.4-4.13-61.94.12-2.52.46-8.82.79-11.27.41-5.58,1.71-11.2,4.03-16.1,4.04-8.56,11.11-15.51,17.56-23.05,3.57-4.1,7.19-8.45,10.55-13.06,16.9-22.86,25.58-50.73,30.35-78.3,5.86-33.65,5.38-69.81-9.66-101.4ZM342.34,173.81c-3.33,24.59-9.69,49.15-23.66,69.78-5.79,8.73-12.56,16.11-19.12,24.8-12.75,16.93-14.58,29.93-14.62,50.64.15,21.9,2.82,43.3,6.41,64.74,2.31,13.18,4.97,26.42,8.64,39.37-35.44-1.4-69.4,14.53-101.69,26.57-12.71,4.87-25.43,9.75-37.94,15.01,12.49-42.99,15-96.41-25.26-123.96l-2.11-1.18-.42-.08c-7.1-1.42-14.2-.77-20.77,1.3-8.25,2.48-16.29,6.32-24.95,5.85-6.12-.2-12.25-2.23-18.18-5.26-5.29-2.95-10.95-5.73-14.24-11.25-9.48-16.19-7.59-42.45-8.31-61.21-.32-8.27-.38-17.25-3.76-25.17l-.78-1.93-2.49-1.73-8.01-5.62c-2.56-1.81-5.05-3.62-6.73-5.21-1.42-1.36-2.02-2.09-2.49-3.69-.32-.99-.5-2.83-.52-5-.02.08-.05.16-.07.24l.08-1.54c0,.44,0,.88,0,1.3.83-2.66,2.95-5.75,5.15-8.27,13.6-15.77,36.07-31.9,30.07-56.36-1.08-4.48-2.68-8.79-2.76-13.35-.14-2.55.06-5.2.34-7.77.18-1.89.61-3.18,1.21-4.94,8.64-22.93,27.69-45.69,46.3-61.52,34.34-29.28,77.15-41.97,122-37.49,14.71,1.26,29.79,3.65,43.77,7.9,65.57,19.23,83.64,71.83,74.92,135.03Z"/>
  </g>
</svg>