<?xml version="1.0" encoding="UTF-8"?>
<svg id="Calque_2" data-name="Calque 2" xmlns="http://www.w3.org/2000/svg" viewBox="0 0 284.74 426.71">
  <defs>
    <style>
      .cls-1 {
        fill: #000;
        stroke-width: 0px;
      }
    </style>
  </defs>
  <g id="I_POSITION">
    <path class="cls-1" d="M131.4,407.61c4.29,6.96,12.07,11.7,19.16,5.13,2.84-2.47,6.04-9.08,8.14-12.38,34.8-61.2,67.72-124.13,94.74-189.12,3.92-9.71,7.6-19.84,10.39-29.91,18.29-70.27-32.64-153.32-107.14-158.93-39.49-3.07-79.11,8.37-106.33,38.14-31.41,33.73-40.95,85.35-26.33,128.89,1.64,5.05,3.1,10.13,5.07,15.13.91,2.61,3.31,8.8,4.19,11.3.96,2.26,6.59,16.08,7.7,18.67,26.1,59.56,57.54,116.99,90.41,173.08h0ZM122.17,413.36c-34.52-56.01-67.33-112.93-95.09-172.66-2.8-6.25-5.56-12.67-8.31-18.96-1.08-2.54-3.52-9-4.6-11.61-2.14-5.1-3.84-10.47-5.67-15.76C-9.04,145.16.8,86.87,35.83,47.45,63.9,15.07,107.58-1.31,149.94.08c77.8,2.25,136.54,75.79,134.76,151.12-.14,17.23-4.1,34.56-10.49,50.55-9.89,25.78-22.18,50.56-34.51,75.05-24.57,47.56-49.88,94.76-78.63,139.95-12.02,15.08-28.87,12.32-38.9-3.38h0Z"/>
    <path class="cls-1" d="M191.54,104.05c31.92,26.73,36.12,76.22,8.55,107.56-12.89,15-32.35,23.29-51.75,25.03-19.47,1.89-39.47-4.28-54.68-16.62-37.34-29.96-37.44-88,.04-117.99,27.95-22.75,70.87-21.78,97.84,2.02h0ZM182.87,114.34c-19.03-16.06-47.6-19.02-69.45-7.12-39.78,20.82-46.97,75.05-13.16,105,19,17.19,49.42,21.57,71.68,8.2,38.98-22.6,45.97-76.62,10.92-106.08h0Z"/>
  </g>
</svg>